<svg width="25" height="25" viewBox="0 0 25 25" fill="none" xmlns="http://www.w3.org/2000/svg">
<path d="M22.6562 4.6875H13.2812C12.8125 4.6875 12.5 4.375 12.5 3.90625C12.5 3.4375 12.8125 3.125 13.2812 3.125H22.6562C23.125 3.125 23.4375 3.4375 23.4375 3.90625C23.4375 4.375 23.125 4.6875 22.6562 4.6875Z" fill="#293F55"/>
<path d="M18.75 7.8125H13.2812C12.8125 7.8125 12.5 7.5 12.5 7.03125C12.5 6.5625 12.8125 6.25 13.2812 6.25H18.75C19.2188 6.25 19.5312 6.5625 19.5312 7.03125C19.5312 7.5 19.2188 7.8125 18.75 7.8125Z" fill="#293F55"/>
<path d="M22.6562 17.1875H13.2812C12.8125 17.1875 12.5 16.875 12.5 16.4062C12.5 15.9375 12.8125 15.625 13.2812 15.625H22.6562C23.125 15.625 23.4375 15.9375 23.4375 16.4062C23.4375 16.875 23.125 17.1875 22.6562 17.1875Z" fill="#293F55"/>
<path d="M18.75 20.3125H13.2812C12.8125 20.3125 12.5 20 12.5 19.5312C12.5 19.0625 12.8125 18.75 13.2812 18.75H18.75C19.2188 18.75 19.5312 19.0625 19.5312 19.5312C19.5312 20 19.2188 20.3125 18.75 20.3125Z" fill="#293F55"/>
<path d="M6.25 23.4375C3.67188 23.4375 1.5625 21.3281 1.5625 18.75C1.5625 16.1719 3.67188 14.0625 6.25 14.0625C8.82812 14.0625 10.9375 16.1719 10.9375 18.75C10.9375 21.3281 8.82812 23.4375 6.25 23.4375Z" fill="#293F55"/>
<path d="M6.25 1.5625C3.67188 1.5625 1.5625 3.67188 1.5625 6.25C1.5625 8.82812 3.67188 10.9375 6.25 10.9375C8.82812 10.9375 10.9375 8.82812 10.9375 6.25C10.9375 3.67188 8.82812 1.5625 6.25 1.5625ZM6.25 7.8125C5.39062 7.8125 4.6875 7.10938 4.6875 6.25C4.6875 5.39062 5.39062 4.6875 6.25 4.6875C7.10938 4.6875 7.8125 5.39062 7.8125 6.25C7.8125 7.10938 7.10938 7.8125 6.25 7.8125Z" fill="#293F55"/>
</svg>
