<svg xmlns="http://www.w3.org/2000/svg" xmlns:xlink="http://www.w3.org/1999/xlink" width="300" zoomAndPan="magnify" viewBox="0 0 224.87999 225" height="300" preserveAspectRatio="xMidYMid meet" version="1.0"><defs><clipPath id="a3e8dae615"><path d="M 11 0.0585938 L 207 0.0585938 L 207 224.9375 L 11 224.9375 Z M 11 0.0585938 " clip-rule="nonzero"/></clipPath><clipPath id="5de929deb2"><path d="M 0.753906 0.0585938 L 178 0.0585938 L 178 224.9375 L 0.753906 224.9375 Z M 0.753906 0.0585938 " clip-rule="nonzero"/></clipPath><clipPath id="7b5f782f1c"><path d="M 0.753906 0.0585938 L 195.289062 0.0585938 L 195.289062 224.9375 L 0.753906 224.9375 Z M 0.753906 0.0585938 " clip-rule="nonzero"/></clipPath><clipPath id="07956c60d3"><path d="M 0.753906 52 L 195.289062 52 L 195.289062 224.9375 L 0.753906 224.9375 Z M 0.753906 52 " clip-rule="nonzero"/></clipPath><clipPath id="7984ba1927"><path d="M 0.753906 0.0585938 L 195.289062 0.0585938 L 195.289062 200 L 0.753906 200 Z M 0.753906 0.0585938 " clip-rule="nonzero"/></clipPath><clipPath id="15e10f6228"><path d="M 0.753906 0.0585938 L 195.289062 0.0585938 L 195.289062 214 L 0.753906 214 Z M 0.753906 0.0585938 " clip-rule="nonzero"/></clipPath><clipPath id="d92d70fcf1"><path d="M 0.753906 57 L 195.289062 57 L 195.289062 213 L 0.753906 213 Z M 0.753906 57 " clip-rule="nonzero"/></clipPath><clipPath id="dc8f26e40f"><path d="M 0.753906 85 L 195.289062 85 L 195.289062 224.9375 L 0.753906 224.9375 Z M 0.753906 85 " clip-rule="nonzero"/></clipPath><clipPath id="0b8f3fedf7"><rect x="0" width="196" y="0" height="225"/></clipPath></defs><g clip-path="url(#a3e8dae615)"><g transform="matrix(1, 0, 0, 1, 11, -0.000000000000003234)"><g clip-path="url(#0b8f3fedf7)"><g clip-path="url(#5de929deb2)"><path stroke-linecap="round" transform="matrix(-0.00528059, 0.683141, -0.683141, -0.00528059, 71.504951, 15.760217)" fill="none" stroke-linejoin="miter" d="M 15.002279 14.998431 L 237.766976 14.997628 " stroke="#3498db" stroke-width="30" stroke-opacity="1" stroke-miterlimit="4"/></g><g clip-path="url(#7b5f782f1c)"><path stroke-linecap="round" transform="matrix(0.675906, 0.0993, -0.0993, 0.675906, 54.201433, 81.232669)" fill="none" stroke-linejoin="miter" d="M 21.523976 46.61151 C 61.503736 4.432489 101.477344 4.460453 141.451288 46.700228 " stroke="#3498db" stroke-width="30" stroke-opacity="1" stroke-miterlimit="4"/></g><g clip-path="url(#07956c60d3)"><path stroke-linecap="round" transform="matrix(0.677898, -0.0846421, 0.0846421, 0.677898, 43.43576, 166.982174)" fill="none" stroke-linejoin="miter" d="M 21.650354 20.823178 C 63.126908 57.008868 104.601295 56.983988 146.079189 20.749246 " stroke="#3498db" stroke-width="30" stroke-opacity="1" stroke-miterlimit="4"/></g><g clip-path="url(#7984ba1927)"><path stroke-linecap="round" transform="matrix(0.515054, -0.448808, 0.448808, 0.515054, 42.666165, 79.592407)" fill="none" stroke-linejoin="miter" d="M 18.400108 24.416561 C 65.880343 13.489552 99.805226 12.069735 120.167798 20.173801 " stroke="#3498db" stroke-width="30" stroke-opacity="1" stroke-miterlimit="4"/></g><g clip-path="url(#15e10f6228)"><path stroke-linecap="round" transform="matrix(0.631346, -0.260981, 0.260981, 0.631346, 53.959817, 86.406307)" fill="none" stroke-linejoin="miter" d="M 18.344416 24.492541 C 67.422864 13.442195 102.403823 12.038456 123.287295 20.281323 " stroke="#3498db" stroke-width="30" stroke-opacity="1" stroke-miterlimit="4"/></g><g clip-path="url(#d92d70fcf1)"><path stroke-linecap="butt" transform="matrix(0.683159, 0.00193983, -0.00193983, 0.683159, 34.485065, 128.373517)" fill="none" stroke-linejoin="miter" d="M -0.00119676 10.002826 L 196.015 10.000875 " stroke="#71b7ff" stroke-width="20" stroke-opacity="1" stroke-miterlimit="4"/></g><g clip-path="url(#dc8f26e40f)"><path stroke-linecap="butt" transform="matrix(0.68315, 0.00388068, -0.00388068, 0.68315, 34.56026, 155.928547)" fill="none" stroke-linejoin="miter" d="M -0.0027987 10.002459 L 195.9643 9.998547 " stroke="#71b7ff" stroke-width="20" stroke-opacity="1" stroke-miterlimit="4"/></g></g></g></g></svg>