<svg width="28" height="35" viewBox="0 0 28 35" fill="none" xmlns="http://www.w3.org/2000/svg">
<g clip-path="url(#clip0_185_128)">
<path d="M27.663 11.9868L15.2723 5.05761C14.8704 4.83272 14.4423 4.71924 14 4.71924C13.5577 4.71924 13.1297 4.83272 12.7277 5.05761L0.337039 11.9868C0.132234 12.1018 0 12.3524 0 12.6264C0 12.9003 0.132234 13.151 0.337039 13.266L12.7277 20.1951C13.1296 20.42 13.5577 20.534 14 20.534C14.4423 20.534 14.8704 20.42 15.2724 20.1951L25.0512 14.7268V20.2333C24.6631 20.2864 24.3605 20.6877 24.3605 21.1726C24.3605 21.5951 24.5906 21.9608 24.9186 22.0774L24.2574 27.3786H27.3021L26.641 22.0774C26.9689 21.9608 27.199 21.5951 27.199 21.1726C27.199 20.6877 26.8964 20.2864 26.5083 20.2333V13.9118L27.6631 13.266C27.8678 13.151 28.0001 12.9003 28.0001 12.6264C28.0001 12.3524 27.8678 12.1018 27.663 11.9868Z" fill="#293F55"/>
<path d="M14 23.043C13.385 23.043 12.7891 22.8841 12.2289 22.571L6.16837 19.1815V25.9342C6.16837 27.4167 9.85573 29.2974 14 29.2974C18.1443 29.2974 21.8317 27.4166 21.8317 25.9342V19.1815L15.7709 22.571C15.2111 22.8841 14.6152 23.043 14 23.043Z" fill="#293F55"/>
</g>
<defs>
<clipPath id="clip0_185_128">
<rect width="28" height="34.0165" fill="white"/>
</clipPath>
</defs>
</svg>
