<svg xmlns="http://www.w3.org/2000/svg" xmlns:xlink="http://www.w3.org/1999/xlink" width="200" zoomAndPan="magnify" viewBox="0 0 150 74.999997" height="100" preserveAspectRatio="xMidYMid meet" version="1.2"><defs/><g id="a1d99af8d4"><g style="fill:#293f55;fill-opacity:1;"><g transform="translate(4.2702, 42.739188)"><path style="stroke:none" d="M 15.4375 -12.734375 C 15.4375 -11.941406 15.28125 -11.253906 14.96875 -10.671875 C 14.65625 -10.085938 14.109375 -9.613281 13.328125 -9.25 C 14.171875 -8.945312 14.820312 -8.445312 15.28125 -7.75 C 15.75 -7.0625 15.984375 -6.175781 15.984375 -5.09375 C 15.984375 -3.738281 15.5 -2.566406 14.53125 -1.578125 C 14 -1.046875 13.363281 -0.648438 12.625 -0.390625 C 11.882812 -0.128906 10.804688 0 9.390625 0 L 1.8125 0 L 1.8125 -17.15625 L 10.265625 -17.15625 C 11.335938 -17.15625 12.265625 -16.957031 13.046875 -16.5625 C 13.828125 -16.175781 14.421875 -15.644531 14.828125 -14.96875 C 15.234375 -14.300781 15.4375 -13.554688 15.4375 -12.734375 Z M 12 -12.34375 C 12 -13.0625 11.765625 -13.546875 11.296875 -13.796875 C 10.835938 -14.054688 10.203125 -14.1875 9.390625 -14.1875 L 5.25 -14.1875 L 5.25 -10.4375 L 9.515625 -10.4375 C 10.222656 -10.4375 10.8125 -10.582031 11.28125 -10.875 C 11.757812 -11.175781 12 -11.664062 12 -12.34375 Z M 12.40625 -5.46875 C 12.40625 -6.101562 12.171875 -6.609375 11.703125 -6.984375 C 11.242188 -7.359375 10.609375 -7.546875 9.796875 -7.546875 L 5.25 -7.546875 L 5.25 -2.96875 L 9.671875 -2.96875 C 11.492188 -2.96875 12.40625 -3.800781 12.40625 -5.46875 Z M 12.40625 -5.46875 "/></g></g><g style="fill:#293f55;fill-opacity:1;"><g transform="translate(19.031775, 42.739188)"><path style="stroke:none" d="M 8.453125 -2.578125 C 10.742188 -2.578125 11.890625 -3.660156 11.890625 -5.828125 L 11.890625 -17.15625 L 15.546875 -17.15625 L 15.546875 -5.875 C 15.546875 -3.832031 14.945312 -2.265625 13.75 -1.171875 C 12.5625 -0.0859375 10.8125 0.453125 8.5 0.453125 C 6.382812 0.453125 4.722656 -0.078125 3.515625 -1.140625 C 2.316406 -2.210938 1.71875 -3.785156 1.71875 -5.859375 L 1.71875 -17.15625 L 5.375 -17.15625 L 5.375 -5.921875 C 5.375 -4.898438 5.648438 -4.085938 6.203125 -3.484375 C 6.753906 -2.878906 7.503906 -2.578125 8.453125 -2.578125 Z M 8.453125 -2.578125 "/></g></g><g style="fill:#293f55;fill-opacity:1;"><g transform="translate(34.032219, 42.739188)"><path style="stroke:none" d="M 16.359375 -8.984375 C 16.359375 -7.117188 16.0625 -5.507812 15.46875 -4.15625 C 14.882812 -2.800781 14.0625 -1.769531 13 -1.0625 C 11.945312 -0.351562 10.734375 0 9.359375 0 L 1.8125 0 L 1.8125 -17.15625 L 9.515625 -17.15625 C 11.023438 -17.15625 12.289062 -16.800781 13.3125 -16.09375 C 14.34375 -15.382812 15.109375 -14.414062 15.609375 -13.1875 C 16.109375 -11.957031 16.359375 -10.554688 16.359375 -8.984375 Z M 12.703125 -8.75 C 12.703125 -12.375 11.4375 -14.1875 8.90625 -14.1875 L 5.328125 -14.1875 L 5.328125 -2.96875 L 8.890625 -2.96875 C 10.066406 -2.96875 10.992188 -3.484375 11.671875 -4.515625 C 12.359375 -5.546875 12.703125 -6.957031 12.703125 -8.75 Z M 12.703125 -8.75 "/></g></g><g style="fill:#293f55;fill-opacity:1;"><g transform="translate(49.032663, 42.739188)"><path style="stroke:none" d="M 16.96875 -11.828125 L 13.375 -11.828125 C 13.3125 -12.273438 13.101562 -12.71875 12.75 -13.15625 C 12.40625 -13.59375 11.960938 -13.945312 11.421875 -14.21875 C 10.878906 -14.5 10.28125 -14.640625 9.625 -14.640625 C 8.113281 -14.640625 6.914062 -14.101562 6.03125 -13.03125 C 5.144531 -11.957031 4.703125 -10.441406 4.703125 -8.484375 C 4.703125 -6.566406 5.128906 -5.101562 5.984375 -4.09375 C 6.847656 -3.082031 8.078125 -2.578125 9.671875 -2.578125 C 10.660156 -2.578125 11.539062 -2.90625 12.3125 -3.5625 C 13.082031 -4.21875 13.597656 -5.148438 13.859375 -6.359375 L 9.859375 -6.359375 L 9.859375 -9.25 L 17.03125 -9.25 L 17.03125 0 L 14.640625 0 L 14.28125 -2.15625 C 13.5 -1.195312 12.679688 -0.519531 11.828125 -0.125 C 10.984375 0.257812 10.023438 0.453125 8.953125 0.453125 C 7.441406 0.453125 6.085938 0.09375 4.890625 -0.625 C 3.703125 -1.351562 2.765625 -2.394531 2.078125 -3.75 C 1.390625 -5.101562 1.046875 -6.6875 1.046875 -8.5 C 1.046875 -10.269531 1.375 -11.84375 2.03125 -13.21875 C 2.695312 -14.601562 3.660156 -15.679688 4.921875 -16.453125 C 6.191406 -17.222656 7.703125 -17.609375 9.453125 -17.609375 C 10.847656 -17.609375 12.085938 -17.359375 13.171875 -16.859375 C 14.265625 -16.367188 15.140625 -15.6875 15.796875 -14.8125 C 16.460938 -13.9375 16.851562 -12.941406 16.96875 -11.828125 Z M 16.96875 -11.828125 "/></g></g><g style="fill:#293f55;fill-opacity:1;"><g transform="translate(65.370764, 42.739188)"><path style="stroke:none" d="M 5.328125 -14.125 L 5.328125 -10.515625 L 13.6875 -10.515625 L 13.6875 -7.484375 L 5.328125 -7.484375 L 5.328125 -3.03125 L 14.84375 -3.03125 L 14.84375 0 L 1.8125 0 L 1.8125 -17.15625 L 14.4375 -17.15625 L 14.4375 -14.125 Z M 5.328125 -14.125 "/></g></g><g style="fill:#293f55;fill-opacity:1;"><g transform="translate(79.057444, 42.739188)"><path style="stroke:none" d="M 9.109375 -14.125 L 9.109375 0 L 5.515625 0 L 5.515625 -14.125 L 0.328125 -14.125 L 0.328125 -17.15625 L 14.28125 -17.15625 L 14.28125 -14.125 Z M 9.109375 -14.125 "/></g></g><g style="fill:#293f55;fill-opacity:1;"><g transform="translate(91.406467, 42.739188)"><path style="stroke:none" d="M 6.921875 -4.609375 L 6.96875 -4.609375 C 7.5 -7.617188 8.296875 -11.800781 9.359375 -17.15625 L 13.15625 -17.15625 L 14.890625 -9.03125 C 15.023438 -8.34375 15.148438 -7.691406 15.265625 -7.078125 C 15.378906 -6.460938 15.484375 -5.910156 15.578125 -5.421875 L 15.71875 -4.609375 L 15.765625 -4.609375 L 16.203125 -6.90625 C 16.335938 -7.65625 16.929688 -10.242188 17.984375 -14.671875 L 18.5625 -17.15625 L 22.1875 -17.15625 L 17.375 0 L 13.921875 0 C 12.671875 -5.863281 11.789062 -10.320312 11.28125 -13.375 L 11.234375 -13.375 C 10.910156 -11.320312 10.4375 -8.847656 9.8125 -5.953125 L 8.578125 0 L 5.234375 0 L 0.375 -17.15625 L 4.203125 -17.15625 C 4.835938 -14.457031 5.414062 -11.910156 5.9375 -9.515625 C 6.46875 -7.117188 6.796875 -5.484375 6.921875 -4.609375 Z M 6.921875 -4.609375 "/></g></g><g style="fill:#293f55;fill-opacity:1;"><g transform="translate(111.709754, 42.739188)"><path style="stroke:none" d="M 1.53125 0 L 1.53125 -17.15625 L 5.109375 -17.15625 L 5.109375 0 Z M 1.53125 0 "/></g></g><g style="fill:#293f55;fill-opacity:1;"><g transform="translate(116.104512, 42.739188)"><path style="stroke:none" d="M 7.53125 -14.640625 C 6.65625 -14.640625 5.9375 -14.453125 5.375 -14.078125 C 4.820312 -13.703125 4.546875 -13.207031 4.546875 -12.59375 C 4.546875 -12.125 4.675781 -11.742188 4.9375 -11.453125 C 5.195312 -11.160156 5.738281 -10.921875 6.5625 -10.734375 L 10.609375 -9.75 C 12.265625 -9.351562 13.414062 -8.78125 14.0625 -8.03125 C 14.707031 -7.28125 15.03125 -6.320312 15.03125 -5.15625 C 15.03125 -3.9375 14.726562 -2.898438 14.125 -2.046875 C 13.53125 -1.203125 12.722656 -0.570312 11.703125 -0.15625 C 10.679688 0.25 9.53125 0.453125 8.25 0.453125 C 5.976562 0.453125 4.207031 -0.0195312 2.9375 -0.96875 C 1.664062 -1.925781 1 -3.363281 0.9375 -5.28125 L 4.375 -5.28125 C 4.40625 -4.40625 4.726562 -3.722656 5.34375 -3.234375 C 5.96875 -2.753906 6.851562 -2.515625 8 -2.515625 C 9.164062 -2.515625 10.054688 -2.695312 10.671875 -3.0625 C 11.285156 -3.425781 11.59375 -3.984375 11.59375 -4.734375 C 11.59375 -5.210938 11.425781 -5.585938 11.09375 -5.859375 C 10.769531 -6.128906 10.222656 -6.375 9.453125 -6.59375 C 8.691406 -6.8125 7.421875 -7.125 5.640625 -7.53125 C 4.078125 -7.875 2.941406 -8.425781 2.234375 -9.1875 C 1.535156 -9.957031 1.1875 -11.003906 1.1875 -12.328125 C 1.1875 -13.347656 1.429688 -14.253906 1.921875 -15.046875 C 2.410156 -15.847656 3.144531 -16.472656 4.125 -16.921875 C 5.113281 -17.378906 6.332031 -17.609375 7.78125 -17.609375 C 9.101562 -17.609375 10.257812 -17.378906 11.25 -16.921875 C 12.25 -16.472656 13.03125 -15.828125 13.59375 -14.984375 C 14.15625 -14.148438 14.453125 -13.175781 14.484375 -12.0625 L 11.03125 -12.0625 C 10.875 -13.78125 9.707031 -14.640625 7.53125 -14.640625 Z M 7.53125 -14.640625 "/></g></g><g style="fill:#293f55;fill-opacity:1;"><g transform="translate(129.791192, 42.739188)"><path style="stroke:none" d="M 5.328125 -14.125 L 5.328125 -10.515625 L 13.6875 -10.515625 L 13.6875 -7.484375 L 5.328125 -7.484375 L 5.328125 -3.03125 L 14.84375 -3.03125 L 14.84375 0 L 1.8125 0 L 1.8125 -17.15625 L 14.4375 -17.15625 L 14.4375 -14.125 Z M 5.328125 -14.125 "/></g></g><g style="fill:#293f55;fill-opacity:1;"><g transform="translate(40.914972, 50.296036)"><path style="stroke:none" d="M 2.5 -3.875 L 2.5 0 L 1.515625 0 L 1.515625 -3.875 L 0.09375 -3.875 L 0.09375 -4.71875 L 3.921875 -4.71875 L 3.921875 -3.875 Z M 2.5 -3.875 "/></g></g><g style="fill:#293f55;fill-opacity:1;"><g transform="translate(43.781219, 50.296036)"><path style="stroke:none" d="M 2.453125 -3.5625 L 2.453125 -2.640625 C 2.378906 -2.648438 2.296875 -2.65625 2.203125 -2.65625 C 1.628906 -2.65625 1.34375 -2.382812 1.34375 -1.84375 L 1.34375 0 L 0.421875 0 L 0.421875 -3.484375 L 1.296875 -3.484375 L 1.296875 -2.890625 L 1.3125 -2.890625 C 1.445312 -3.148438 1.585938 -3.328125 1.734375 -3.421875 C 1.878906 -3.523438 2.054688 -3.578125 2.265625 -3.578125 C 2.285156 -3.578125 2.347656 -3.570312 2.453125 -3.5625 Z M 2.453125 -3.5625 "/></g></g><g style="fill:#293f55;fill-opacity:1;"><g transform="translate(45.716087, 50.296036)"><path style="stroke:none" d="M 3.453125 -0.140625 L 3.453125 0 L 2.46875 0 C 2.414062 -0.15625 2.382812 -0.289062 2.375 -0.40625 C 2.207031 -0.226562 2.035156 -0.0976562 1.859375 -0.015625 C 1.679688 0.0546875 1.476562 0.09375 1.25 0.09375 C 0.9375 0.09375 0.679688 0.00390625 0.484375 -0.171875 C 0.285156 -0.359375 0.1875 -0.609375 0.1875 -0.921875 C 0.1875 -1.210938 0.265625 -1.457031 0.421875 -1.65625 C 0.585938 -1.851562 0.875 -1.984375 1.28125 -2.046875 L 1.9375 -2.15625 C 2.101562 -2.175781 2.210938 -2.207031 2.265625 -2.25 C 2.328125 -2.289062 2.359375 -2.359375 2.359375 -2.453125 C 2.359375 -2.578125 2.3125 -2.671875 2.21875 -2.734375 C 2.125 -2.804688 1.96875 -2.84375 1.75 -2.84375 C 1.40625 -2.84375 1.21875 -2.679688 1.1875 -2.359375 L 0.296875 -2.359375 C 0.335938 -2.753906 0.472656 -3.054688 0.703125 -3.265625 C 0.941406 -3.472656 1.320312 -3.578125 1.84375 -3.578125 C 2.28125 -3.578125 2.625 -3.488281 2.875 -3.3125 C 3.125 -3.144531 3.25 -2.90625 3.25 -2.59375 L 3.25 -0.65625 C 3.25 -0.488281 3.265625 -0.363281 3.296875 -0.28125 C 3.335938 -0.207031 3.390625 -0.160156 3.453125 -0.140625 Z M 2.359375 -1.265625 L 2.359375 -1.703125 C 2.273438 -1.648438 2.1875 -1.609375 2.09375 -1.578125 C 2.007812 -1.554688 1.878906 -1.53125 1.703125 -1.5 C 1.503906 -1.476562 1.351562 -1.425781 1.25 -1.34375 C 1.15625 -1.257812 1.109375 -1.140625 1.109375 -0.984375 C 1.109375 -0.859375 1.144531 -0.753906 1.21875 -0.671875 C 1.300781 -0.597656 1.40625 -0.5625 1.53125 -0.5625 C 1.664062 -0.5625 1.796875 -0.585938 1.921875 -0.640625 C 2.054688 -0.703125 2.160156 -0.785156 2.234375 -0.890625 C 2.316406 -1.003906 2.359375 -1.128906 2.359375 -1.265625 Z M 2.359375 -1.265625 "/></g></g><g style="fill:#293f55;fill-opacity:1;"><g transform="translate(48.746348, 50.296036)"><path style="stroke:none" d="M 1.921875 -2.8125 C 1.671875 -2.8125 1.484375 -2.71875 1.359375 -2.53125 C 1.234375 -2.34375 1.171875 -2.082031 1.171875 -1.75 C 1.171875 -1.34375 1.234375 -1.054688 1.359375 -0.890625 C 1.484375 -0.734375 1.65625 -0.65625 1.875 -0.65625 C 2.039062 -0.65625 2.179688 -0.710938 2.296875 -0.828125 C 2.410156 -0.953125 2.476562 -1.097656 2.5 -1.265625 L 3.4375 -1.265625 C 3.375 -0.867188 3.207031 -0.539062 2.9375 -0.28125 C 2.664062 -0.03125 2.300781 0.09375 1.84375 0.09375 C 1.3125 0.09375 0.90625 -0.0625 0.625 -0.375 C 0.351562 -0.6875 0.21875 -1.109375 0.21875 -1.640625 C 0.21875 -2.265625 0.363281 -2.742188 0.65625 -3.078125 C 0.945312 -3.410156 1.359375 -3.578125 1.890625 -3.578125 C 2.171875 -3.578125 2.425781 -3.523438 2.65625 -3.421875 C 2.882812 -3.316406 3.066406 -3.160156 3.203125 -2.953125 C 3.335938 -2.753906 3.414062 -2.519531 3.4375 -2.25 L 2.5 -2.25 C 2.476562 -2.414062 2.414062 -2.550781 2.3125 -2.65625 C 2.21875 -2.757812 2.085938 -2.8125 1.921875 -2.8125 Z M 1.921875 -2.8125 "/></g></g><g style="fill:#293f55;fill-opacity:1;"><g transform="translate(51.645417, 50.296036)"><path style="stroke:none" d="M 2.53125 -3.484375 L 3.65625 -3.484375 L 2.421875 -2.140625 L 3.6875 0 L 2.578125 0 L 1.75 -1.5 L 1.375 -1.109375 L 1.375 0 L 0.453125 0 L 0.453125 -4.71875 L 1.375 -4.71875 L 1.375 -2.171875 Z M 2.53125 -3.484375 "/></g></g><g style="fill:#293f55;fill-opacity:1;"><g transform="translate(54.675678, 50.296036)"><path style="stroke:none" d=""/></g></g><g style="fill:#293f55;fill-opacity:1;"><g transform="translate(55.882471, 50.296036)"><path style="stroke:none" d="M 2.0625 -4.015625 C 1.820312 -4.015625 1.625 -3.960938 1.46875 -3.859375 C 1.320312 -3.765625 1.25 -3.628906 1.25 -3.453125 C 1.25 -3.328125 1.285156 -3.222656 1.359375 -3.140625 C 1.429688 -3.066406 1.578125 -3.003906 1.796875 -2.953125 L 2.90625 -2.671875 C 3.363281 -2.566406 3.679688 -2.410156 3.859375 -2.203125 C 4.035156 -1.992188 4.125 -1.734375 4.125 -1.421875 C 4.125 -1.078125 4.039062 -0.789062 3.875 -0.5625 C 3.71875 -0.332031 3.5 -0.160156 3.21875 -0.046875 C 2.9375 0.0664062 2.617188 0.125 2.265625 0.125 C 1.640625 0.125 1.148438 -0.00390625 0.796875 -0.265625 C 0.453125 -0.523438 0.269531 -0.921875 0.25 -1.453125 L 1.203125 -1.453125 C 1.210938 -1.210938 1.300781 -1.023438 1.46875 -0.890625 C 1.632812 -0.753906 1.878906 -0.6875 2.203125 -0.6875 C 2.515625 -0.6875 2.753906 -0.734375 2.921875 -0.828125 C 3.097656 -0.929688 3.1875 -1.085938 3.1875 -1.296875 C 3.1875 -1.429688 3.140625 -1.535156 3.046875 -1.609375 C 2.953125 -1.679688 2.800781 -1.75 2.59375 -1.8125 C 2.382812 -1.875 2.035156 -1.957031 1.546875 -2.0625 C 1.117188 -2.164062 0.804688 -2.320312 0.609375 -2.53125 C 0.421875 -2.738281 0.328125 -3.023438 0.328125 -3.390625 C 0.328125 -3.671875 0.394531 -3.921875 0.53125 -4.140625 C 0.664062 -4.359375 0.867188 -4.53125 1.140625 -4.65625 C 1.410156 -4.78125 1.742188 -4.84375 2.140625 -4.84375 C 2.503906 -4.84375 2.820312 -4.78125 3.09375 -4.65625 C 3.363281 -4.53125 3.578125 -4.347656 3.734375 -4.109375 C 3.890625 -3.878906 3.972656 -3.613281 3.984375 -3.3125 L 3.03125 -3.3125 C 2.988281 -3.78125 2.664062 -4.015625 2.0625 -4.015625 Z M 2.0625 -4.015625 "/></g></g><g style="fill:#293f55;fill-opacity:1;"><g transform="translate(59.64081, 50.296036)"><path style="stroke:none" d="M 3.28125 -3.03125 C 3.519531 -3.394531 3.828125 -3.578125 4.203125 -3.578125 C 4.453125 -3.578125 4.664062 -3.523438 4.84375 -3.421875 C 5.03125 -3.328125 5.171875 -3.191406 5.265625 -3.015625 C 5.367188 -2.847656 5.421875 -2.65625 5.421875 -2.4375 L 5.421875 0 L 4.5 0 L 4.5 -2.140625 C 4.5 -2.367188 4.453125 -2.535156 4.359375 -2.640625 C 4.265625 -2.753906 4.144531 -2.8125 4 -2.8125 C 3.78125 -2.8125 3.617188 -2.742188 3.515625 -2.609375 C 3.421875 -2.484375 3.375 -2.3125 3.375 -2.09375 L 3.375 0 L 2.453125 0 L 2.453125 -2.171875 C 2.453125 -2.398438 2.40625 -2.5625 2.3125 -2.65625 C 2.226562 -2.757812 2.09375 -2.8125 1.90625 -2.8125 C 1.71875 -2.8125 1.578125 -2.75 1.484375 -2.625 C 1.390625 -2.507812 1.34375 -2.351562 1.34375 -2.15625 L 1.34375 0 L 0.421875 0 L 0.421875 -3.484375 L 1.296875 -3.484375 L 1.296875 -2.984375 L 1.3125 -2.984375 C 1.519531 -3.378906 1.847656 -3.578125 2.296875 -3.578125 C 2.523438 -3.578125 2.710938 -3.535156 2.859375 -3.453125 C 3.003906 -3.378906 3.144531 -3.238281 3.28125 -3.03125 Z M 3.28125 -3.03125 "/></g></g><g style="fill:#293f55;fill-opacity:1;"><g transform="translate(64.855299, 50.296036)"><path style="stroke:none" d="M 3.453125 -0.140625 L 3.453125 0 L 2.46875 0 C 2.414062 -0.15625 2.382812 -0.289062 2.375 -0.40625 C 2.207031 -0.226562 2.035156 -0.0976562 1.859375 -0.015625 C 1.679688 0.0546875 1.476562 0.09375 1.25 0.09375 C 0.9375 0.09375 0.679688 0.00390625 0.484375 -0.171875 C 0.285156 -0.359375 0.1875 -0.609375 0.1875 -0.921875 C 0.1875 -1.210938 0.265625 -1.457031 0.421875 -1.65625 C 0.585938 -1.851562 0.875 -1.984375 1.28125 -2.046875 L 1.9375 -2.15625 C 2.101562 -2.175781 2.210938 -2.207031 2.265625 -2.25 C 2.328125 -2.289062 2.359375 -2.359375 2.359375 -2.453125 C 2.359375 -2.578125 2.3125 -2.671875 2.21875 -2.734375 C 2.125 -2.804688 1.96875 -2.84375 1.75 -2.84375 C 1.40625 -2.84375 1.21875 -2.679688 1.1875 -2.359375 L 0.296875 -2.359375 C 0.335938 -2.753906 0.472656 -3.054688 0.703125 -3.265625 C 0.941406 -3.472656 1.320312 -3.578125 1.84375 -3.578125 C 2.28125 -3.578125 2.625 -3.488281 2.875 -3.3125 C 3.125 -3.144531 3.25 -2.90625 3.25 -2.59375 L 3.25 -0.65625 C 3.25 -0.488281 3.265625 -0.363281 3.296875 -0.28125 C 3.335938 -0.207031 3.390625 -0.160156 3.453125 -0.140625 Z M 2.359375 -1.265625 L 2.359375 -1.703125 C 2.273438 -1.648438 2.1875 -1.609375 2.09375 -1.578125 C 2.007812 -1.554688 1.878906 -1.53125 1.703125 -1.5 C 1.503906 -1.476562 1.351562 -1.425781 1.25 -1.34375 C 1.15625 -1.257812 1.109375 -1.140625 1.109375 -0.984375 C 1.109375 -0.859375 1.144531 -0.753906 1.21875 -0.671875 C 1.300781 -0.597656 1.40625 -0.5625 1.53125 -0.5625 C 1.664062 -0.5625 1.796875 -0.585938 1.921875 -0.640625 C 2.054688 -0.703125 2.160156 -0.785156 2.234375 -0.890625 C 2.316406 -1.003906 2.359375 -1.128906 2.359375 -1.265625 Z M 2.359375 -1.265625 "/></g></g><g style="fill:#293f55;fill-opacity:1;"><g transform="translate(67.885561, 50.296036)"><path style="stroke:none" d="M 2.453125 -3.5625 L 2.453125 -2.640625 C 2.378906 -2.648438 2.296875 -2.65625 2.203125 -2.65625 C 1.628906 -2.65625 1.34375 -2.382812 1.34375 -1.84375 L 1.34375 0 L 0.421875 0 L 0.421875 -3.484375 L 1.296875 -3.484375 L 1.296875 -2.890625 L 1.3125 -2.890625 C 1.445312 -3.148438 1.585938 -3.328125 1.734375 -3.421875 C 1.878906 -3.523438 2.054688 -3.578125 2.265625 -3.578125 C 2.285156 -3.578125 2.347656 -3.570312 2.453125 -3.5625 Z M 2.453125 -3.5625 "/></g></g><g style="fill:#293f55;fill-opacity:1;"><g transform="translate(69.951622, 50.296036)"><path style="stroke:none" d="M 2.03125 -3.484375 L 2.03125 -2.828125 L 1.453125 -2.828125 L 1.453125 -0.890625 C 1.453125 -0.796875 1.476562 -0.734375 1.53125 -0.703125 C 1.582031 -0.671875 1.679688 -0.65625 1.828125 -0.65625 C 1.867188 -0.65625 1.9375 -0.660156 2.03125 -0.671875 L 2.03125 0.03125 C 1.78125 0.0390625 1.613281 0.046875 1.53125 0.046875 C 1.25 0.046875 1.035156 0.015625 0.890625 -0.046875 C 0.753906 -0.109375 0.660156 -0.191406 0.609375 -0.296875 C 0.554688 -0.398438 0.53125 -0.539062 0.53125 -0.71875 L 0.53125 -2.828125 L 0.0625 -2.828125 L 0.0625 -3.484375 L 0.53125 -3.484375 L 0.53125 -4.4375 L 1.453125 -4.4375 L 1.453125 -3.484375 Z M 2.03125 -3.484375 "/></g></g><g style="fill:#293f55;fill-opacity:1;"><g transform="translate(71.519171, 50.296036)"><path style="stroke:none" d="M 0.421875 1.109375 L 0.421875 0.75 C 0.617188 0.6875 0.753906 0.597656 0.828125 0.484375 C 0.910156 0.367188 0.957031 0.207031 0.96875 0 L 0.421875 0 L 0.421875 -0.953125 L 1.40625 -0.953125 L 1.40625 -0.109375 C 1.40625 0.554688 1.078125 0.960938 0.421875 1.109375 Z M 0.421875 1.109375 "/></g></g><g style="fill:#293f55;fill-opacity:1;"><g transform="translate(72.463576, 50.296036)"><path style="stroke:none" d=""/></g></g><g style="fill:#293f55;fill-opacity:1;"><g transform="translate(73.670372, 50.296036)"><path style="stroke:none" d="M 2.0625 -4.015625 C 1.820312 -4.015625 1.625 -3.960938 1.46875 -3.859375 C 1.320312 -3.765625 1.25 -3.628906 1.25 -3.453125 C 1.25 -3.328125 1.285156 -3.222656 1.359375 -3.140625 C 1.429688 -3.066406 1.578125 -3.003906 1.796875 -2.953125 L 2.90625 -2.671875 C 3.363281 -2.566406 3.679688 -2.410156 3.859375 -2.203125 C 4.035156 -1.992188 4.125 -1.734375 4.125 -1.421875 C 4.125 -1.078125 4.039062 -0.789062 3.875 -0.5625 C 3.71875 -0.332031 3.5 -0.160156 3.21875 -0.046875 C 2.9375 0.0664062 2.617188 0.125 2.265625 0.125 C 1.640625 0.125 1.148438 -0.00390625 0.796875 -0.265625 C 0.453125 -0.523438 0.269531 -0.921875 0.25 -1.453125 L 1.203125 -1.453125 C 1.210938 -1.210938 1.300781 -1.023438 1.46875 -0.890625 C 1.632812 -0.753906 1.878906 -0.6875 2.203125 -0.6875 C 2.515625 -0.6875 2.753906 -0.734375 2.921875 -0.828125 C 3.097656 -0.929688 3.1875 -1.085938 3.1875 -1.296875 C 3.1875 -1.429688 3.140625 -1.535156 3.046875 -1.609375 C 2.953125 -1.679688 2.800781 -1.75 2.59375 -1.8125 C 2.382812 -1.875 2.035156 -1.957031 1.546875 -2.0625 C 1.117188 -2.164062 0.804688 -2.320312 0.609375 -2.53125 C 0.421875 -2.738281 0.328125 -3.023438 0.328125 -3.390625 C 0.328125 -3.671875 0.394531 -3.921875 0.53125 -4.140625 C 0.664062 -4.359375 0.867188 -4.53125 1.140625 -4.65625 C 1.410156 -4.78125 1.742188 -4.84375 2.140625 -4.84375 C 2.503906 -4.84375 2.820312 -4.78125 3.09375 -4.65625 C 3.363281 -4.53125 3.578125 -4.347656 3.734375 -4.109375 C 3.890625 -3.878906 3.972656 -3.613281 3.984375 -3.3125 L 3.03125 -3.3125 C 2.988281 -3.78125 2.664062 -4.015625 2.0625 -4.015625 Z M 2.0625 -4.015625 "/></g></g><g style="fill:#293f55;fill-opacity:1;"><g transform="translate(77.428709, 50.296036)"><path style="stroke:none" d="M 3.796875 -1.78125 C 3.796875 -1.414062 3.734375 -1.09375 3.609375 -0.8125 C 3.492188 -0.53125 3.328125 -0.304688 3.109375 -0.140625 C 2.890625 0.015625 2.628906 0.09375 2.328125 0.09375 C 1.867188 0.09375 1.539062 -0.0859375 1.34375 -0.453125 L 1.328125 -0.453125 L 1.328125 1.359375 L 0.40625 1.359375 L 0.40625 -3.484375 L 1.28125 -3.484375 L 1.28125 -2.984375 L 1.296875 -2.984375 C 1.523438 -3.378906 1.875 -3.578125 2.34375 -3.578125 C 2.625 -3.578125 2.875 -3.503906 3.09375 -3.359375 C 3.3125 -3.210938 3.484375 -3.003906 3.609375 -2.734375 C 3.734375 -2.460938 3.796875 -2.144531 3.796875 -1.78125 Z M 2.09375 -0.65625 C 2.332031 -0.65625 2.515625 -0.753906 2.640625 -0.953125 C 2.773438 -1.160156 2.84375 -1.414062 2.84375 -1.71875 C 2.84375 -2.050781 2.773438 -2.3125 2.640625 -2.5 C 2.515625 -2.6875 2.320312 -2.78125 2.0625 -2.78125 C 1.8125 -2.78125 1.617188 -2.6875 1.484375 -2.5 C 1.347656 -2.3125 1.28125 -2.035156 1.28125 -1.671875 C 1.28125 -1.347656 1.351562 -1.097656 1.5 -0.921875 C 1.644531 -0.742188 1.84375 -0.65625 2.09375 -0.65625 Z M 2.09375 -0.65625 "/></g></g><g style="fill:#293f55;fill-opacity:1;"><g transform="translate(80.819731, 50.296036)"><path style="stroke:none" d="M 1.890625 -0.640625 C 2.023438 -0.640625 2.144531 -0.671875 2.25 -0.734375 C 2.363281 -0.804688 2.441406 -0.90625 2.484375 -1.03125 L 3.421875 -1.03125 C 3.328125 -0.664062 3.140625 -0.382812 2.859375 -0.1875 C 2.585938 0 2.265625 0.09375 1.890625 0.09375 C 1.316406 0.09375 0.882812 -0.0625 0.59375 -0.375 C 0.300781 -0.695312 0.15625 -1.175781 0.15625 -1.8125 C 0.15625 -2.15625 0.21875 -2.457031 0.34375 -2.71875 C 0.46875 -2.988281 0.65625 -3.195312 0.90625 -3.34375 C 1.15625 -3.5 1.457031 -3.578125 1.8125 -3.578125 C 2.3125 -3.578125 2.710938 -3.414062 3.015625 -3.09375 C 3.316406 -2.78125 3.46875 -2.300781 3.46875 -1.65625 L 3.46875 -1.5 L 1.0625 -1.5 C 1.09375 -0.925781 1.367188 -0.640625 1.890625 -0.640625 Z M 1.796875 -2.828125 C 1.378906 -2.828125 1.144531 -2.582031 1.09375 -2.09375 L 2.515625 -2.09375 C 2.492188 -2.320312 2.421875 -2.5 2.296875 -2.625 C 2.171875 -2.757812 2.003906 -2.828125 1.796875 -2.828125 Z M 1.796875 -2.828125 "/></g></g><g style="fill:#293f55;fill-opacity:1;"><g transform="translate(83.849993, 50.296036)"><path style="stroke:none" d="M 3.578125 -2.4375 L 3.578125 0 L 2.671875 0 L 2.671875 -2.21875 C 2.671875 -2.40625 2.617188 -2.550781 2.515625 -2.65625 C 2.410156 -2.757812 2.257812 -2.8125 2.0625 -2.8125 C 1.851562 -2.8125 1.679688 -2.738281 1.546875 -2.59375 C 1.410156 -2.457031 1.34375 -2.269531 1.34375 -2.03125 L 1.34375 0 L 0.421875 0 L 0.421875 -3.484375 L 1.3125 -3.484375 L 1.3125 -2.984375 C 1.425781 -3.179688 1.570312 -3.328125 1.75 -3.421875 C 1.925781 -3.523438 2.132812 -3.578125 2.375 -3.578125 C 2.613281 -3.578125 2.820312 -3.523438 3 -3.421875 C 3.1875 -3.328125 3.328125 -3.191406 3.421875 -3.015625 C 3.523438 -2.847656 3.578125 -2.65625 3.578125 -2.4375 Z M 3.578125 -2.4375 "/></g></g><g style="fill:#293f55;fill-opacity:1;"><g transform="translate(87.241011, 50.296036)"><path style="stroke:none" d="M 2.71875 0 L 2.71875 -0.4375 L 2.703125 -0.4375 C 2.597656 -0.25 2.457031 -0.113281 2.28125 -0.03125 C 2.101562 0.0507812 1.90625 0.09375 1.6875 0.09375 C 1.382812 0.09375 1.125 0.015625 0.90625 -0.140625 C 0.6875 -0.296875 0.515625 -0.515625 0.390625 -0.796875 C 0.273438 -1.085938 0.21875 -1.414062 0.21875 -1.78125 C 0.21875 -2.144531 0.28125 -2.460938 0.40625 -2.734375 C 0.53125 -3.003906 0.703125 -3.210938 0.921875 -3.359375 C 1.140625 -3.503906 1.390625 -3.578125 1.671875 -3.578125 C 1.898438 -3.578125 2.097656 -3.53125 2.265625 -3.4375 C 2.429688 -3.34375 2.570312 -3.207031 2.6875 -3.03125 L 2.703125 -3.03125 L 2.703125 -4.71875 L 3.609375 -4.71875 L 3.609375 0 Z M 2.734375 -1.671875 C 2.734375 -2.023438 2.664062 -2.296875 2.53125 -2.484375 C 2.40625 -2.679688 2.207031 -2.78125 1.9375 -2.78125 C 1.695312 -2.78125 1.507812 -2.6875 1.375 -2.5 C 1.238281 -2.320312 1.171875 -2.0625 1.171875 -1.71875 C 1.171875 -1.414062 1.238281 -1.160156 1.375 -0.953125 C 1.507812 -0.753906 1.691406 -0.65625 1.921875 -0.65625 C 2.171875 -0.65625 2.367188 -0.742188 2.515625 -0.921875 C 2.660156 -1.109375 2.734375 -1.359375 2.734375 -1.671875 Z M 2.734375 -1.671875 "/></g></g><g style="fill:#293f55;fill-opacity:1;"><g transform="translate(90.632029, 50.296036)"><path style="stroke:none" d=""/></g></g><g style="fill:#293f55;fill-opacity:1;"><g transform="translate(91.314051, 50.296036)"><path style="stroke:none" d="M 1.90625 -1.265625 L 1.921875 -1.265625 C 2.054688 -2.085938 2.273438 -3.238281 2.578125 -4.71875 L 3.609375 -4.71875 L 4.09375 -2.484375 C 4.125 -2.296875 4.15625 -2.113281 4.1875 -1.9375 C 4.21875 -1.769531 4.25 -1.617188 4.28125 -1.484375 L 4.3125 -1.265625 L 4.328125 -1.265625 L 4.453125 -1.890625 C 4.492188 -2.097656 4.65625 -2.8125 4.9375 -4.03125 L 5.09375 -4.71875 L 6.09375 -4.71875 L 4.765625 0 L 3.828125 0 C 3.484375 -1.613281 3.238281 -2.835938 3.09375 -3.671875 L 3.078125 -3.671875 C 2.992188 -3.109375 2.867188 -2.429688 2.703125 -1.640625 L 2.359375 0 L 1.4375 0 L 0.109375 -4.71875 L 1.15625 -4.71875 C 1.332031 -3.976562 1.488281 -3.273438 1.625 -2.609375 C 1.769531 -1.953125 1.863281 -1.503906 1.90625 -1.265625 Z M 1.90625 -1.265625 "/></g></g><g style="fill:#293f55;fill-opacity:1;"><g transform="translate(96.889298, 50.296036)"><path style="stroke:none" d="M 0.453125 -3.90625 L 0.453125 -4.75 L 1.375 -4.75 L 1.375 -3.90625 Z M 0.453125 0 L 0.453125 -3.484375 L 1.375 -3.484375 L 1.375 0 Z M 0.453125 0 "/></g></g><g style="fill:#293f55;fill-opacity:1;"><g transform="translate(98.096094, 50.296036)"><path style="stroke:none" d="M 3.296875 -2.421875 L 2.40625 -2.421875 C 2.375 -2.597656 2.304688 -2.71875 2.203125 -2.78125 C 2.109375 -2.851562 1.96875 -2.890625 1.78125 -2.890625 C 1.59375 -2.890625 1.453125 -2.863281 1.359375 -2.8125 C 1.265625 -2.757812 1.21875 -2.671875 1.21875 -2.546875 C 1.21875 -2.453125 1.285156 -2.375 1.421875 -2.3125 C 1.566406 -2.257812 1.796875 -2.203125 2.109375 -2.140625 C 2.585938 -2.054688 2.921875 -1.929688 3.109375 -1.765625 C 3.304688 -1.597656 3.40625 -1.378906 3.40625 -1.109375 C 3.40625 -0.703125 3.257812 -0.398438 2.96875 -0.203125 C 2.6875 -0.00390625 2.316406 0.09375 1.859375 0.09375 C 1.347656 0.09375 0.941406 -0.015625 0.640625 -0.234375 C 0.347656 -0.453125 0.203125 -0.742188 0.203125 -1.109375 L 1.140625 -1.109375 C 1.140625 -0.773438 1.390625 -0.609375 1.890625 -0.609375 C 2.078125 -0.609375 2.222656 -0.640625 2.328125 -0.703125 C 2.429688 -0.773438 2.484375 -0.863281 2.484375 -0.96875 C 2.484375 -1.070312 2.414062 -1.148438 2.28125 -1.203125 C 2.144531 -1.265625 1.898438 -1.328125 1.546875 -1.390625 C 1.128906 -1.460938 0.820312 -1.582031 0.625 -1.75 C 0.425781 -1.914062 0.328125 -2.140625 0.328125 -2.421875 C 0.328125 -2.765625 0.445312 -3.039062 0.6875 -3.25 C 0.9375 -3.46875 1.285156 -3.578125 1.734375 -3.578125 C 2.242188 -3.578125 2.625 -3.476562 2.875 -3.28125 C 3.132812 -3.082031 3.273438 -2.796875 3.296875 -2.421875 Z M 3.296875 -2.421875 "/></g></g><g style="fill:#293f55;fill-opacity:1;"><g transform="translate(101.126356, 50.296036)"><path style="stroke:none" d="M 1.890625 -0.640625 C 2.023438 -0.640625 2.144531 -0.671875 2.25 -0.734375 C 2.363281 -0.804688 2.441406 -0.90625 2.484375 -1.03125 L 3.421875 -1.03125 C 3.328125 -0.664062 3.140625 -0.382812 2.859375 -0.1875 C 2.585938 0 2.265625 0.09375 1.890625 0.09375 C 1.316406 0.09375 0.882812 -0.0625 0.59375 -0.375 C 0.300781 -0.695312 0.15625 -1.175781 0.15625 -1.8125 C 0.15625 -2.15625 0.21875 -2.457031 0.34375 -2.71875 C 0.46875 -2.988281 0.65625 -3.195312 0.90625 -3.34375 C 1.15625 -3.5 1.457031 -3.578125 1.8125 -3.578125 C 2.3125 -3.578125 2.710938 -3.414062 3.015625 -3.09375 C 3.316406 -2.78125 3.46875 -2.300781 3.46875 -1.65625 L 3.46875 -1.5 L 1.0625 -1.5 C 1.09375 -0.925781 1.367188 -0.640625 1.890625 -0.640625 Z M 1.796875 -2.828125 C 1.378906 -2.828125 1.144531 -2.582031 1.09375 -2.09375 L 2.515625 -2.09375 C 2.492188 -2.320312 2.421875 -2.5 2.296875 -2.625 C 2.171875 -2.757812 2.003906 -2.828125 1.796875 -2.828125 Z M 1.796875 -2.828125 "/></g></g></g></svg>