<svg width="28" height="28" viewBox="0 0 28 28" fill="none" xmlns="http://www.w3.org/2000/svg">
<path d="M22.9197 14.6393C22.9197 15.2785 22.3183 15.8539 21.6501 15.8539H6.41485C5.74663 15.8539 5.14524 15.2785 5.14524 14.6393V13.4247C5.14524 12.7854 5.74663 12.21 6.41485 12.21H21.7169C22.3851 12.21 22.9865 12.7854 22.9865 13.4247V14.6393H22.9197ZM20.3805 21.9269C20.3805 22.5662 19.7791 23.1416 19.1109 23.1416H6.41485C5.74663 23.1416 5.14524 22.5662 5.14524 21.9269V20.7123C5.14524 20.0731 5.74663 19.4977 6.41485 19.4977H19.1777C19.8459 19.4977 20.4473 20.0731 20.4473 20.7123V21.9269H20.3805ZM5.14524 6.07306C5.14524 5.43379 5.74663 4.85845 6.41485 4.85845H19.1777C19.8459 4.85845 20.4473 5.43379 20.4473 6.07306V7.28767C20.4473 7.92694 19.8459 8.50228 19.1777 8.50228H6.41485C5.74663 8.50228 5.14524 7.92694 5.14524 7.28767V6.07306ZM24.1893 0H3.87564C1.73735 0 0 1.6621 0 3.64384V24.3562C0 26.3379 1.73735 28 3.80882 28H24.1893C26.2608 28 27.9981 26.3379 27.9981 24.3562V3.64384C28.065 1.6621 26.3276 0 24.1893 0Z" fill="#293F55"/>
</svg>
