<svg width="31" height="31" viewBox="0 0 31 31" fill="none" xmlns="http://www.w3.org/2000/svg">
<path fill-rule="evenodd" clip-rule="evenodd" d="M26.125 0C28.4032 0 30.25 1.84683 30.25 4.125V26.125C30.25 28.4032 28.4032 30.25 26.125 30.25H4.125C1.84683 30.25 0 28.4032 0 26.125V4.125C0 1.84683 1.84683 0 4.125 0H26.125ZM26.125 2.75C26.8844 2.75 27.5 3.36561 27.5 4.125V26.125C27.5 26.8844 26.8844 27.5 26.125 27.5H4.125C3.36561 27.5 2.75 26.8844 2.75 26.125V4.125C2.75 3.36561 3.36561 2.75 4.125 2.75H26.125Z" fill="#0F0F0F"/>
</svg>
