<svg width="33" height="33" viewBox="0 0 33 33" fill="none" xmlns="http://www.w3.org/2000/svg">
<path d="M8.93744 11.0005C10.0765 11.0005 10.9999 10.0771 10.9999 8.93799C10.9999 7.7989 10.0765 6.87549 8.93744 6.87549C7.79835 6.87549 6.87494 7.7989 6.87494 8.93799C6.87494 10.0771 7.79835 11.0005 8.93744 11.0005Z" fill="#0F0F0F"/>
<path d="M6.87494 13.75C6.87494 12.9906 7.49055 12.375 8.24994 12.375H9.62494C10.3843 12.375 10.9999 12.9906 10.9999 13.75V24.75C10.9999 25.5094 10.3843 26.125 9.62494 26.125H8.24994C7.49055 26.125 6.87494 25.5094 6.87494 24.75V13.75Z" fill="#0F0F0F"/>
<path d="M15.1251 26.125H16.5001C17.2595 26.125 17.8751 25.5094 17.8751 24.75V18.5625C17.8751 16.5 22.0001 15.125 22.0001 17.875V24.7506C22.0001 25.51 22.6156 26.125 23.3751 26.125H24.7501C25.5095 26.125 26.1251 25.5094 26.1251 24.75V16.5C26.1251 13.75 24.0626 12.375 21.3126 12.375C18.5626 12.375 17.8751 14.4375 17.8751 14.4375V13.75C17.8751 12.9906 17.2595 12.375 16.5001 12.375H15.1251C14.3656 12.375 13.7501 12.9906 13.7501 13.75V24.75C13.7501 25.5094 14.3656 26.125 15.1251 26.125Z" fill="#0F0F0F"/>
<path fill-rule="evenodd" clip-rule="evenodd" d="M28.125 2C30.4032 2 32.25 3.84683 32.25 6.125V28.125C32.25 30.4032 30.4032 32.25 28.125 32.25H6.125C3.84683 32.25 2 30.4032 2 28.125V6.125C2 3.84683 3.84683 2 6.125 2H28.125ZM28.125 4.75C28.8844 4.75 29.5 5.36561 29.5 6.125V28.125C29.5 28.8844 28.8844 29.5 28.125 29.5H6.125C5.36561 29.5 4.75 28.8844 4.75 28.125V6.125C4.75 5.36561 5.36561 4.75 6.125 4.75H28.125Z" fill="#0F0F0F"/>
</svg>
