<svg width="589" height="156" viewBox="0 0 589 156" fill="none" xmlns="http://www.w3.org/2000/svg">
<rect width="589" height="155.972" rx="44" fill="white"/>
<path d="M77.6078 30.4646H73.3598V29.0367H83.5513V30.4646H79.3034V41.7805H77.6078V30.4646ZM82.9425 37.1756C82.9425 37.7349 83.0139 38.2346 83.1567 38.6749C83.3114 39.1032 83.5196 39.4662 83.7814 39.7636C84.0432 40.0492 84.3466 40.2693 84.6917 40.424C85.0486 40.5787 85.4235 40.6561 85.8161 40.6561C86.2088 40.6561 86.5777 40.5787 86.9227 40.424C87.2797 40.2693 87.5891 40.0492 87.8509 39.7636C88.1126 39.4662 88.3149 39.1032 88.4577 38.6749C88.6124 38.2346 88.6897 37.7349 88.6897 37.1756C88.6897 36.6164 88.6124 36.1225 88.4577 35.6942C88.3149 35.2539 88.1126 34.8851 87.8509 34.5876C87.5891 34.2901 87.2797 34.064 86.9227 33.9093C86.5777 33.7546 86.2088 33.6773 85.8161 33.6773C85.4235 33.6773 85.0486 33.7546 84.6917 33.9093C84.3466 34.064 84.0432 34.2901 83.7814 34.5876C83.5196 34.8851 83.3114 35.2539 83.1567 35.6942C83.0139 36.1225 82.9425 36.6164 82.9425 37.1756ZM81.3362 37.1756C81.3362 36.4974 81.4314 35.8667 81.6217 35.2837C81.8121 34.6887 82.0977 34.1771 82.4785 33.7487C82.8592 33.3084 83.3292 32.9634 83.8885 32.7135C84.4477 32.4636 85.0903 32.3387 85.8161 32.3387C86.5539 32.3387 87.1964 32.4636 87.7438 32.7135C88.303 32.9634 88.773 33.3084 89.1538 33.7487C89.5346 34.1771 89.8201 34.6887 90.0105 35.2837C90.2009 35.8667 90.2961 36.4974 90.2961 37.1756C90.2961 37.8539 90.2009 38.4845 90.0105 39.0675C89.8201 39.6506 89.5346 40.1623 89.1538 40.6025C88.773 41.0309 88.303 41.37 87.7438 41.6199C87.1964 41.8579 86.5539 41.9769 85.8161 41.9769C85.0903 41.9769 84.4477 41.8579 83.8885 41.6199C83.3292 41.37 82.8592 41.0309 82.4785 40.6025C82.0977 40.1623 81.8121 39.6506 81.6217 39.0675C81.4314 38.4845 81.3362 37.8539 81.3362 37.1756ZM93.2986 32.5529H95.1369V33.8915H93.2986V39.6209C93.2986 39.7993 93.3105 39.9421 93.3342 40.0492C93.3699 40.1563 93.4294 40.2396 93.5127 40.2991C93.596 40.3586 93.7091 40.4002 93.8519 40.424C94.0065 40.4359 94.2029 40.4419 94.4409 40.4419H95.1369V41.7805H93.9768C93.5841 41.7805 93.245 41.7567 92.9594 41.7091C92.6858 41.6496 92.4597 41.5485 92.2812 41.4057C92.1146 41.2629 91.9897 41.0606 91.9064 40.7989C91.8231 40.5371 91.7814 40.192 91.7814 39.7636V33.8915H90.2108V32.5529H91.7814V29.7863H93.2986V32.5529ZM104.105 41.7448C103.843 41.8995 103.48 41.9769 103.016 41.9769C102.623 41.9769 102.308 41.8698 102.07 41.6556C101.844 41.4295 101.731 41.0666 101.731 40.5668C101.314 41.0666 100.826 41.4295 100.267 41.6556C99.7198 41.8698 99.1248 41.9769 98.4823 41.9769C98.0658 41.9769 97.6672 41.9293 97.2864 41.8341C96.9176 41.7389 96.5963 41.5901 96.3226 41.3879C96.0489 41.1856 95.8288 40.9238 95.6622 40.6025C95.5075 40.2693 95.4302 39.8707 95.4302 39.4067C95.4302 38.8831 95.5194 38.4547 95.6979 38.1216C95.8764 37.7884 96.1084 37.5207 96.394 37.3184C96.6915 37.1042 97.0247 36.9436 97.3935 36.8365C97.7743 36.7294 98.161 36.6402 98.5537 36.5688C98.9701 36.4855 99.3628 36.426 99.7317 36.3903C100.112 36.3427 100.446 36.2832 100.731 36.2118C101.017 36.1285 101.243 36.0155 101.409 35.8727C101.576 35.718 101.659 35.4979 101.659 35.2123C101.659 34.8791 101.594 34.6114 101.463 34.4091C101.344 34.2068 101.183 34.0521 100.981 33.945C100.791 33.8379 100.571 33.7665 100.321 33.7309C100.083 33.6952 99.8447 33.6773 99.6067 33.6773C98.9642 33.6773 98.4287 33.8022 98.0004 34.0521C97.572 34.2901 97.34 34.7482 97.3043 35.4265H95.7872C95.811 34.8553 95.9299 34.3734 96.1441 33.9807C96.3583 33.5881 96.6439 33.2727 97.0009 33.0348C97.3578 32.7849 97.7624 32.6064 98.2146 32.4993C98.6786 32.3922 99.1724 32.3387 99.696 32.3387C100.112 32.3387 100.523 32.3684 100.928 32.4279C101.344 32.4874 101.719 32.6123 102.052 32.8027C102.385 32.9812 102.653 33.237 102.855 33.5702C103.057 33.9034 103.159 34.3377 103.159 34.8732V39.6209C103.159 39.9778 103.176 40.2396 103.212 40.4062C103.26 40.5728 103.403 40.6561 103.64 40.6561C103.771 40.6561 103.926 40.6263 104.105 40.5668V41.7448ZM101.641 37.015C101.451 37.1578 101.201 37.2649 100.892 37.3362C100.582 37.3957 100.255 37.4493 99.9102 37.4969C99.577 37.5326 99.2379 37.5802 98.8928 37.6397C98.5477 37.6873 98.2384 37.7706 97.9647 37.8895C97.691 38.0085 97.4649 38.1811 97.2864 38.4072C97.1198 38.6213 97.0366 38.9188 97.0366 39.2996C97.0366 39.5495 97.0842 39.7636 97.1793 39.9421C97.2864 40.1087 97.4173 40.2455 97.572 40.3526C97.7386 40.4597 97.929 40.5371 98.1432 40.5847C98.3573 40.6323 98.5834 40.6561 98.8214 40.6561C99.3212 40.6561 99.7495 40.5906 100.106 40.4597C100.463 40.3169 100.755 40.1444 100.981 39.9421C101.207 39.7279 101.374 39.5019 101.481 39.2639C101.588 39.014 101.641 38.782 101.641 38.5678V37.015ZM104.713 29.0367H106.23V41.7805H104.713V29.0367Z" fill="#9B9B9B"/>
<path d="M138.415 21.5408C140.398 21.5408 141.955 21.9077 143.085 22.6415C144.216 23.3752 144.979 24.4164 145.376 25.765H147.607V27.3713H145.673C145.693 27.5498 145.703 27.7283 145.703 27.9068C145.723 28.0853 145.733 28.2637 145.733 28.4422C145.733 28.7 145.723 28.9678 145.703 29.2454C145.683 29.5032 145.654 29.761 145.614 30.0189H147.607V31.6252H145.197C144.9 32.4383 144.444 33.1622 143.829 33.7968C143.214 34.4314 142.421 34.9371 141.449 35.3139C140.477 35.6709 139.297 35.8494 137.909 35.8494H136.243V42.7805H133.774V31.6252H131.186V30.0189H133.774V27.3713H131.186V25.765H133.774V21.5408H138.415ZM142.431 31.6252H136.243V33.648H137.761C138.931 33.648 139.902 33.4894 140.676 33.1721C141.449 32.8548 142.034 32.3392 142.431 31.6252ZM143.026 27.3713H136.243V30.0189H142.996C143.036 29.8007 143.066 29.5726 143.085 29.3347C143.105 29.0768 143.115 28.819 143.115 28.5612C143.115 28.3431 143.105 28.1448 143.085 27.9663C143.085 27.768 143.066 27.5696 143.026 27.3713ZM138.326 23.7421H136.243V25.765H142.52C142.163 25.0907 141.638 24.585 140.944 24.2478C140.249 23.9107 139.377 23.7421 138.326 23.7421Z" fill="#72ADFD"/>
<path d="M154.776 25.408C155.49 25.408 156.184 25.3485 156.858 25.2295C157.533 25.1105 158.138 24.9122 158.673 24.6346C159.228 24.3569 159.694 23.9999 160.071 23.5636C160.468 23.1274 160.726 22.5919 160.845 21.9573H163.611V42.7805H159.893V28.0853H154.776V25.408ZM175.024 30.5841C175.579 30.6039 176.135 30.5642 176.69 30.4651C177.245 30.3659 177.741 30.1973 178.177 29.9594C178.614 29.7015 178.961 29.3545 179.219 28.9182C179.496 28.4819 179.635 27.9464 179.635 27.3118C179.635 26.4194 179.328 25.7055 178.713 25.17C178.118 24.6346 177.344 24.3668 176.393 24.3668C175.798 24.3668 175.282 24.4858 174.846 24.7238C174.409 24.9618 174.043 25.289 173.745 25.7055C173.467 26.1021 173.259 26.5582 173.12 27.0739C172.982 27.5696 172.922 28.0853 172.942 28.6207H169.551C169.59 27.6093 169.779 26.6772 170.116 25.8245C170.453 24.9519 170.909 24.1983 171.484 23.5636C172.079 22.929 172.793 22.4332 173.626 22.0763C174.459 21.7193 175.401 21.5408 176.452 21.5408C177.265 21.5408 178.058 21.6598 178.832 21.8978C179.625 22.1358 180.329 22.4828 180.944 22.939C181.579 23.3951 182.084 23.9801 182.461 24.6941C182.838 25.3882 183.026 26.1913 183.026 27.1036C183.026 28.1547 182.788 29.0768 182.312 29.8701C181.836 30.6435 181.093 31.2087 180.081 31.5657V31.6252C181.271 31.8632 182.193 32.4581 182.848 33.4101C183.522 34.3422 183.859 35.4825 183.859 36.831C183.859 37.8226 183.661 38.715 183.264 39.5083C182.868 40.2817 182.332 40.9461 181.658 41.5014C180.984 42.0368 180.2 42.4533 179.308 42.7508C178.415 43.0482 177.473 43.197 176.482 43.197C175.272 43.197 174.211 43.0284 173.299 42.6913C172.406 42.3343 171.653 41.8385 171.038 41.2039C170.443 40.5693 169.987 39.8058 169.67 38.9133C169.352 38.0209 169.184 37.0293 169.164 35.9386H172.555C172.515 37.2078 172.823 38.2688 173.477 39.1216C174.152 39.9545 175.153 40.371 176.482 40.371C177.612 40.371 178.554 40.0537 179.308 39.4191C180.081 38.7646 180.468 37.8424 180.468 36.6525C180.468 35.8394 180.309 35.1949 179.992 34.719C179.675 34.243 179.258 33.886 178.743 33.648C178.227 33.3902 177.642 33.2316 176.988 33.1721C176.353 33.1126 175.698 33.0928 175.024 33.1126V30.5841ZM191.554 21.5408C193.041 21.5408 194.251 21.8879 195.183 22.582C196.135 23.2563 196.869 24.1288 197.384 25.1998C197.92 26.2508 198.277 27.411 198.455 28.6802C198.654 29.9494 198.753 31.179 198.753 32.3689C198.753 33.5588 198.654 34.7884 198.455 36.0576C198.277 37.3268 197.92 38.4969 197.384 39.5678C196.869 40.6189 196.135 41.4915 195.183 42.1856C194.251 42.8598 193.041 43.197 191.554 43.197C190.066 43.197 188.847 42.8598 187.895 42.1856C186.963 41.4915 186.229 40.6189 185.694 39.5678C185.178 38.4969 184.821 37.3268 184.623 36.0576C184.444 34.7884 184.355 33.5588 184.355 32.3689C184.355 31.179 184.444 29.9494 184.623 28.6802C184.821 27.411 185.178 26.2508 185.694 25.1998C186.229 24.1288 186.963 23.2563 187.895 22.582C188.847 21.8879 190.066 21.5408 191.554 21.5408ZM191.554 40.371C192.288 40.371 192.902 40.1627 193.398 39.7463C193.894 39.31 194.281 38.7349 194.558 38.0209C194.856 37.2872 195.064 36.4344 195.183 35.4626C195.302 34.4909 195.361 33.4596 195.361 32.3689C195.361 31.2782 195.302 30.2568 195.183 29.3049C195.064 28.3332 194.856 27.4804 194.558 26.7466C194.281 26.0129 193.894 25.4377 193.398 25.0213C192.902 24.585 192.288 24.3668 191.554 24.3668C190.8 24.3668 190.175 24.585 189.68 25.0213C189.204 25.4377 188.817 26.0129 188.52 26.7466C188.242 27.4804 188.044 28.3332 187.925 29.3049C187.806 30.2568 187.746 31.2782 187.746 32.3689C187.746 33.4596 187.806 34.4909 187.925 35.4626C188.044 36.4344 188.242 37.2872 188.52 38.0209C188.817 38.7349 189.204 39.31 189.68 39.7463C190.175 40.1627 190.8 40.371 191.554 40.371ZM206.596 21.5408C208.083 21.5408 209.293 21.8879 210.225 22.582C211.177 23.2563 211.911 24.1288 212.427 25.1998C212.962 26.2508 213.319 27.411 213.497 28.6802C213.696 29.9494 213.795 31.179 213.795 32.3689C213.795 33.5588 213.696 34.7884 213.497 36.0576C213.319 37.3268 212.962 38.4969 212.427 39.5678C211.911 40.6189 211.177 41.4915 210.225 42.1856C209.293 42.8598 208.083 43.197 206.596 43.197C205.109 43.197 203.889 42.8598 202.937 42.1856C202.005 41.4915 201.271 40.6189 200.736 39.5678C200.22 38.4969 199.863 37.3268 199.665 36.0576C199.486 34.7884 199.397 33.5588 199.397 32.3689C199.397 31.179 199.486 29.9494 199.665 28.6802C199.863 27.411 200.22 26.2508 200.736 25.1998C201.271 24.1288 202.005 23.2563 202.937 22.582C203.889 21.8879 205.109 21.5408 206.596 21.5408ZM206.596 40.371C207.33 40.371 207.945 40.1627 208.44 39.7463C208.936 39.31 209.323 38.7349 209.601 38.0209C209.898 37.2872 210.106 36.4344 210.225 35.4626C210.344 34.4909 210.404 33.4596 210.404 32.3689C210.404 31.2782 210.344 30.2568 210.225 29.3049C210.106 28.3332 209.898 27.4804 209.601 26.7466C209.323 26.0129 208.936 25.4377 208.44 25.0213C207.945 24.585 207.33 24.3668 206.596 24.3668C205.842 24.3668 205.218 24.585 204.722 25.0213C204.246 25.4377 203.859 26.0129 203.562 26.7466C203.284 27.4804 203.086 28.3332 202.967 29.3049C202.848 30.2568 202.788 31.2782 202.788 32.3689C202.788 33.4596 202.848 34.4909 202.967 35.4626C203.086 36.4344 203.284 37.2872 203.562 38.0209C203.859 38.7349 204.246 39.31 204.722 39.7463C205.218 40.1627 205.842 40.371 206.596 40.371ZM221.638 21.5408C223.126 21.5408 224.335 21.8879 225.267 22.582C226.219 23.2563 226.953 24.1288 227.469 25.1998C228.004 26.2508 228.361 27.411 228.54 28.6802C228.738 29.9494 228.837 31.179 228.837 32.3689C228.837 33.5588 228.738 34.7884 228.54 36.0576C228.361 37.3268 228.004 38.4969 227.469 39.5678C226.953 40.6189 226.219 41.4915 225.267 42.1856C224.335 42.8598 223.126 43.197 221.638 43.197C220.151 43.197 218.931 42.8598 217.979 42.1856C217.047 41.4915 216.313 40.6189 215.778 39.5678C215.262 38.4969 214.905 37.3268 214.707 36.0576C214.529 34.7884 214.439 33.5588 214.439 32.3689C214.439 31.179 214.529 29.9494 214.707 28.6802C214.905 27.411 215.262 26.2508 215.778 25.1998C216.313 24.1288 217.047 23.2563 217.979 22.582C218.931 21.8879 220.151 21.5408 221.638 21.5408ZM221.638 40.371C222.372 40.371 222.987 40.1627 223.483 39.7463C223.978 39.31 224.365 38.7349 224.643 38.0209C224.94 37.2872 225.148 36.4344 225.267 35.4626C225.386 34.4909 225.446 33.4596 225.446 32.3689C225.446 31.2782 225.386 30.2568 225.267 29.3049C225.148 28.3332 224.94 27.4804 224.643 26.7466C224.365 26.0129 223.978 25.4377 223.483 25.0213C222.987 24.585 222.372 24.3668 221.638 24.3668C220.885 24.3668 220.26 24.585 219.764 25.0213C219.288 25.4377 218.901 26.0129 218.604 26.7466C218.326 27.4804 218.128 28.3332 218.009 29.3049C217.89 30.2568 217.831 31.2782 217.831 32.3689C217.831 33.4596 217.89 34.4909 218.009 35.4626C218.128 36.4344 218.326 37.2872 218.604 38.0209C218.901 38.7349 219.288 39.31 219.764 39.7463C220.26 40.1627 220.885 40.371 221.638 40.371Z" fill="#293F55"/>
<rect x="72.8813" y="55.4282" width="443.237" height="37.3818" rx="11.899" fill="#293F55"/>
<path d="M72.8813 67.3272C72.8813 60.7556 78.2087 55.4282 84.7803 55.4282H380.768V92.81H84.7803C78.2086 92.81 72.8813 87.4826 72.8813 80.911V67.3272Z" fill="#72ADFD"/>
<path d="M94.6327 72.0421C94.5375 71.2806 94.244 70.6697 93.7521 70.2096C93.2603 69.7495 92.6098 69.5195 91.8007 69.5195C90.944 69.5195 90.2538 69.7337 89.7303 70.162C89.2067 70.5745 88.7942 71.106 88.4928 71.7565C88.2072 72.3911 88.0089 73.0813 87.8978 73.8269C87.7868 74.5726 87.7233 75.2707 87.7075 75.9212L87.7551 75.9688C88.231 75.1914 88.818 74.6281 89.5161 74.2791C90.23 73.9301 91.0471 73.7555 91.9673 73.7555C92.7764 73.7555 93.4983 73.8983 94.1329 74.1839C94.7834 74.4536 95.3228 74.8344 95.7512 75.3262C96.1954 75.818 96.5365 76.3971 96.7745 77.0635C97.0125 77.7298 97.1315 78.4517 97.1315 79.2291C97.1315 79.8478 97.0363 80.4904 96.8459 81.1567C96.6555 81.8231 96.3382 82.4339 95.894 82.9892C95.4656 83.5286 94.8865 83.9807 94.1567 84.3456C93.4428 84.6947 92.5543 84.8692 91.4913 84.8692C90.238 84.8692 89.2305 84.6154 88.469 84.1077C87.7075 83.6 87.1204 82.9495 86.7079 82.1562C86.2954 81.363 86.0178 80.4904 85.875 79.5385C85.7481 78.5865 85.6846 77.6663 85.6846 76.7779C85.6846 75.6197 85.7798 74.5012 85.9702 73.4224C86.1765 72.3277 86.5176 71.3599 86.9935 70.519C87.4695 69.6782 88.1041 69.0039 88.8974 68.4962C89.6906 67.9885 90.6901 67.7347 91.8959 67.7347C93.292 67.7347 94.4026 68.1075 95.2276 68.8532C96.0526 69.583 96.5286 70.6459 96.6555 72.0421H94.6327ZM91.5865 75.5404C91.0154 75.5404 90.5156 75.6435 90.0873 75.8498C89.6589 76.0401 89.294 76.3099 88.9925 76.6589C88.6911 76.9921 88.4611 77.3966 88.3024 77.8726C88.1596 78.3327 88.0882 78.8245 88.0882 79.3481C88.0882 79.8716 88.1675 80.3634 88.3262 80.8235C88.4849 81.2836 88.707 81.6803 88.9925 82.0134C89.294 82.3466 89.6589 82.6163 90.0873 82.8226C90.5315 83.013 91.0312 83.1081 91.5865 83.1081C92.1418 83.1081 92.6257 83.013 93.0382 82.8226C93.4666 82.6163 93.8235 82.3387 94.1091 81.9896C94.3947 81.6406 94.6089 81.244 94.7517 80.7997C94.9103 80.3397 94.9896 79.8637 94.9896 79.3719C94.9896 78.8483 94.9182 78.3565 94.7755 77.8964C94.6485 77.4204 94.4423 77.0159 94.1567 76.6827C93.8711 76.3337 93.5142 76.056 93.0858 75.8498C92.6574 75.6435 92.1577 75.5404 91.5865 75.5404ZM97.8612 73.7079C97.8136 72.8512 97.9009 72.058 98.123 71.3281C98.3451 70.5983 98.6862 69.9717 99.1463 69.4481C99.6222 68.9087 100.209 68.4883 100.907 68.1868C101.605 67.8854 102.399 67.7347 103.287 67.7347C104.017 67.7347 104.699 67.8457 105.334 68.0678C105.984 68.2741 106.547 68.5834 107.023 68.9959C107.499 69.3926 107.872 69.8923 108.142 70.4952C108.428 71.0981 108.57 71.7962 108.57 72.5894C108.57 73.3351 108.451 73.9935 108.213 74.5647C107.991 75.1358 107.69 75.6514 107.309 76.1115C106.928 76.5558 106.492 76.9603 106 77.3252C105.508 77.6901 105.001 78.0392 104.477 78.3724C103.953 78.6897 103.43 79.007 102.906 79.3243C102.383 79.6257 101.899 79.951 101.455 80.3C101.026 80.649 100.653 81.0298 100.336 81.4423C100.035 81.8389 99.8364 82.299 99.7412 82.8226H108.404V84.6074H97.3852C97.4646 83.6079 97.6391 82.7591 97.9088 82.061C98.1944 81.3471 98.5513 80.7284 98.9797 80.2048C99.4081 79.6812 99.892 79.2211 100.431 78.8245C100.971 78.4279 101.534 78.055 102.121 77.706C102.835 77.2618 103.462 76.8572 104.001 76.4923C104.54 76.1115 104.985 75.7308 105.334 75.35C105.699 74.9692 105.968 74.5567 106.143 74.1125C106.333 73.6683 106.428 73.1527 106.428 72.5656C106.428 72.1055 106.341 71.6931 106.167 71.3281C105.992 70.9474 105.754 70.6221 105.453 70.3524C105.167 70.0827 104.826 69.8765 104.429 69.7337C104.033 69.5909 103.612 69.5195 103.168 69.5195C102.581 69.5195 102.073 69.6464 101.645 69.9003C101.233 70.1382 100.891 70.4556 100.622 70.8522C100.352 71.2488 100.154 71.701 100.027 72.2087C99.9158 72.7005 99.8682 73.2003 99.884 73.7079H97.8612ZM112.822 72.518C112.822 72.8671 112.838 73.2479 112.87 73.6604C112.917 74.057 113.013 74.4298 113.155 74.7789C113.298 75.112 113.496 75.3976 113.75 75.6356C114.02 75.8577 114.377 75.9688 114.821 75.9688C115.281 75.9688 115.646 75.8577 115.916 75.6356C116.186 75.4135 116.392 75.1358 116.535 74.8027C116.693 74.4536 116.796 74.0728 116.844 73.6604C116.892 73.2479 116.915 72.8592 116.915 72.4943C116.915 72.1452 116.892 71.7724 116.844 71.3757C116.812 70.9632 116.725 70.5904 116.582 70.2572C116.439 69.9082 116.233 69.6226 115.963 69.4005C115.71 69.1625 115.353 69.0435 114.893 69.0435C114.448 69.0435 114.091 69.1625 113.822 69.4005C113.552 69.6226 113.338 69.9082 113.179 70.2572C113.036 70.5904 112.941 70.9632 112.894 71.3757C112.846 71.7724 112.822 72.1531 112.822 72.518ZM111.037 72.5656C111.037 71.9152 111.101 71.3044 111.228 70.7332C111.355 70.1462 111.569 69.6306 111.87 69.1863C112.172 68.7421 112.568 68.3931 113.06 68.1392C113.552 67.8695 114.163 67.7347 114.893 67.7347C115.638 67.7347 116.249 67.8616 116.725 68.1154C117.217 68.3693 117.606 68.7104 117.891 69.1387C118.193 69.5671 118.399 70.0748 118.51 70.6618C118.637 71.233 118.7 71.8438 118.7 72.4943C118.7 73.113 118.629 73.7159 118.486 74.3029C118.359 74.874 118.137 75.3817 117.82 75.826C117.518 76.2543 117.13 76.6034 116.654 76.8731C116.178 77.1428 115.591 77.2776 114.893 77.2776C114.179 77.2776 113.576 77.1587 113.084 76.9207C112.592 76.6668 112.195 76.3257 111.894 75.8974C111.593 75.469 111.37 74.9692 111.228 74.3981C111.101 73.8269 111.037 73.2161 111.037 72.5656ZM124.578 80.1334C124.578 80.4824 124.594 80.8632 124.626 81.2757C124.674 81.6723 124.769 82.0452 124.912 82.3942C125.054 82.7274 125.253 83.013 125.506 83.2509C125.776 83.4731 126.133 83.5841 126.577 83.5841C127.037 83.5841 127.402 83.4731 127.672 83.2509C127.942 83.0288 128.148 82.7512 128.291 82.418C128.449 82.069 128.553 81.6882 128.6 81.2757C128.648 80.8632 128.672 80.4745 128.672 80.1096C128.672 79.7606 128.648 79.3877 128.6 78.9911C128.568 78.5786 128.481 78.2058 128.338 77.8726C128.196 77.5236 127.989 77.238 127.72 77.0159C127.466 76.7779 127.109 76.6589 126.649 76.6589C126.205 76.6589 125.848 76.7779 125.578 77.0159C125.308 77.238 125.094 77.5236 124.935 77.8726C124.793 78.2058 124.697 78.5786 124.65 78.9911C124.602 79.3877 124.578 79.7685 124.578 80.1334ZM122.793 80.181C122.793 79.5305 122.857 78.9197 122.984 78.3486C123.111 77.7615 123.325 77.2459 123.626 76.8017C123.928 76.3575 124.324 76.0084 124.816 75.7546C125.308 75.4849 125.919 75.35 126.649 75.35C127.394 75.35 128.005 75.4769 128.481 75.7308C128.973 75.9846 129.362 76.3257 129.647 76.7541C129.949 77.1825 130.155 77.6901 130.266 78.2772C130.393 78.8483 130.456 79.4591 130.456 80.1096C130.456 80.7284 130.385 81.3312 130.242 81.9183C130.115 82.4894 129.893 82.9971 129.576 83.4413C129.274 83.8697 128.886 84.2187 128.41 84.4884C127.934 84.7423 127.347 84.8692 126.649 84.8692C125.935 84.8692 125.332 84.7502 124.84 84.5122C124.348 84.2584 123.952 83.9252 123.65 83.5127C123.349 83.0844 123.127 82.5846 122.984 82.0134C122.857 81.4423 122.793 80.8315 122.793 80.181ZM126.125 67.4253H128.148L115.369 85.1072H113.322L126.125 67.4253Z" fill="#293F55"/>
<path d="M461.812 74.9692C461.891 74.9851 461.962 74.993 462.026 74.993C462.105 74.993 462.185 74.993 462.264 74.993H462.692C463.121 74.993 463.525 74.9375 463.906 74.8265C464.303 74.6995 464.644 74.525 464.929 74.3029C465.231 74.0649 465.469 73.7714 465.643 73.4224C465.818 73.0733 465.905 72.6767 465.905 72.2325C465.905 71.3281 465.619 70.6539 465.048 70.2096C464.477 69.7495 463.763 69.5195 462.906 69.5195C462.367 69.5195 461.891 69.6226 461.479 69.8289C461.082 70.0193 460.749 70.281 460.479 70.6142C460.225 70.9474 460.035 71.3361 459.908 71.7803C459.781 72.2245 459.717 72.6926 459.717 73.1844H457.695C457.726 72.3753 457.853 71.6375 458.075 70.9712C458.313 70.3048 458.647 69.7337 459.075 69.2577C459.503 68.7818 460.035 68.4089 460.669 68.1392C461.32 67.8695 462.066 67.7347 462.906 67.7347C463.636 67.7347 464.31 67.8298 464.929 68.0202C465.564 68.1947 466.111 68.4645 466.571 68.8294C467.031 69.1943 467.388 69.6623 467.642 70.2334C467.912 70.8046 468.047 71.4789 468.047 72.2563C468.047 73.0178 467.825 73.6921 467.38 74.2791C466.936 74.8661 466.381 75.3103 465.715 75.6118V75.6594C466.746 75.8815 467.507 76.3654 467.999 77.1111C468.507 77.8567 468.761 78.7373 468.761 79.7526C468.761 80.5935 468.602 81.3392 468.285 81.9896C467.983 82.6243 467.571 83.1557 467.047 83.5841C466.524 84.0125 465.905 84.3377 465.191 84.5598C464.493 84.7661 463.747 84.8692 462.954 84.8692C462.097 84.8692 461.32 84.7502 460.622 84.5122C459.924 84.2743 459.329 83.9252 458.837 83.4651C458.345 82.9892 457.964 82.4101 457.695 81.7279C457.441 81.0457 457.322 80.2683 457.338 79.3957H459.36C459.392 80.4904 459.71 81.3868 460.312 82.0848C460.915 82.767 461.796 83.1081 462.954 83.1081C463.446 83.1081 463.914 83.0368 464.358 82.894C464.802 82.7353 465.191 82.5211 465.524 82.2514C465.857 81.9658 466.119 81.6247 466.309 81.2281C466.516 80.8156 466.619 80.3555 466.619 79.8478C466.619 79.3243 466.524 78.8642 466.333 78.4675C466.143 78.055 465.889 77.7139 465.572 77.4442C465.254 77.1587 464.874 76.9524 464.429 76.8255C464.001 76.6827 463.533 76.6113 463.025 76.6113C462.597 76.6113 462.192 76.6351 461.812 76.6827V74.9692ZM472.346 72.1135C472.346 72.5736 472.426 72.9781 472.584 73.3272C472.743 73.6604 472.957 73.938 473.227 74.1601C473.496 74.3822 473.814 74.5488 474.179 74.6599C474.544 74.7709 474.932 74.8265 475.345 74.8265C476.154 74.8265 476.82 74.5885 477.344 74.1125C477.867 73.6366 478.129 72.9702 478.129 72.1135C478.129 71.2568 477.859 70.6142 477.32 70.1858C476.796 69.7416 476.122 69.5195 475.297 69.5195C474.901 69.5195 474.52 69.575 474.155 69.6861C473.79 69.7971 473.473 69.9637 473.203 70.1858C472.949 70.408 472.743 70.6777 472.584 70.995C472.426 71.3123 472.346 71.6851 472.346 72.1135ZM470.204 72.0421C470.204 71.344 470.339 70.7332 470.609 70.2096C470.879 69.6702 471.244 69.2181 471.704 68.8532C472.164 68.4883 472.687 68.2106 473.274 68.0202C473.877 67.8298 474.504 67.7347 475.154 67.7347C476.075 67.7347 476.86 67.8616 477.51 68.1154C478.161 68.3534 478.684 68.6786 479.081 69.0911C479.494 69.4878 479.795 69.9479 479.985 70.4714C480.176 70.9791 480.271 71.5027 480.271 72.0421C480.271 72.8036 480.057 73.5017 479.628 74.1363C479.216 74.7551 478.653 75.2231 477.939 75.5404C478.954 75.8577 479.708 76.3813 480.2 77.1111C480.691 77.825 480.937 78.7055 480.937 79.7526C480.937 80.5776 480.787 81.3074 480.485 81.942C480.2 82.5767 479.803 83.1161 479.295 83.5603C478.803 83.9887 478.216 84.3139 477.534 84.536C476.852 84.7581 476.122 84.8692 475.345 84.8692C474.536 84.8692 473.782 84.7661 473.084 84.5598C472.386 84.3536 471.775 84.0363 471.251 83.6079C470.744 83.1795 470.339 82.6481 470.038 82.0134C469.752 81.363 469.609 80.6094 469.609 79.7526C469.609 78.7531 469.863 77.8885 470.371 77.1587C470.879 76.413 471.608 75.8736 472.56 75.5404C471.846 75.2548 471.275 74.7947 470.847 74.1601C470.419 73.5096 470.204 72.8036 470.204 72.0421ZM471.751 79.8478C471.751 80.8632 472.084 81.6644 472.751 82.2514C473.433 82.8226 474.298 83.1081 475.345 83.1081C475.852 83.1081 476.313 83.0288 476.725 82.8702C477.153 82.6957 477.518 82.4656 477.82 82.18C478.137 81.8786 478.375 81.5295 478.534 81.1329C478.708 80.7363 478.795 80.3 478.795 79.824C478.795 79.3639 478.7 78.9435 478.51 78.5627C478.335 78.1661 478.089 77.825 477.772 77.5394C477.455 77.2538 477.082 77.0317 476.654 76.8731C476.241 76.6986 475.797 76.6113 475.321 76.6113C474.829 76.6113 474.361 76.6906 473.917 76.8493C473.488 76.9921 473.108 77.2063 472.775 77.4918C472.457 77.7774 472.203 78.1185 472.013 78.5151C471.838 78.9118 471.751 79.356 471.751 79.8478ZM484.666 72.518C484.666 72.8671 484.681 73.2479 484.713 73.6604C484.761 74.057 484.856 74.4298 484.999 74.7789C485.142 75.112 485.34 75.3976 485.594 75.6356C485.863 75.8577 486.22 75.9688 486.665 75.9688C487.125 75.9688 487.49 75.8577 487.759 75.6356C488.029 75.4135 488.235 75.1358 488.378 74.8027C488.537 74.4536 488.64 74.0728 488.687 73.6604C488.735 73.2479 488.759 72.8592 488.759 72.4943C488.759 72.1452 488.735 71.7724 488.687 71.3757C488.656 70.9632 488.568 70.5904 488.426 70.2572C488.283 69.9082 488.077 69.6226 487.807 69.4005C487.553 69.1625 487.196 69.0435 486.736 69.0435C486.292 69.0435 485.935 69.1625 485.665 69.4005C485.395 69.6226 485.181 69.9082 485.023 70.2572C484.88 70.5904 484.785 70.9632 484.737 71.3757C484.689 71.7724 484.666 72.1531 484.666 72.518ZM482.881 72.5656C482.881 71.9152 482.944 71.3044 483.071 70.7332C483.198 70.1462 483.412 69.6306 483.714 69.1863C484.015 68.7421 484.412 68.3931 484.904 68.1392C485.395 67.8695 486.006 67.7347 486.736 67.7347C487.482 67.7347 488.092 67.8616 488.568 68.1154C489.06 68.3693 489.449 68.7104 489.735 69.1387C490.036 69.5671 490.242 70.0748 490.353 70.6618C490.48 71.233 490.544 71.8438 490.544 72.4943C490.544 73.113 490.472 73.7159 490.329 74.3029C490.203 74.874 489.98 75.3817 489.663 75.826C489.362 76.2543 488.973 76.6034 488.497 76.8731C488.021 77.1428 487.434 77.2776 486.736 77.2776C486.022 77.2776 485.419 77.1587 484.927 76.9207C484.435 76.6668 484.039 76.3257 483.737 75.8974C483.436 75.469 483.214 74.9692 483.071 74.3981C482.944 73.8269 482.881 73.2161 482.881 72.5656ZM496.422 80.1334C496.422 80.4824 496.438 80.8632 496.469 81.2757C496.517 81.6723 496.612 82.0452 496.755 82.3942C496.898 82.7274 497.096 83.013 497.35 83.2509C497.62 83.4731 497.977 83.5841 498.421 83.5841C498.881 83.5841 499.246 83.4731 499.515 83.2509C499.785 83.0288 499.991 82.7512 500.134 82.418C500.293 82.069 500.396 81.6882 500.444 81.2757C500.491 80.8632 500.515 80.4745 500.515 80.1096C500.515 79.7606 500.491 79.3877 500.444 78.9911C500.412 78.5786 500.325 78.2058 500.182 77.8726C500.039 77.5236 499.833 77.238 499.563 77.0159C499.309 76.7779 498.952 76.6589 498.492 76.6589C498.048 76.6589 497.691 76.7779 497.421 77.0159C497.152 77.238 496.937 77.5236 496.779 77.8726C496.636 78.2058 496.541 78.5786 496.493 78.9911C496.446 79.3877 496.422 79.7685 496.422 80.1334ZM494.637 80.181C494.637 79.5305 494.7 78.9197 494.827 78.3486C494.954 77.7615 495.168 77.2459 495.47 76.8017C495.771 76.3575 496.168 76.0084 496.66 75.7546C497.152 75.4849 497.762 75.35 498.492 75.35C499.238 75.35 499.849 75.4769 500.325 75.7308C500.816 75.9846 501.205 76.3257 501.491 76.7541C501.792 77.1825 501.998 77.6901 502.109 78.2772C502.236 78.8483 502.3 79.4591 502.3 80.1096C502.3 80.7284 502.228 81.3312 502.086 81.9183C501.959 82.4894 501.737 82.9971 501.419 83.4413C501.118 83.8697 500.729 84.2187 500.253 84.4884C499.777 84.7423 499.19 84.8692 498.492 84.8692C497.778 84.8692 497.175 84.7502 496.684 84.5122C496.192 84.2584 495.795 83.9252 495.494 83.5127C495.192 83.0844 494.97 82.5846 494.827 82.0134C494.7 81.4423 494.637 80.8315 494.637 80.181ZM497.969 67.4253H499.991L487.212 85.1072H485.165L497.969 67.4253Z" fill="white"/>
<path d="M82.0107 122.999C81.9155 122.083 81.5824 121.422 81.0112 121.018C80.452 120.601 79.7321 120.393 78.8516 120.393C78.4946 120.393 78.1436 120.429 77.7985 120.5C77.4534 120.571 77.1441 120.69 76.8704 120.857C76.6086 121.024 76.3944 121.25 76.2278 121.535C76.0731 121.809 75.9958 122.154 75.9958 122.57C75.9958 122.963 76.1088 123.284 76.3349 123.534C76.5729 123.772 76.8823 123.969 77.263 124.123C77.6557 124.278 78.096 124.409 78.5838 124.516C79.0717 124.611 79.5655 124.718 80.0653 124.837C80.5769 124.956 81.0767 125.099 81.5645 125.266C82.0524 125.42 82.4867 125.634 82.8675 125.908C83.2601 126.182 83.5695 126.527 83.7956 126.943C84.0336 127.36 84.1526 127.883 84.1526 128.514C84.1526 129.192 83.9979 129.775 83.6885 130.263C83.391 130.739 83.0043 131.132 82.5283 131.441C82.0524 131.739 81.5169 131.953 80.922 132.084C80.3389 132.227 79.7559 132.298 79.1728 132.298C78.4589 132.298 77.7806 132.209 77.1381 132.03C76.5075 131.852 75.9482 131.584 75.4603 131.227C74.9844 130.858 74.6036 130.394 74.318 129.835C74.0444 129.264 73.9075 128.591 73.9075 127.818H75.5139C75.5139 128.353 75.615 128.817 75.8173 129.21C76.0315 129.591 76.3052 129.906 76.6383 130.156C76.9834 130.406 77.382 130.59 77.8342 130.709C78.2864 130.828 78.7504 130.888 79.2264 130.888C79.6071 130.888 79.9879 130.852 80.3687 130.781C80.7613 130.709 81.1124 130.59 81.4217 130.424C81.7311 130.245 81.981 130.007 82.1714 129.71C82.3618 129.412 82.4569 129.032 82.4569 128.568C82.4569 128.127 82.338 127.77 82.1 127.497C81.8739 127.223 81.5645 127.003 81.1719 126.836C80.7911 126.658 80.3568 126.515 79.8689 126.408C79.3811 126.301 78.8813 126.194 78.3696 126.087C77.8699 125.968 77.3761 125.837 76.8882 125.694C76.4004 125.539 75.9601 125.343 75.5674 125.105C75.1867 124.855 74.8773 124.54 74.6393 124.159C74.4132 123.766 74.3002 123.278 74.3002 122.695C74.3002 122.053 74.4311 121.5 74.6929 121.036C74.9546 120.56 75.2997 120.173 75.7281 119.875C76.1683 119.566 76.6621 119.34 77.2095 119.197C77.7687 119.042 78.3399 118.965 78.9229 118.965C79.5774 118.965 80.1842 119.042 80.7435 119.197C81.3027 119.352 81.7906 119.596 82.2071 119.929C82.6354 120.262 82.9686 120.684 83.2066 121.196C83.4565 121.696 83.5933 122.297 83.6171 122.999H82.0107ZM91.3355 125.748C91.2165 125.164 90.9666 124.712 90.5858 124.391C90.2051 124.07 89.6934 123.909 89.0508 123.909C88.5035 123.909 88.0454 124.01 87.6765 124.213C87.3076 124.415 87.0102 124.683 86.7841 125.016C86.5699 125.349 86.4152 125.736 86.32 126.176C86.2248 126.604 86.1772 127.05 86.1772 127.515C86.1772 127.943 86.2248 128.359 86.32 128.764C86.4271 129.168 86.5878 129.531 86.8019 129.853C87.0161 130.162 87.2957 130.412 87.6408 130.602C87.9859 130.793 88.3964 130.888 88.8724 130.888C89.622 130.888 90.2051 130.692 90.6215 130.299C91.0499 129.906 91.3117 129.353 91.4068 128.639H92.9597C92.7931 129.781 92.3647 130.662 91.6746 131.281C90.9963 131.899 90.0682 132.209 88.8902 132.209C88.1882 132.209 87.5635 132.096 87.0161 131.87C86.4807 131.643 86.0285 131.322 85.6596 130.906C85.3027 130.489 85.029 129.995 84.8386 129.424C84.6601 128.841 84.5709 128.205 84.5709 127.515C84.5709 126.824 84.6601 126.182 84.8386 125.587C85.0171 124.98 85.2848 124.456 85.6418 124.016C86.0107 123.564 86.4688 123.213 87.0161 122.963C87.5635 122.701 88.2001 122.57 88.9259 122.57C89.4495 122.57 89.9373 122.636 90.3895 122.767C90.8535 122.886 91.2581 123.076 91.6032 123.338C91.9602 123.6 92.2517 123.933 92.4778 124.337C92.7038 124.73 92.8466 125.2 92.9061 125.748H91.3355ZM93.7648 119.269H95.2819V124.141H95.3176C95.4366 123.856 95.6032 123.618 95.8174 123.427C96.0316 123.225 96.2695 123.064 96.5313 122.945C96.805 122.814 97.0846 122.719 97.3702 122.66C97.6677 122.6 97.9532 122.57 98.2269 122.57C98.8338 122.57 99.3395 122.654 99.744 122.82C100.149 122.987 100.476 123.219 100.726 123.516C100.976 123.814 101.148 124.171 101.243 124.587C101.35 124.992 101.404 125.444 101.404 125.944V132.012H99.8868V125.765C99.8868 125.194 99.7202 124.742 99.3871 124.409C99.0539 124.076 98.5958 123.909 98.0127 123.909C97.5487 123.909 97.1441 123.981 96.799 124.123C96.4659 124.266 96.1862 124.468 95.9602 124.73C95.7341 124.992 95.5615 125.301 95.4426 125.658C95.3355 126.003 95.2819 126.384 95.2819 126.801V132.012H93.7648V119.269ZM103.897 127.407C103.897 127.967 103.968 128.466 104.111 128.907C104.266 129.335 104.474 129.698 104.736 129.995C104.997 130.281 105.301 130.501 105.646 130.656C106.003 130.811 106.378 130.888 106.77 130.888C107.163 130.888 107.532 130.811 107.877 130.656C108.234 130.501 108.543 130.281 108.805 129.995C109.067 129.698 109.269 129.335 109.412 128.907C109.567 128.466 109.644 127.967 109.644 127.407C109.644 126.848 109.567 126.354 109.412 125.926C109.269 125.486 109.067 125.117 108.805 124.819C108.543 124.522 108.234 124.296 107.877 124.141C107.532 123.986 107.163 123.909 106.77 123.909C106.378 123.909 106.003 123.986 105.646 124.141C105.301 124.296 104.997 124.522 104.736 124.819C104.474 125.117 104.266 125.486 104.111 125.926C103.968 126.354 103.897 126.848 103.897 127.407ZM102.29 127.407C102.29 126.729 102.386 126.099 102.576 125.515C102.766 124.921 103.052 124.409 103.433 123.981C103.813 123.54 104.283 123.195 104.843 122.945C105.402 122.695 106.045 122.57 106.77 122.57C107.508 122.57 108.151 122.695 108.698 122.945C109.257 123.195 109.727 123.54 110.108 123.981C110.489 124.409 110.774 124.921 110.965 125.515C111.155 126.099 111.25 126.729 111.25 127.407C111.25 128.086 111.155 128.716 110.965 129.299C110.774 129.882 110.489 130.394 110.108 130.834C109.727 131.263 109.257 131.602 108.698 131.852C108.151 132.09 107.508 132.209 106.77 132.209C106.045 132.209 105.402 132.09 104.843 131.852C104.283 131.602 103.813 131.263 103.433 130.834C103.052 130.394 102.766 129.882 102.576 129.299C102.386 128.716 102.29 128.086 102.29 127.407ZM112.236 119.269H113.753V132.012H112.236V119.269ZM123.385 131.977C123.124 132.131 122.761 132.209 122.297 132.209C121.904 132.209 121.589 132.102 121.351 131.887C121.125 131.661 121.012 131.298 121.012 130.799C120.595 131.298 120.107 131.661 119.548 131.887C119.001 132.102 118.406 132.209 117.763 132.209C117.347 132.209 116.948 132.161 116.567 132.066C116.198 131.971 115.877 131.822 115.604 131.62C115.33 131.417 115.11 131.156 114.943 130.834C114.788 130.501 114.711 130.103 114.711 129.638C114.711 129.115 114.8 128.687 114.979 128.353C115.157 128.02 115.389 127.752 115.675 127.55C115.972 127.336 116.306 127.175 116.674 127.068C117.055 126.961 117.442 126.872 117.835 126.801C118.251 126.717 118.644 126.658 119.013 126.622C119.393 126.574 119.727 126.515 120.012 126.444C120.298 126.36 120.524 126.247 120.69 126.104C120.857 125.95 120.94 125.73 120.94 125.444C120.94 125.111 120.875 124.843 120.744 124.641C120.625 124.439 120.464 124.284 120.262 124.177C120.072 124.07 119.851 123.998 119.602 123.963C119.364 123.927 119.126 123.909 118.888 123.909C118.245 123.909 117.71 124.034 117.281 124.284C116.853 124.522 116.621 124.98 116.585 125.658H115.068C115.092 125.087 115.211 124.605 115.425 124.213C115.639 123.82 115.925 123.505 116.282 123.267C116.639 123.017 117.043 122.838 117.495 122.731C117.96 122.624 118.453 122.57 118.977 122.57C119.393 122.57 119.804 122.6 120.208 122.66C120.625 122.719 121 122.844 121.333 123.035C121.666 123.213 121.934 123.469 122.136 123.802C122.338 124.135 122.44 124.57 122.44 125.105V129.853C122.44 130.21 122.457 130.471 122.493 130.638C122.541 130.805 122.683 130.888 122.921 130.888C123.052 130.888 123.207 130.858 123.385 130.799V131.977ZM120.922 127.247C120.732 127.39 120.482 127.497 120.173 127.568C119.863 127.628 119.536 127.681 119.191 127.729C118.858 127.764 118.519 127.812 118.174 127.871C117.829 127.919 117.519 128.002 117.246 128.121C116.972 128.24 116.746 128.413 116.567 128.639C116.401 128.853 116.317 129.151 116.317 129.531C116.317 129.781 116.365 129.995 116.46 130.174C116.567 130.341 116.698 130.477 116.853 130.584C117.02 130.692 117.21 130.769 117.424 130.816C117.638 130.864 117.864 130.888 118.102 130.888C118.602 130.888 119.03 130.822 119.387 130.692C119.744 130.549 120.036 130.376 120.262 130.174C120.488 129.96 120.655 129.734 120.762 129.496C120.869 129.246 120.922 129.014 120.922 128.8V127.247ZM123.851 122.785H125.279V124.73H125.315C125.684 123.981 126.136 123.427 126.672 123.07C127.207 122.713 127.885 122.547 128.706 122.57V124.177C128.099 124.177 127.582 124.26 127.153 124.427C126.725 124.593 126.38 124.837 126.118 125.159C125.856 125.48 125.666 125.872 125.547 126.337C125.428 126.789 125.369 127.312 125.369 127.907V132.012H123.851V122.785ZM129.884 129.103C129.896 129.436 129.974 129.722 130.116 129.96C130.259 130.186 130.444 130.37 130.67 130.513C130.908 130.644 131.17 130.739 131.455 130.799C131.753 130.858 132.056 130.888 132.365 130.888C132.603 130.888 132.853 130.87 133.115 130.834C133.377 130.799 133.615 130.733 133.829 130.638C134.055 130.543 134.239 130.406 134.382 130.227C134.525 130.037 134.596 129.799 134.596 129.514C134.596 129.121 134.448 128.823 134.15 128.621C133.853 128.419 133.478 128.258 133.026 128.139C132.585 128.008 132.104 127.895 131.58 127.8C131.056 127.693 130.569 127.55 130.116 127.372C129.676 127.181 129.307 126.92 129.01 126.586C128.712 126.253 128.564 125.789 128.564 125.194C128.564 124.73 128.665 124.332 128.867 123.998C129.081 123.665 129.349 123.397 129.67 123.195C130.003 122.981 130.372 122.826 130.777 122.731C131.193 122.624 131.604 122.57 132.008 122.57C132.532 122.57 133.014 122.618 133.454 122.713C133.894 122.797 134.281 122.951 134.614 123.177C134.959 123.392 135.233 123.689 135.435 124.07C135.638 124.439 135.757 124.903 135.792 125.462H134.275C134.251 125.164 134.174 124.921 134.043 124.73C133.912 124.528 133.746 124.367 133.543 124.248C133.341 124.129 133.115 124.046 132.865 123.998C132.627 123.939 132.383 123.909 132.133 123.909C131.907 123.909 131.675 123.927 131.437 123.963C131.211 123.998 131.003 124.064 130.813 124.159C130.622 124.242 130.467 124.361 130.348 124.516C130.229 124.659 130.17 124.849 130.17 125.087C130.17 125.349 130.259 125.569 130.438 125.748C130.628 125.914 130.866 126.057 131.152 126.176C131.437 126.283 131.759 126.378 132.115 126.461C132.472 126.533 132.829 126.61 133.186 126.693C133.567 126.777 133.936 126.878 134.293 126.997C134.662 127.116 134.983 127.277 135.257 127.479C135.542 127.669 135.768 127.913 135.935 128.211C136.114 128.508 136.203 128.877 136.203 129.317C136.203 129.876 136.084 130.341 135.846 130.709C135.62 131.078 135.316 131.376 134.936 131.602C134.567 131.828 134.144 131.983 133.668 132.066C133.204 132.161 132.74 132.209 132.276 132.209C131.764 132.209 131.277 132.155 130.813 132.048C130.348 131.941 129.938 131.768 129.581 131.53C129.224 131.281 128.938 130.959 128.724 130.567C128.51 130.162 128.391 129.674 128.367 129.103H129.884ZM136.988 119.269H138.505V124.141H138.541C138.66 123.856 138.827 123.618 139.041 123.427C139.255 123.225 139.493 123.064 139.755 122.945C140.028 122.814 140.308 122.719 140.594 122.66C140.891 122.6 141.177 122.57 141.45 122.57C142.057 122.57 142.563 122.654 142.967 122.82C143.372 122.987 143.699 123.219 143.949 123.516C144.199 123.814 144.371 124.171 144.467 124.587C144.574 124.992 144.627 125.444 144.627 125.944V132.012H143.11V125.765C143.11 125.194 142.944 124.742 142.61 124.409C142.277 124.076 141.819 123.909 141.236 123.909C140.772 123.909 140.367 123.981 140.022 124.123C139.689 124.266 139.41 124.468 139.183 124.73C138.957 124.992 138.785 125.301 138.666 125.658C138.559 126.003 138.505 126.384 138.505 126.801V132.012H136.988V119.269ZM147.62 121.125H146.103V119.269H147.62V121.125ZM146.103 122.785H147.62V132.012H146.103V122.785ZM149.131 122.785H150.648V124.034H150.684C150.934 123.522 151.327 123.154 151.862 122.927C152.397 122.689 152.986 122.57 153.629 122.57C154.343 122.57 154.962 122.701 155.485 122.963C156.021 123.225 156.461 123.582 156.806 124.034C157.163 124.474 157.431 124.986 157.609 125.569C157.788 126.152 157.877 126.771 157.877 127.425C157.877 128.08 157.788 128.698 157.609 129.282C157.443 129.865 157.181 130.376 156.824 130.816C156.479 131.245 156.039 131.584 155.503 131.834C154.98 132.084 154.367 132.209 153.665 132.209C153.439 132.209 153.183 132.185 152.897 132.137C152.624 132.09 152.35 132.012 152.076 131.905C151.803 131.798 151.541 131.655 151.291 131.477C151.053 131.286 150.851 131.054 150.684 130.781H150.648V135.528H149.131V122.785ZM156.271 127.318C156.271 126.89 156.211 126.473 156.092 126.069C155.985 125.652 155.812 125.283 155.575 124.962C155.348 124.641 155.051 124.385 154.682 124.195C154.325 124.004 153.903 123.909 153.415 123.909C152.903 123.909 152.469 124.01 152.112 124.213C151.755 124.415 151.463 124.683 151.237 125.016C151.011 125.337 150.845 125.706 150.738 126.122C150.642 126.539 150.595 126.961 150.595 127.39C150.595 127.842 150.648 128.282 150.755 128.71C150.863 129.127 151.029 129.496 151.255 129.817C151.493 130.138 151.797 130.4 152.165 130.602C152.534 130.793 152.981 130.888 153.504 130.888C154.028 130.888 154.462 130.787 154.807 130.584C155.164 130.382 155.45 130.114 155.664 129.781C155.878 129.448 156.033 129.067 156.128 128.639C156.223 128.211 156.271 127.77 156.271 127.318Z" fill="#9B9B9B"/>
<path d="M193.448 111.773C195.431 111.773 196.988 112.14 198.118 112.873C199.249 113.607 200.012 114.648 200.409 115.997H202.64V117.603H200.706C200.726 117.782 200.736 117.96 200.736 118.139C200.756 118.317 200.766 118.496 200.766 118.674C200.766 118.932 200.756 119.2 200.736 119.477C200.716 119.735 200.686 119.993 200.647 120.251H202.64V121.857H200.23C199.933 122.67 199.477 123.394 198.862 124.029C198.247 124.663 197.454 125.169 196.482 125.546C195.51 125.903 194.33 126.081 192.942 126.081H191.276V133.012H188.807V121.857H186.219V120.251H188.807V117.603H186.219V115.997H188.807V111.773H193.448ZM197.464 121.857H191.276V123.88H192.793C193.963 123.88 194.935 123.721 195.709 123.404C196.482 123.087 197.067 122.571 197.464 121.857ZM198.059 117.603H191.276V120.251H198.029C198.069 120.033 198.098 119.804 198.118 119.566C198.138 119.309 198.148 119.051 198.148 118.793C198.148 118.575 198.138 118.377 198.118 118.198C198.118 118 198.098 117.801 198.059 117.603ZM193.359 113.974H191.276V115.997H197.553C197.196 115.322 196.67 114.817 195.976 114.48C195.282 114.143 194.41 113.974 193.359 113.974Z" fill="#72ADFD"/>
<path d="M222.452 114.45C221.539 114.45 220.766 114.728 220.131 115.283C219.497 115.818 219.179 116.602 219.179 117.633C219.179 118.624 219.487 119.388 220.102 119.923C220.716 120.439 221.5 120.697 222.452 120.697C223.404 120.697 224.187 120.439 224.802 119.923C225.416 119.388 225.724 118.624 225.724 117.633C225.724 116.602 225.407 115.818 224.772 115.283C224.137 114.728 223.364 114.45 222.452 114.45ZM222.452 133.429C221.401 133.429 220.419 133.28 219.507 132.983C218.614 132.685 217.841 132.259 217.186 131.703C216.532 131.128 216.016 130.434 215.639 129.621C215.282 128.808 215.104 127.896 215.104 126.884C215.104 125.575 215.441 124.475 216.115 123.582C216.809 122.69 217.742 122.095 218.912 121.798V121.738C217.96 121.381 217.226 120.836 216.71 120.102C216.215 119.348 215.967 118.466 215.967 117.454C215.967 115.67 216.522 114.281 217.633 113.29C218.763 112.278 220.369 111.773 222.452 111.773C224.534 111.773 226.13 112.278 227.241 113.29C228.371 114.281 228.937 115.67 228.937 117.454C228.937 118.466 228.679 119.348 228.163 120.102C227.667 120.836 226.943 121.381 225.992 121.738V121.798C227.162 122.095 228.084 122.69 228.758 123.582C229.452 124.475 229.799 125.575 229.799 126.884C229.799 127.896 229.611 128.808 229.234 129.621C228.877 130.434 228.371 131.128 227.717 131.703C227.062 132.259 226.279 132.685 225.367 132.983C224.474 133.28 223.503 133.429 222.452 133.429ZM222.452 130.752C223.582 130.752 224.524 130.414 225.278 129.74C226.031 129.066 226.408 128.114 226.408 126.884C226.408 125.734 226.031 124.842 225.278 124.207C224.524 123.553 223.582 123.225 222.452 123.225C221.321 123.225 220.379 123.553 219.626 124.207C218.872 124.842 218.495 125.734 218.495 126.884C218.495 128.114 218.872 129.066 219.626 129.74C220.379 130.414 221.321 130.752 222.452 130.752ZM237.494 111.773C238.981 111.773 240.191 112.12 241.123 112.814C242.075 113.488 242.809 114.361 243.324 115.432C243.86 116.483 244.217 117.643 244.395 118.912C244.594 120.181 244.693 121.411 244.693 122.601C244.693 123.791 244.594 125.02 244.395 126.289C244.217 127.559 243.86 128.729 243.324 129.8C242.809 130.851 242.075 131.723 241.123 132.417C240.191 133.092 238.981 133.429 237.494 133.429C236.006 133.429 234.787 133.092 233.835 132.417C232.903 131.723 232.169 130.851 231.634 129.8C231.118 128.729 230.761 127.559 230.563 126.289C230.384 125.02 230.295 123.791 230.295 122.601C230.295 121.411 230.384 120.181 230.563 118.912C230.761 117.643 231.118 116.483 231.634 115.432C232.169 114.361 232.903 113.488 233.835 112.814C234.787 112.12 236.006 111.773 237.494 111.773ZM237.494 130.603C238.228 130.603 238.842 130.395 239.338 129.978C239.834 129.542 240.221 128.967 240.498 128.253C240.796 127.519 241.004 126.666 241.123 125.694C241.242 124.723 241.301 123.691 241.301 122.601C241.301 121.51 241.242 120.489 241.123 119.537C241.004 118.565 240.796 117.712 240.498 116.978C240.221 116.245 239.834 115.67 239.338 115.253C238.842 114.817 238.228 114.599 237.494 114.599C236.74 114.599 236.116 114.817 235.62 115.253C235.144 115.67 234.757 116.245 234.46 116.978C234.182 117.712 233.984 118.565 233.865 119.537C233.746 120.489 233.686 121.51 233.686 122.601C233.686 123.691 233.746 124.723 233.865 125.694C233.984 126.666 234.182 127.519 234.46 128.253C234.757 128.967 235.144 129.542 235.62 129.978C236.116 130.395 236.74 130.603 237.494 130.603ZM252.536 111.773C254.023 111.773 255.233 112.12 256.165 112.814C257.117 113.488 257.851 114.361 258.367 115.432C258.902 116.483 259.259 117.643 259.437 118.912C259.636 120.181 259.735 121.411 259.735 122.601C259.735 123.791 259.636 125.02 259.437 126.289C259.259 127.559 258.902 128.729 258.367 129.8C257.851 130.851 257.117 131.723 256.165 132.417C255.233 133.092 254.023 133.429 252.536 133.429C251.049 133.429 249.829 133.092 248.877 132.417C247.945 131.723 247.211 130.851 246.676 129.8C246.16 128.729 245.803 127.559 245.605 126.289C245.426 125.02 245.337 123.791 245.337 122.601C245.337 121.411 245.426 120.181 245.605 118.912C245.803 117.643 246.16 116.483 246.676 115.432C247.211 114.361 247.945 113.488 248.877 112.814C249.829 112.12 251.049 111.773 252.536 111.773ZM252.536 130.603C253.27 130.603 253.885 130.395 254.38 129.978C254.876 129.542 255.263 128.967 255.541 128.253C255.838 127.519 256.046 126.666 256.165 125.694C256.284 124.723 256.344 123.691 256.344 122.601C256.344 121.51 256.284 120.489 256.165 119.537C256.046 118.565 255.838 117.712 255.541 116.978C255.263 116.245 254.876 115.67 254.38 115.253C253.885 114.817 253.27 114.599 252.536 114.599C251.782 114.599 251.158 114.817 250.662 115.253C250.186 115.67 249.799 116.245 249.502 116.978C249.224 117.712 249.026 118.565 248.907 119.537C248.788 120.489 248.728 121.51 248.728 122.601C248.728 123.691 248.788 124.723 248.907 125.694C249.026 126.666 249.224 127.519 249.502 128.253C249.799 128.967 250.186 129.542 250.662 129.978C251.158 130.395 251.782 130.603 252.536 130.603ZM267.578 111.773C269.066 111.773 270.275 112.12 271.207 112.814C272.159 113.488 272.893 114.361 273.409 115.432C273.944 116.483 274.301 117.643 274.48 118.912C274.678 120.181 274.777 121.411 274.777 122.601C274.777 123.791 274.678 125.02 274.48 126.289C274.301 127.559 273.944 128.729 273.409 129.8C272.893 130.851 272.159 131.723 271.207 132.417C270.275 133.092 269.066 133.429 267.578 133.429C266.091 133.429 264.871 133.092 263.919 132.417C262.987 131.723 262.253 130.851 261.718 129.8C261.202 128.729 260.845 127.559 260.647 126.289C260.469 125.02 260.379 123.791 260.379 122.601C260.379 121.411 260.469 120.181 260.647 118.912C260.845 117.643 261.202 116.483 261.718 115.432C262.253 114.361 262.987 113.488 263.919 112.814C264.871 112.12 266.091 111.773 267.578 111.773ZM267.578 130.603C268.312 130.603 268.927 130.395 269.423 129.978C269.918 129.542 270.305 128.967 270.583 128.253C270.88 127.519 271.088 126.666 271.207 125.694C271.326 124.723 271.386 123.691 271.386 122.601C271.386 121.51 271.326 120.489 271.207 119.537C271.088 118.565 270.88 117.712 270.583 116.978C270.305 116.245 269.918 115.67 269.423 115.253C268.927 114.817 268.312 114.599 267.578 114.599C266.825 114.599 266.2 114.817 265.704 115.253C265.228 115.67 264.842 116.245 264.544 116.978C264.266 117.712 264.068 118.565 263.949 119.537C263.83 120.489 263.771 121.51 263.771 122.601C263.771 123.691 263.83 124.723 263.949 125.694C264.068 126.666 264.266 127.519 264.544 128.253C264.842 128.967 265.228 129.542 265.704 129.978C266.2 130.395 266.825 130.603 267.578 130.603Z" fill="#293F55"/>
<line x1="289.666" y1="105.7" x2="289.666" y2="140.566" stroke="#D9D9D9" stroke-width="2.23106"/>
<path d="M319.875 111.773C321.858 111.773 323.415 112.14 324.545 112.873C325.675 113.607 326.439 114.648 326.836 115.997H329.067V117.603H327.133C327.153 117.782 327.163 117.96 327.163 118.139C327.183 118.317 327.192 118.496 327.192 118.674C327.192 118.932 327.183 119.2 327.163 119.477C327.143 119.735 327.113 119.993 327.073 120.251H329.067V121.857H326.657C326.36 122.67 325.903 123.394 325.289 124.029C324.674 124.663 323.881 125.169 322.909 125.546C321.937 125.903 320.757 126.081 319.369 126.081H317.703V133.012H315.234V121.857H312.646V120.251H315.234V117.603H312.646V115.997H315.234V111.773H319.875ZM323.891 121.857H317.703V123.88H319.22C320.39 123.88 321.362 123.721 322.135 123.404C322.909 123.087 323.494 122.571 323.891 121.857ZM324.485 117.603H317.703V120.251H324.456C324.495 120.033 324.525 119.804 324.545 119.566C324.565 119.309 324.575 119.051 324.575 118.793C324.575 118.575 324.565 118.377 324.545 118.198C324.545 118 324.525 117.801 324.485 117.603ZM319.785 113.974H317.703V115.997H323.98C323.623 115.322 323.097 114.817 322.403 114.48C321.709 114.143 320.836 113.974 319.785 113.974Z" fill="#72ADFD"/>
<path d="M344.267 112.189H355.036V115.223H346.796L345.725 120.518L345.785 120.578C346.241 120.062 346.816 119.676 347.51 119.418C348.224 119.14 348.928 119.001 349.622 119.001C350.653 119.001 351.575 119.18 352.389 119.537C353.202 119.874 353.886 120.36 354.441 120.994C354.996 121.609 355.413 122.343 355.691 123.196C355.988 124.048 356.137 124.971 356.137 125.962C356.137 126.795 355.998 127.658 355.72 128.55C355.462 129.423 355.036 130.226 354.441 130.96C353.866 131.674 353.122 132.269 352.21 132.745C351.298 133.201 350.207 133.429 348.938 133.429C347.926 133.429 346.984 133.29 346.112 133.012C345.259 132.755 344.505 132.358 343.851 131.822C343.197 131.287 342.671 130.633 342.274 129.859C341.898 129.066 341.689 128.144 341.65 127.093H345.041C345.14 128.223 345.527 129.096 346.201 129.71C346.875 130.305 347.768 130.603 348.878 130.603C349.592 130.603 350.197 130.484 350.693 130.246C351.189 130.008 351.585 129.681 351.883 129.264C352.2 128.848 352.418 128.362 352.537 127.807C352.676 127.251 352.746 126.656 352.746 126.022C352.746 125.447 352.666 124.901 352.508 124.386C352.349 123.85 352.111 123.384 351.794 122.987C351.476 122.591 351.06 122.273 350.544 122.036C350.048 121.798 349.463 121.679 348.789 121.679C348.075 121.679 347.401 121.817 346.766 122.095C346.151 122.353 345.705 122.849 345.428 123.582H342.036L344.267 112.189ZM363.921 111.773C365.408 111.773 366.618 112.12 367.55 112.814C368.502 113.488 369.235 114.361 369.751 115.432C370.287 116.483 370.644 117.643 370.822 118.912C371.02 120.181 371.119 121.411 371.119 122.601C371.119 123.791 371.02 125.02 370.822 126.289C370.644 127.559 370.287 128.729 369.751 129.8C369.235 130.851 368.502 131.723 367.55 132.417C366.618 133.092 365.408 133.429 363.921 133.429C362.433 133.429 361.214 133.092 360.262 132.417C359.33 131.723 358.596 130.851 358.06 129.8C357.545 128.729 357.188 127.559 356.989 126.289C356.811 125.02 356.722 123.791 356.722 122.601C356.722 121.411 356.811 120.181 356.989 118.912C357.188 117.643 357.545 116.483 358.06 115.432C358.596 114.361 359.33 113.488 360.262 112.814C361.214 112.12 362.433 111.773 363.921 111.773ZM363.921 130.603C364.654 130.603 365.269 130.395 365.765 129.978C366.261 129.542 366.647 128.967 366.925 128.253C367.223 127.519 367.431 126.666 367.55 125.694C367.669 124.723 367.728 123.691 367.728 122.601C367.728 121.51 367.669 120.489 367.55 119.537C367.431 118.565 367.223 117.712 366.925 116.978C366.647 116.245 366.261 115.67 365.765 115.253C365.269 114.817 364.654 114.599 363.921 114.599C363.167 114.599 362.542 114.817 362.046 115.253C361.571 115.67 361.184 116.245 360.886 116.978C360.609 117.712 360.41 118.565 360.291 119.537C360.172 120.489 360.113 121.51 360.113 122.601C360.113 123.691 360.172 124.723 360.291 125.694C360.41 126.666 360.609 127.519 360.886 128.253C361.184 128.967 361.571 129.542 362.046 129.978C362.542 130.395 363.167 130.603 363.921 130.603ZM378.963 111.773C380.45 111.773 381.66 112.12 382.592 112.814C383.544 113.488 384.278 114.361 384.793 115.432C385.329 116.483 385.686 117.643 385.864 118.912C386.063 120.181 386.162 121.411 386.162 122.601C386.162 123.791 386.063 125.02 385.864 126.289C385.686 127.559 385.329 128.729 384.793 129.8C384.278 130.851 383.544 131.723 382.592 132.417C381.66 133.092 380.45 133.429 378.963 133.429C377.475 133.429 376.256 133.092 375.304 132.417C374.372 131.723 373.638 130.851 373.103 129.8C372.587 128.729 372.23 127.559 372.032 126.289C371.853 125.02 371.764 123.791 371.764 122.601C371.764 121.411 371.853 120.181 372.032 118.912C372.23 117.643 372.587 116.483 373.103 115.432C373.638 114.361 374.372 113.488 375.304 112.814C376.256 112.12 377.475 111.773 378.963 111.773ZM378.963 130.603C379.697 130.603 380.311 130.395 380.807 129.978C381.303 129.542 381.69 128.967 381.967 128.253C382.265 127.519 382.473 126.666 382.592 125.694C382.711 124.723 382.77 123.691 382.77 122.601C382.77 121.51 382.711 120.489 382.592 119.537C382.473 118.565 382.265 117.712 381.967 116.978C381.69 116.245 381.303 115.67 380.807 115.253C380.311 114.817 379.697 114.599 378.963 114.599C378.209 114.599 377.585 114.817 377.089 115.253C376.613 115.67 376.226 116.245 375.929 116.978C375.651 117.712 375.453 118.565 375.334 119.537C375.215 120.489 375.155 121.51 375.155 122.601C375.155 123.691 375.215 124.723 375.334 125.694C375.453 126.666 375.651 127.519 375.929 128.253C376.226 128.967 376.613 129.542 377.089 129.978C377.585 130.395 378.209 130.603 378.963 130.603ZM394.005 111.773C395.492 111.773 396.702 112.12 397.634 112.814C398.586 113.488 399.32 114.361 399.836 115.432C400.371 116.483 400.728 117.643 400.906 118.912C401.105 120.181 401.204 121.411 401.204 122.601C401.204 123.791 401.105 125.02 400.906 126.289C400.728 127.559 400.371 128.729 399.836 129.8C399.32 130.851 398.586 131.723 397.634 132.417C396.702 133.092 395.492 133.429 394.005 133.429C392.518 133.429 391.298 133.092 390.346 132.417C389.414 131.723 388.68 130.851 388.145 129.8C387.629 128.729 387.272 127.559 387.074 126.289C386.895 125.02 386.806 123.791 386.806 122.601C386.806 121.411 386.895 120.181 387.074 118.912C387.272 117.643 387.629 116.483 388.145 115.432C388.68 114.361 389.414 113.488 390.346 112.814C391.298 112.12 392.518 111.773 394.005 111.773ZM394.005 130.603C394.739 130.603 395.354 130.395 395.849 129.978C396.345 129.542 396.732 128.967 397.01 128.253C397.307 127.519 397.515 126.666 397.634 125.694C397.753 124.723 397.813 123.691 397.813 122.601C397.813 121.51 397.753 120.489 397.634 119.537C397.515 118.565 397.307 117.712 397.01 116.978C396.732 116.245 396.345 115.67 395.849 115.253C395.354 114.817 394.739 114.599 394.005 114.599C393.251 114.599 392.627 114.817 392.131 115.253C391.655 115.67 391.268 116.245 390.971 116.978C390.693 117.712 390.495 118.565 390.376 119.537C390.257 120.489 390.197 121.51 390.197 122.601C390.197 123.691 390.257 124.723 390.376 125.694C390.495 126.666 390.693 127.519 390.971 128.253C391.268 128.967 391.655 129.542 392.131 129.978C392.627 130.395 393.251 130.603 394.005 130.603Z" fill="#293F55"/>
<path d="M440.976 124.169H445.295L443.171 118.225H443.135L440.976 124.169ZM442.243 116.691H444.117L449.097 129.434H447.223L445.83 125.597H440.44L439.012 129.434H437.281L442.243 116.691ZM449.301 116.691H450.818V129.434H449.301V116.691ZM452.365 116.691H453.882V129.434H452.365V116.691ZM456.447 124.829C456.447 125.389 456.518 125.888 456.661 126.329C456.815 126.757 457.024 127.12 457.285 127.417C457.547 127.703 457.851 127.923 458.196 128.078C458.553 128.233 458.928 128.31 459.32 128.31C459.713 128.31 460.082 128.233 460.427 128.078C460.784 127.923 461.093 127.703 461.355 127.417C461.617 127.12 461.819 126.757 461.962 126.329C462.116 125.888 462.194 125.389 462.194 124.829C462.194 124.27 462.116 123.776 461.962 123.348C461.819 122.908 461.617 122.539 461.355 122.241C461.093 121.944 460.784 121.718 460.427 121.563C460.082 121.408 459.713 121.331 459.32 121.331C458.928 121.331 458.553 121.408 458.196 121.563C457.851 121.718 457.547 121.944 457.285 122.241C457.024 122.539 456.815 122.908 456.661 123.348C456.518 123.776 456.447 124.27 456.447 124.829ZM454.84 124.829C454.84 124.151 454.935 123.521 455.126 122.937C455.316 122.343 455.602 121.831 455.983 121.403C456.363 120.962 456.833 120.617 457.393 120.367C457.952 120.117 458.594 119.992 459.32 119.992C460.058 119.992 460.7 120.117 461.248 120.367C461.807 120.617 462.277 120.962 462.658 121.403C463.039 121.831 463.324 122.343 463.515 122.937C463.705 123.521 463.8 124.151 463.8 124.829C463.8 125.508 463.705 126.138 463.515 126.721C463.324 127.304 463.039 127.816 462.658 128.256C462.277 128.685 461.807 129.024 461.248 129.274C460.7 129.512 460.058 129.631 459.32 129.631C458.594 129.631 457.952 129.512 457.393 129.274C456.833 129.024 456.363 128.685 455.983 128.256C455.602 127.816 455.316 127.304 455.126 126.721C454.935 126.138 454.84 125.508 454.84 124.829ZM473.835 129.434H472.229L470.354 122.099H470.319L468.462 129.434H466.82L463.858 120.207H465.535L467.624 127.757H467.659L469.516 120.207H471.175L473.103 127.757H473.139L475.209 120.207H476.78L473.835 129.434ZM485.504 129.399C485.243 129.553 484.88 129.631 484.416 129.631C484.023 129.631 483.708 129.524 483.47 129.309C483.244 129.083 483.131 128.72 483.131 128.221C482.714 128.72 482.226 129.083 481.667 129.309C481.12 129.524 480.525 129.631 479.882 129.631C479.466 129.631 479.067 129.583 478.686 129.488C478.317 129.393 477.996 129.244 477.723 129.042C477.449 128.839 477.229 128.578 477.062 128.256C476.907 127.923 476.83 127.525 476.83 127.06C476.83 126.537 476.919 126.109 477.098 125.775C477.276 125.442 477.508 125.174 477.794 124.972C478.091 124.758 478.425 124.597 478.793 124.49C479.174 124.383 479.561 124.294 479.954 124.223C480.37 124.139 480.763 124.08 481.132 124.044C481.512 123.996 481.846 123.937 482.131 123.866C482.417 123.782 482.643 123.669 482.809 123.526C482.976 123.372 483.059 123.152 483.059 122.866C483.059 122.533 482.994 122.265 482.863 122.063C482.744 121.861 482.583 121.706 482.381 121.599C482.191 121.492 481.97 121.42 481.721 121.385C481.483 121.349 481.245 121.331 481.007 121.331C480.364 121.331 479.829 121.456 479.4 121.706C478.972 121.944 478.74 122.402 478.704 123.08H477.187C477.211 122.509 477.33 122.027 477.544 121.635C477.758 121.242 478.044 120.927 478.401 120.689C478.758 120.439 479.162 120.26 479.614 120.153C480.079 120.046 480.572 119.992 481.096 119.992C481.512 119.992 481.923 120.022 482.327 120.082C482.744 120.141 483.119 120.266 483.452 120.457C483.785 120.635 484.053 120.891 484.255 121.224C484.457 121.557 484.558 121.992 484.558 122.527V127.275C484.558 127.632 484.576 127.893 484.612 128.06C484.66 128.227 484.802 128.31 485.04 128.31C485.171 128.31 485.326 128.28 485.504 128.221V129.399ZM483.041 124.669C482.851 124.812 482.601 124.919 482.292 124.99C481.982 125.05 481.655 125.103 481.31 125.151C480.977 125.186 480.638 125.234 480.293 125.293C479.948 125.341 479.638 125.424 479.365 125.543C479.091 125.662 478.865 125.835 478.686 126.061C478.52 126.275 478.436 126.573 478.436 126.953C478.436 127.203 478.484 127.417 478.579 127.596C478.686 127.763 478.817 127.899 478.972 128.006C479.138 128.114 479.329 128.191 479.543 128.238C479.757 128.286 479.983 128.31 480.221 128.31C480.721 128.31 481.149 128.244 481.506 128.114C481.863 127.971 482.155 127.798 482.381 127.596C482.607 127.382 482.774 127.156 482.881 126.918C482.988 126.668 483.041 126.436 483.041 126.222V124.669ZM486.024 120.207H487.452V121.67H487.488C488.118 120.552 489.118 119.992 490.486 119.992C491.093 119.992 491.599 120.076 492.003 120.242C492.408 120.409 492.735 120.641 492.985 120.938C493.235 121.236 493.407 121.593 493.503 122.009C493.61 122.414 493.663 122.866 493.663 123.366V129.434H492.146V123.187C492.146 122.616 491.979 122.164 491.646 121.831C491.313 121.498 490.855 121.331 490.272 121.331C489.808 121.331 489.403 121.403 489.058 121.545C488.725 121.688 488.445 121.89 488.219 122.152C487.993 122.414 487.821 122.723 487.702 123.08C487.595 123.425 487.541 123.806 487.541 124.223V129.434H486.024V120.207ZM501.314 123.17C501.195 122.586 500.945 122.134 500.565 121.813C500.184 121.492 499.672 121.331 499.03 121.331C498.482 121.331 498.024 121.432 497.655 121.635C497.286 121.837 496.989 122.105 496.763 122.438C496.549 122.771 496.394 123.158 496.299 123.598C496.204 124.026 496.156 124.472 496.156 124.937C496.156 125.365 496.204 125.781 496.299 126.186C496.406 126.59 496.566 126.953 496.781 127.275C496.995 127.584 497.274 127.834 497.62 128.024C497.965 128.215 498.375 128.31 498.851 128.31C499.601 128.31 500.184 128.114 500.6 127.721C501.029 127.328 501.29 126.775 501.386 126.061H502.938C502.772 127.203 502.343 128.084 501.653 128.703C500.975 129.321 500.047 129.631 498.869 129.631C498.167 129.631 497.542 129.518 496.995 129.292C496.459 129.065 496.007 128.744 495.638 128.328C495.281 127.911 495.008 127.417 494.817 126.846C494.639 126.263 494.55 125.627 494.55 124.937C494.55 124.246 494.639 123.604 494.817 123.009C494.996 122.402 495.264 121.878 495.62 121.438C495.989 120.986 496.447 120.635 496.995 120.385C497.542 120.123 498.179 119.992 498.905 119.992C499.428 119.992 499.916 120.058 500.368 120.189C500.832 120.308 501.237 120.498 501.582 120.76C501.939 121.022 502.23 121.355 502.456 121.759C502.683 122.152 502.825 122.622 502.885 123.17H501.314ZM510.151 123.937C510.127 123.58 510.044 123.241 509.901 122.92C509.77 122.598 509.586 122.325 509.348 122.099C509.122 121.861 508.848 121.676 508.527 121.545C508.218 121.403 507.872 121.331 507.492 121.331C507.099 121.331 506.742 121.403 506.421 121.545C506.111 121.676 505.844 121.861 505.618 122.099C505.392 122.337 505.213 122.616 505.082 122.937C504.951 123.247 504.874 123.58 504.85 123.937H510.151ZM511.615 126.507C511.412 127.542 510.966 128.322 510.276 128.845C509.586 129.369 508.717 129.631 507.67 129.631C506.932 129.631 506.29 129.512 505.743 129.274C505.207 129.036 504.755 128.703 504.386 128.274C504.017 127.846 503.738 127.334 503.547 126.739C503.369 126.144 503.268 125.496 503.244 124.794C503.244 124.092 503.351 123.449 503.565 122.866C503.779 122.283 504.077 121.777 504.457 121.349C504.85 120.921 505.308 120.587 505.832 120.349C506.367 120.111 506.95 119.992 507.581 119.992C508.402 119.992 509.08 120.165 509.616 120.51C510.163 120.843 510.597 121.272 510.919 121.795C511.252 122.319 511.478 122.89 511.597 123.509C511.728 124.127 511.781 124.716 511.757 125.276H504.85C504.838 125.68 504.886 126.067 504.993 126.436C505.1 126.793 505.273 127.114 505.511 127.4C505.748 127.673 506.052 127.893 506.421 128.06C506.79 128.227 507.224 128.31 507.724 128.31C508.366 128.31 508.89 128.161 509.294 127.864C509.711 127.566 509.985 127.114 510.115 126.507H511.615Z" fill="#9B9B9B"/>
</svg>
