<svg width="252" height="250" viewBox="0 0 252 250" fill="none" xmlns="http://www.w3.org/2000/svg">
<rect width="251.544" height="249.456" rx="31.3125" fill="white"/>
<g filter="url(#filter0_d_357_77)">
<rect x="136.731" y="39.6626" width="93.9375" height="21.9188" rx="10.9594" fill="#72ADFD" shape-rendering="crispEdges"/>
<path d="M166.376 49.2602L162.912 53.6001C162.584 53.997 162.077 53.997 161.762 53.6001L158.299 49.2602C157.97 48.8492 158.134 48.5347 158.641 48.5347H166.034C166.554 48.5347 166.704 48.8497 166.376 49.2602Z" fill="white"/>
<path d="M178.014 46.6792H179.605L181.221 53.5179H181.246L183.049 46.6792H184.652L186.406 53.5179H186.431L188.097 46.6792H189.687L187.22 55.6221H185.629L183.838 48.7834H183.813L181.985 55.6221H180.369L178.014 46.6792ZM194.118 51.8145C194.102 51.589 194.051 51.3719 193.968 51.1632C193.893 50.9544 193.784 50.7749 193.642 50.6246C193.509 50.4659 193.342 50.3407 193.141 50.2488C192.949 50.1486 192.732 50.0985 192.49 50.0985C192.24 50.0985 192.01 50.1445 191.801 50.2363C191.601 50.3198 191.425 50.4409 191.275 50.5995C191.133 50.7498 191.016 50.9294 190.924 51.1381C190.841 51.3469 190.795 51.5723 190.787 51.8145H194.118ZM190.787 52.7538C190.787 53.0043 190.82 53.2465 190.887 53.4803C190.962 53.7141 191.071 53.9187 191.212 54.094C191.354 54.2694 191.534 54.4113 191.751 54.5199C191.968 54.6201 192.227 54.6702 192.528 54.6702C192.945 54.6702 193.279 54.5825 193.53 54.4071C193.788 54.2234 193.98 53.9521 194.106 53.593H195.458C195.383 53.9437 195.254 54.2568 195.07 54.5324C194.886 54.8079 194.665 55.0417 194.406 55.2338C194.147 55.4175 193.855 55.5553 193.53 55.6471C193.212 55.7473 192.878 55.7974 192.528 55.7974C192.018 55.7974 191.567 55.7139 191.175 55.5469C190.782 55.3799 190.448 55.1461 190.173 54.8455C189.906 54.5449 189.701 54.1859 189.559 53.7684C189.426 53.3509 189.359 52.8916 189.359 52.3906C189.359 51.9314 189.43 51.4972 189.572 51.088C189.722 50.6705 189.931 50.3073 190.198 49.9983C190.473 49.681 190.803 49.4305 191.187 49.2468C191.572 49.0631 192.006 48.9713 192.49 48.9713C192.999 48.9713 193.454 49.0798 193.855 49.2969C194.264 49.5057 194.603 49.7854 194.87 50.1361C195.137 50.4868 195.329 50.8918 195.446 51.351C195.571 51.8019 195.605 52.2695 195.546 52.7538H190.787ZM200.452 51.8145C200.435 51.589 200.385 51.3719 200.301 51.1632C200.226 50.9544 200.118 50.7749 199.976 50.6246C199.842 50.4659 199.675 50.3407 199.475 50.2488C199.283 50.1486 199.066 50.0985 198.823 50.0985C198.573 50.0985 198.343 50.1445 198.135 50.2363C197.934 50.3198 197.759 50.4409 197.609 50.5995C197.467 50.7498 197.35 50.9294 197.258 51.1381C197.174 51.3469 197.128 51.5723 197.12 51.8145H200.452ZM197.12 52.7538C197.12 53.0043 197.153 53.2465 197.22 53.4803C197.295 53.7141 197.404 53.9187 197.546 54.094C197.688 54.2694 197.867 54.4113 198.084 54.5199C198.302 54.6201 198.56 54.6702 198.861 54.6702C199.279 54.6702 199.613 54.5825 199.863 54.4071C200.122 54.2234 200.314 53.9521 200.439 53.593H201.792C201.717 53.9437 201.587 54.2568 201.404 54.5324C201.22 54.8079 200.999 55.0417 200.74 55.2338C200.481 55.4175 200.189 55.5553 199.863 55.6471C199.546 55.7473 199.212 55.7974 198.861 55.7974C198.352 55.7974 197.901 55.7139 197.508 55.5469C197.116 55.3799 196.782 55.1461 196.506 54.8455C196.239 54.5449 196.035 54.1859 195.893 53.7684C195.759 53.3509 195.692 52.8916 195.692 52.3906C195.692 51.9314 195.763 51.4972 195.905 51.088C196.055 50.6705 196.264 50.3073 196.531 49.9983C196.807 49.681 197.137 49.4305 197.521 49.2468C197.905 49.0631 198.339 48.9713 198.823 48.9713C199.333 48.9713 199.788 49.0798 200.189 49.2969C200.598 49.5057 200.936 49.7854 201.203 50.1361C201.47 50.4868 201.662 50.8918 201.779 51.351C201.905 51.8019 201.938 52.2695 201.88 52.7538H197.12ZM202.376 46.6792H203.804V51.7644L206.384 49.1466H208.138L205.658 51.5264L208.376 55.6221H206.635L204.656 52.4783L203.804 53.3049V55.6221H202.376V46.6792ZM208.477 46.6792H209.905V55.6221H208.477V46.6792ZM210.121 49.1466H211.686L213.377 53.9813H213.402L215.043 49.1466H216.534L214.016 55.9728C213.899 56.265 213.782 56.5447 213.665 56.8119C213.557 57.0791 213.419 57.3129 213.252 57.5133C213.093 57.7221 212.893 57.8849 212.651 58.0018C212.409 58.1271 212.1 58.1897 211.724 58.1897C211.39 58.1897 211.06 58.1646 210.735 58.1145V56.9121C210.851 56.9288 210.964 56.9455 211.073 56.9622C211.181 56.9873 211.294 56.9998 211.411 56.9998C211.578 56.9998 211.716 56.9789 211.824 56.9372C211.933 56.8954 212.02 56.8328 212.087 56.7493C212.162 56.6742 212.225 56.5823 212.275 56.4738C212.325 56.3652 212.371 56.24 212.413 56.098L212.576 55.597L210.121 49.1466Z" fill="white"/>
</g>
<path d="M15.7565 18.2075H17.8774L20.0317 27.3257H20.0651L22.4699 18.2075H24.6075L26.9455 27.3257H26.9789L29.2 18.2075H31.3209L28.031 30.1313H25.9101L23.522 21.0131H23.4886L21.0504 30.1313H18.8961L15.7565 18.2075ZM37.2286 25.0545C37.2064 24.7539 37.1396 24.4645 37.0282 24.1861C36.928 23.9078 36.7833 23.6684 36.594 23.468C36.4159 23.2565 36.1932 23.0895 35.926 22.967C35.67 22.8334 35.3805 22.7666 35.0576 22.7666C34.7236 22.7666 34.4175 22.8279 34.1391 22.9503C33.8719 23.0617 33.6381 23.2231 33.4377 23.4346C33.2485 23.635 33.0926 23.8744 32.9701 24.1527C32.8588 24.4311 32.7976 24.7317 32.7864 25.0545H37.2286ZM32.7864 26.307C32.7864 26.641 32.831 26.9639 32.92 27.2756C33.0202 27.5874 33.165 27.8601 33.3542 28.0939C33.5435 28.3277 33.7829 28.517 34.0723 28.6617C34.3618 28.7953 34.7069 28.8621 35.1077 28.8621C35.6644 28.8621 36.1097 28.7452 36.4437 28.5114C36.7889 28.2665 37.0449 27.9047 37.2119 27.4259H39.0155C38.9153 27.8935 38.7428 28.311 38.4978 28.6784C38.2529 29.0458 37.9579 29.3576 37.6127 29.6136C37.2676 29.8586 36.8779 30.0423 36.4437 30.1647C36.0207 30.2983 35.5753 30.3651 35.1077 30.3651C34.4286 30.3651 33.8274 30.2538 33.3041 30.0311C32.7809 29.8085 32.3355 29.4967 31.9681 29.0959C31.6119 28.6951 31.3391 28.2164 31.1498 27.6597C30.9717 27.1031 30.8826 26.4907 30.8826 25.8227C30.8826 25.2104 30.9773 24.6315 31.1665 24.0859C31.3669 23.5293 31.6453 23.045 32.0015 22.633C32.3689 22.21 32.8087 21.876 33.3208 21.631C33.833 21.3861 34.4119 21.2636 35.0576 21.2636C35.7368 21.2636 36.3435 21.4084 36.8779 21.6978C37.4235 21.9762 37.8744 22.3491 38.2306 22.8167C38.5869 23.2843 38.843 23.8243 38.9988 24.4366C39.1658 25.0378 39.2104 25.6613 39.1324 26.307H32.7864ZM45.6732 25.0545C45.6509 24.7539 45.5841 24.4645 45.4728 24.1861C45.3726 23.9078 45.2279 23.6684 45.0386 23.468C44.8605 23.2565 44.6378 23.0895 44.3706 22.967C44.1145 22.8334 43.8251 22.7666 43.5022 22.7666C43.1682 22.7666 42.862 22.8279 42.5837 22.9503C42.3165 23.0617 42.0827 23.2231 41.8823 23.4346C41.693 23.635 41.5372 23.8744 41.4147 24.1527C41.3034 24.4311 41.2421 24.7317 41.231 25.0545H45.6732ZM41.231 26.307C41.231 26.641 41.2755 26.9639 41.3646 27.2756C41.4648 27.5874 41.6095 27.8601 41.7988 28.0939C41.9881 28.3277 42.2274 28.517 42.5169 28.6617C42.8064 28.7953 43.1515 28.8621 43.5523 28.8621C44.109 28.8621 44.5543 28.7452 44.8883 28.5114C45.2334 28.2665 45.4895 27.9047 45.6565 27.4259H47.4601C47.3599 27.8935 47.1873 28.311 46.9424 28.6784C46.6975 29.0458 46.4024 29.3576 46.0573 29.6136C45.7122 29.8586 45.3225 30.0423 44.8883 30.1647C44.4652 30.2983 44.0199 30.3651 43.5523 30.3651C42.8732 30.3651 42.272 30.2538 41.7487 30.0311C41.2254 29.8085 40.7801 29.4967 40.4127 29.0959C40.0564 28.6951 39.7837 28.2164 39.5944 27.6597C39.4163 27.1031 39.3272 26.4907 39.3272 25.8227C39.3272 25.2104 39.4218 24.6315 39.6111 24.0859C39.8115 23.5293 40.0898 23.045 40.4461 22.633C40.8135 22.21 41.2533 21.876 41.7654 21.631C42.2775 21.3861 42.8565 21.2636 43.5022 21.2636C44.1813 21.2636 44.7881 21.4084 45.3225 21.6978C45.868 21.9762 46.3189 22.3491 46.6752 22.8167C47.0315 23.2843 47.2875 23.8243 47.4434 24.4366C47.6104 25.0378 47.6549 25.6613 47.577 26.307H41.231ZM48.2394 18.2075H50.1432V24.9877L53.5834 21.4974H55.9214L52.6148 24.6704L56.2387 30.1313H53.9174L51.2788 25.9396L50.1432 27.0418V30.1313H48.2394V18.2075ZM56.3741 18.2075H58.2779V30.1313H56.3741V18.2075ZM58.5653 21.4974H60.6528L62.9073 27.9436H62.9407L65.1284 21.4974H67.1157L63.759 30.5989C63.6032 30.9886 63.4473 31.3616 63.2914 31.7178C63.1467 32.0741 62.963 32.3858 62.7403 32.653C62.5288 32.9314 62.2616 33.1485 61.9387 33.3043C61.6159 33.4713 61.2039 33.5548 60.7029 33.5548C60.2576 33.5548 59.8178 33.5214 59.3836 33.4546V31.8514C59.5395 31.8737 59.6898 31.896 59.8345 31.9182C59.9793 31.9516 60.1296 31.9683 60.2854 31.9683C60.5081 31.9683 60.6918 31.9405 60.8365 31.8848C60.9813 31.8292 61.0982 31.7457 61.1872 31.6343C61.2874 31.5341 61.3709 31.4117 61.4377 31.2669C61.5045 31.1222 61.5658 30.9552 61.6214 30.7659L61.8385 30.0979L58.5653 21.4974ZM72.7917 26.1567C72.7917 26.6132 72.8696 27.0029 73.0255 27.3257C73.1813 27.6486 73.3984 27.9158 73.6768 28.1273C73.9551 28.3277 74.2724 28.478 74.6287 28.5782C74.9961 28.6673 75.3913 28.7118 75.8144 28.7118C76.2708 28.7118 76.6605 28.6617 76.9834 28.5615C77.3062 28.4502 77.5679 28.311 77.7683 28.144C77.9687 27.977 78.1134 27.7878 78.2025 27.5762C78.2915 27.3536 78.3361 27.1309 78.3361 26.9082C78.3361 26.4518 78.2303 26.1178 78.0188 25.9062C77.8184 25.6836 77.5957 25.5277 77.3508 25.4386C76.9277 25.2828 76.4323 25.138 75.8645 25.0044C75.3078 24.8597 74.6175 24.676 73.7937 24.4533C73.2815 24.3197 72.8529 24.1472 72.5078 23.9356C72.1738 23.713 71.9066 23.468 71.7062 23.2008C71.5058 22.9336 71.361 22.6497 71.272 22.3491C71.194 22.0485 71.1551 21.7424 71.1551 21.4306C71.1551 20.8294 71.2775 20.3117 71.5225 19.8775C71.7785 19.4322 72.1125 19.0648 72.5245 18.7753C72.9364 18.4859 73.404 18.2743 73.9273 18.1407C74.4505 17.996 74.9794 17.9236 75.5138 17.9236C76.1372 17.9236 76.7217 18.0071 77.2673 18.1741C77.8239 18.33 78.3082 18.5694 78.7202 18.8922C79.1432 19.2151 79.4772 19.6159 79.7222 20.0946C79.9671 20.5622 80.0896 21.1078 80.0896 21.7312H78.0021C77.9464 20.963 77.6848 20.4231 77.2172 20.1113C76.7496 19.7885 76.1539 19.627 75.4303 19.627C75.1853 19.627 74.9348 19.6549 74.6788 19.7105C74.4227 19.7551 74.1889 19.8386 73.9774 19.961C73.7658 20.0724 73.5877 20.2282 73.443 20.4286C73.3094 20.629 73.2426 20.8795 73.2426 21.1801C73.2426 21.6032 73.3706 21.9372 73.6267 22.1821C73.8939 22.4159 74.239 22.5941 74.6621 22.7165C74.7066 22.7277 74.8792 22.7778 75.1798 22.8668C75.4915 22.9448 75.8366 23.0338 76.2152 23.134C76.5937 23.2342 76.9611 23.3344 77.3174 23.4346C77.6848 23.5237 77.9464 23.5905 78.1023 23.635C78.4919 23.7575 78.8315 23.9245 79.121 24.136C79.4104 24.3476 79.6498 24.5925 79.8391 24.8708C80.0395 25.138 80.1842 25.4275 80.2733 25.7392C80.3735 26.051 80.4236 26.3627 80.4236 26.6744C80.4236 27.3424 80.2844 27.9158 80.0061 28.3945C79.7389 28.8621 79.3826 29.2462 78.9373 29.5468C78.4919 29.8474 77.9854 30.0645 77.4176 30.1981C76.8498 30.3429 76.2708 30.4152 75.6808 30.4152C75.0016 30.4152 74.3615 30.3317 73.7603 30.1647C73.1591 29.9977 72.6358 29.7417 72.1905 29.3965C71.7451 29.0514 71.3889 28.6116 71.1217 28.0772C70.8545 27.5317 70.7153 26.8915 70.7042 26.1567H72.7917ZM88.3801 28.2108C88.3801 28.4446 88.4079 28.6116 88.4636 28.7118C88.5304 28.812 88.6528 28.8621 88.831 28.8621C88.8866 28.8621 88.9534 28.8621 89.0314 28.8621C89.1093 28.8621 89.1984 28.851 89.2986 28.8287V30.148C89.2318 30.1703 89.1427 30.1926 89.0314 30.2148C88.9312 30.2482 88.8254 30.2761 88.7141 30.2983C88.6027 30.3206 88.4914 30.3373 88.3801 30.3484C88.2687 30.3596 88.1741 30.3651 88.0962 30.3651C87.7065 30.3651 87.3836 30.2872 87.1276 30.1313C86.8715 29.9755 86.7045 29.7027 86.6266 29.313C86.248 29.6804 85.7804 29.9476 85.2238 30.1146C84.6782 30.2816 84.1494 30.3651 83.6373 30.3651C83.2476 30.3651 82.8746 30.3095 82.5184 30.1981C82.1621 30.0979 81.8448 29.9476 81.5665 29.7472C81.2993 29.5357 81.0822 29.2741 80.9152 28.9623C80.7593 28.6395 80.6814 28.2665 80.6814 27.8434C80.6814 27.309 80.776 26.8748 80.9653 26.5408C81.1657 26.2068 81.4217 25.9452 81.7335 25.7559C82.0563 25.5667 82.4126 25.4331 82.8023 25.3551C83.2031 25.2661 83.6039 25.1993 84.0047 25.1547C84.3498 25.0879 84.6782 25.0434 84.99 25.0211C85.3017 24.9877 85.5745 24.9376 85.8083 24.8708C86.0532 24.804 86.2425 24.7038 86.3761 24.5702C86.5208 24.4255 86.5932 24.214 86.5932 23.9356C86.5932 23.6907 86.5319 23.4903 86.4095 23.3344C86.2981 23.1786 86.1534 23.0617 85.9753 22.9837C85.8083 22.8947 85.619 22.839 85.4075 22.8167C85.1959 22.7833 84.9955 22.7666 84.8063 22.7666C84.2719 22.7666 83.8321 22.878 83.487 23.1006C83.1418 23.3233 82.947 23.6684 82.9025 24.136H80.9987C81.0321 23.5794 81.1657 23.1173 81.3995 22.7499C81.6333 22.3825 81.9283 22.0875 82.2846 21.8648C82.652 21.6422 83.0639 21.4863 83.5204 21.3972C83.9768 21.3082 84.4444 21.2636 84.9232 21.2636C85.3462 21.2636 85.7637 21.3082 86.1757 21.3972C86.5876 21.4863 86.955 21.631 87.2779 21.8314C87.6119 22.0318 87.8791 22.2935 88.0795 22.6163C88.2799 22.9281 88.3801 23.3122 88.3801 23.7686V28.2108ZM86.4763 25.806C86.1868 25.9953 85.8305 26.1122 85.4075 26.1567C84.9844 26.1901 84.5613 26.2458 84.1383 26.3237C83.9379 26.3571 83.743 26.4072 83.5538 26.474C83.3645 26.5297 83.1975 26.6132 83.0528 26.7245C82.908 26.8247 82.7911 26.9639 82.7021 27.142C82.6241 27.309 82.5852 27.515 82.5852 27.7599C82.5852 27.9715 82.6464 28.1496 82.7689 28.2943C82.8913 28.4391 83.0361 28.556 83.2031 28.645C83.3812 28.723 83.5705 28.7786 83.7709 28.812C83.9824 28.8454 84.1717 28.8621 84.3387 28.8621C84.5502 28.8621 84.7784 28.8343 85.0234 28.7786C85.2683 28.723 85.4965 28.6283 85.7081 28.4947C85.9307 28.3611 86.1144 28.1941 86.2592 27.9937C86.4039 27.7822 86.4763 27.5261 86.4763 27.2255V25.806ZM88.7419 21.4974H90.8127L93.0004 28.1273H93.0338L95.138 21.4974H97.1086L94.0191 30.1313H91.8815L88.7419 21.4974ZM97.4685 18.2075H99.3723V20.0111H97.4685V18.2075ZM97.4685 21.4974H99.3723V30.1313H97.4685V21.4974ZM100.612 21.4974H102.415V22.7666L102.449 22.8C102.738 22.3213 103.117 21.9483 103.584 21.6811C104.052 21.4028 104.57 21.2636 105.137 21.2636C106.084 21.2636 106.83 21.5086 107.375 21.9984C107.921 22.4883 108.193 23.2231 108.193 24.2028V30.1313H106.29V24.7038C106.267 24.0247 106.123 23.5348 105.855 23.2342C105.588 22.9225 105.171 22.7666 104.603 22.7666C104.28 22.7666 103.991 22.8279 103.735 22.9503C103.478 23.0617 103.261 23.2231 103.083 23.4346C102.905 23.635 102.766 23.8744 102.666 24.1527C102.566 24.4311 102.515 24.7261 102.515 25.0378V30.1313H100.612V21.4974ZM117.349 29.6804C117.349 30.983 116.981 31.9516 116.246 32.5862C115.523 33.232 114.476 33.5548 113.107 33.5548C112.673 33.5548 112.233 33.5103 111.788 33.4212C111.353 33.3322 110.953 33.1819 110.585 32.9703C110.229 32.7588 109.928 32.4805 109.683 32.1353C109.438 31.7902 109.294 31.3671 109.249 30.8661H111.153C111.209 31.1333 111.303 31.3504 111.437 31.5174C111.57 31.6844 111.726 31.8125 111.904 31.9015C112.094 32.0017 112.3 32.063 112.522 32.0852C112.745 32.1186 112.979 32.1353 113.224 32.1353C113.992 32.1353 114.554 31.9461 114.91 31.5675C115.267 31.189 115.445 30.6435 115.445 29.9309V28.6116H115.411C115.144 29.0904 114.777 29.4633 114.309 29.7305C113.853 29.9977 113.357 30.1313 112.823 30.1313C112.133 30.1313 111.543 30.0144 111.053 29.7806C110.574 29.5357 110.173 29.2073 109.85 28.7953C109.539 28.3723 109.31 27.888 109.166 27.3424C109.021 26.7969 108.949 26.2124 108.949 25.5889C108.949 25.01 109.038 24.4589 109.216 23.9356C109.394 23.4124 109.65 22.9559 109.984 22.5662C110.318 22.1654 110.724 21.8481 111.203 21.6143C111.693 21.3805 112.244 21.2636 112.856 21.2636C113.402 21.2636 113.903 21.3805 114.359 21.6143C114.816 21.837 115.167 22.1933 115.411 22.6831H115.445V21.4974H117.349V29.6804ZM113.124 28.6283C113.547 28.6283 113.903 28.5448 114.192 28.3778C114.493 28.1997 114.732 27.9715 114.91 27.6931C115.1 27.4037 115.233 27.0808 115.311 26.7245C115.4 26.3571 115.445 25.9897 115.445 25.6223C115.445 25.2549 115.4 24.8987 115.311 24.5535C115.222 24.2084 115.083 23.9022 114.894 23.635C114.716 23.3678 114.476 23.1563 114.176 23.0004C113.886 22.8446 113.536 22.7666 113.124 22.7666C112.701 22.7666 112.344 22.8557 112.055 23.0338C111.765 23.212 111.532 23.4458 111.353 23.7352C111.175 24.0136 111.047 24.3364 110.969 24.7038C110.891 25.0601 110.852 25.4164 110.852 25.7726C110.852 26.1289 110.897 26.4796 110.986 26.8247C111.075 27.1587 111.209 27.4593 111.387 27.7265C111.576 27.9937 111.81 28.2108 112.088 28.3778C112.378 28.5448 112.723 28.6283 113.124 28.6283ZM119.867 27.3591C119.922 27.9158 120.134 28.3055 120.501 28.5281C120.869 28.7508 121.308 28.8621 121.821 28.8621C121.999 28.8621 122.199 28.851 122.422 28.8287C122.656 28.7953 122.873 28.7397 123.073 28.6617C123.273 28.5838 123.435 28.4725 123.557 28.3277C123.691 28.1719 123.752 27.9715 123.741 27.7265C123.73 27.4816 123.641 27.2812 123.474 27.1253C123.307 26.9695 123.09 26.847 122.823 26.7579C122.566 26.6577 122.271 26.5742 121.937 26.5074C121.603 26.4406 121.264 26.3683 120.919 26.2903C120.562 26.2124 120.217 26.1178 119.883 26.0064C119.56 25.8951 119.265 25.7448 118.998 25.5555C118.742 25.3663 118.536 25.1269 118.38 24.8374C118.224 24.5368 118.147 24.1694 118.147 23.7352C118.147 23.2676 118.258 22.878 118.481 22.5662C118.714 22.2434 119.004 21.9873 119.349 21.798C119.705 21.5976 120.095 21.4585 120.518 21.3805C120.952 21.3026 121.364 21.2636 121.754 21.2636C122.199 21.2636 122.622 21.3137 123.023 21.4139C123.435 21.503 123.802 21.6533 124.125 21.8648C124.459 22.0764 124.732 22.3547 124.943 22.6998C125.166 23.0338 125.305 23.4402 125.361 23.9189H123.374C123.285 23.4625 123.073 23.1563 122.739 23.0004C122.416 22.8446 122.043 22.7666 121.62 22.7666C121.487 22.7666 121.325 22.7778 121.136 22.8C120.958 22.8223 120.785 22.8668 120.618 22.9336C120.462 22.9893 120.329 23.0784 120.217 23.2008C120.106 23.3122 120.05 23.4625 120.05 23.6517C120.05 23.8855 120.128 24.0748 120.284 24.2195C120.451 24.3643 120.663 24.4867 120.919 24.5869C121.186 24.676 121.487 24.7539 121.821 24.8207C122.155 24.8875 122.5 24.9599 122.856 25.0378C123.201 25.1158 123.541 25.2104 123.875 25.3217C124.209 25.4331 124.504 25.5834 124.76 25.7726C125.027 25.9619 125.238 26.2013 125.394 26.4907C125.561 26.7802 125.645 27.1365 125.645 27.5595C125.645 28.0717 125.528 28.5059 125.294 28.8621C125.06 29.2184 124.754 29.5079 124.376 29.7305C124.008 29.9532 123.596 30.1146 123.14 30.2148C122.683 30.315 122.232 30.3651 121.787 30.3651C121.242 30.3651 120.735 30.3039 120.267 30.1814C119.811 30.059 119.41 29.8753 119.065 29.6303C118.731 29.3743 118.464 29.0625 118.263 28.6951C118.074 28.3166 117.974 27.8713 117.963 27.3591H119.867Z" fill="#293F55"/>
<rect x="18.7875" y="132.556" width="215.012" height="31.3125" rx="8.35" fill="#72ADFD"/>
<path d="M29.1331 144.095H35.571V145.447H30.6988V147.79H35.2078V149.067H30.6988V151.685H35.6587V153.038H29.1331V144.095ZM36.1958 146.562H37.5485V147.514L37.5735 147.539C37.7906 147.18 38.0745 146.9 38.4252 146.7C38.7759 146.491 39.1642 146.387 39.5901 146.387C40.2998 146.387 40.8593 146.571 41.2684 146.938C41.6776 147.305 41.8821 147.856 41.8821 148.591V153.038H40.4543V148.967C40.4376 148.458 40.329 148.09 40.1286 147.865C39.9282 147.631 39.6151 147.514 39.1893 147.514C38.9471 147.514 38.73 147.56 38.538 147.652C38.3459 147.735 38.1831 147.856 38.0495 148.015C37.9159 148.165 37.8115 148.345 37.7364 148.554C37.6612 148.762 37.6236 148.984 37.6236 149.217V153.038H36.1958V146.562ZM42.1103 146.562H43.1875V144.621H44.6153V146.562H45.9054V147.627H44.6153V151.084C44.6153 151.234 44.6195 151.363 44.6278 151.472C44.6445 151.581 44.6738 151.672 44.7155 151.748C44.7656 151.823 44.8366 151.881 44.9284 151.923C45.0203 151.956 45.1455 151.973 45.3042 151.973C45.4044 151.973 45.5046 151.973 45.6048 151.973C45.705 151.965 45.8052 151.948 45.9054 151.923V153.025C45.7467 153.042 45.5923 153.058 45.442 153.075C45.2917 153.092 45.1372 153.1 44.9785 153.1C44.6028 153.1 44.298 153.067 44.0642 153C43.8388 152.925 43.6592 152.82 43.5256 152.687C43.4004 152.545 43.3127 152.37 43.2626 152.161C43.2209 151.952 43.1958 151.714 43.1875 151.447V147.627H42.1103V146.562ZM50.7527 149.23C50.736 149.005 50.6859 148.787 50.6024 148.579C50.5272 148.37 50.4187 148.19 50.2767 148.04C50.1431 147.881 49.9761 147.756 49.7757 147.664C49.5837 147.564 49.3666 147.514 49.1244 147.514C48.8739 147.514 48.6443 147.56 48.4355 147.652C48.2351 147.735 48.0598 147.856 47.9095 148.015C47.7675 148.165 47.6506 148.345 47.5588 148.554C47.4753 148.762 47.4294 148.988 47.421 149.23H50.7527ZM47.421 150.169C47.421 150.42 47.4544 150.662 47.5212 150.896C47.5964 151.13 47.7049 151.334 47.8469 151.51C47.9888 151.685 48.1683 151.827 48.3854 151.935C48.6025 152.036 48.8614 152.086 49.162 152.086C49.5795 152.086 49.9135 151.998 50.164 151.823C50.4228 151.639 50.6149 151.368 50.7401 151.009H52.0928C52.0177 151.359 51.8883 151.672 51.7046 151.948C51.5209 152.223 51.2996 152.457 51.0407 152.649C50.7819 152.833 50.4896 152.971 50.164 153.063C49.8467 153.163 49.5127 153.213 49.162 153.213C48.6526 153.213 48.2017 153.129 47.8093 152.962C47.4168 152.795 47.0828 152.562 46.8073 152.261C46.5401 151.96 46.3355 151.601 46.1936 151.184C46.06 150.766 45.9932 150.307 45.9932 149.806C45.9932 149.347 46.0641 148.913 46.2061 148.504C46.3564 148.086 46.5651 147.723 46.8323 147.414C47.1079 147.097 47.4377 146.846 47.8218 146.662C48.2059 146.479 48.6401 146.387 49.1244 146.387C49.6338 146.387 50.0888 146.495 50.4896 146.712C50.8988 146.921 51.237 147.201 51.5042 147.552C51.7714 147.902 51.9634 148.307 52.0803 148.767C52.2056 149.217 52.239 149.685 52.1805 150.169H47.421ZM52.6397 146.562H53.9799V147.815H54.005C54.0467 147.639 54.126 147.468 54.2429 147.301C54.3682 147.134 54.5143 146.984 54.6813 146.85C54.8567 146.708 55.0487 146.596 55.2575 146.512C55.4662 146.429 55.6791 146.387 55.8962 146.387C56.0632 146.387 56.176 146.391 56.2344 146.399C56.3012 146.408 56.368 146.416 56.4348 146.424V147.802C56.3346 147.785 56.2302 147.773 56.1217 147.765C56.0215 147.748 55.9213 147.74 55.8211 147.74C55.5789 147.74 55.3493 147.79 55.1322 147.89C54.9235 147.982 54.7398 148.124 54.5811 148.316C54.4225 148.499 54.2972 148.729 54.2054 149.005C54.1135 149.28 54.0676 149.597 54.0676 149.956V153.038H52.6397V146.562ZM64.6998 151.597C64.6998 151.773 64.7207 151.898 64.7625 151.973C64.8126 152.048 64.9044 152.086 65.038 152.086C65.0798 152.086 65.1299 152.086 65.1883 152.086C65.2468 152.086 65.3136 152.077 65.3887 152.061V153.05C65.3386 153.067 65.2718 153.084 65.1883 153.1C65.1132 153.125 65.0338 153.146 64.9503 153.163C64.8668 153.18 64.7833 153.192 64.6998 153.2C64.6163 153.209 64.5454 153.213 64.4869 153.213C64.1947 153.213 63.9525 153.154 63.7605 153.038C63.5684 152.921 63.4432 152.716 63.3847 152.424C63.1008 152.699 62.7501 152.9 62.3326 153.025C61.9235 153.15 61.5268 153.213 61.1427 153.213C60.8505 153.213 60.5708 153.171 60.3036 153.088C60.0364 153.013 59.7984 152.9 59.5896 152.75C59.3892 152.591 59.2264 152.395 59.1012 152.161C58.9843 151.919 58.9258 151.639 58.9258 151.322C58.9258 150.921 58.9968 150.595 59.1387 150.345C59.289 150.094 59.4811 149.898 59.7149 149.756C59.957 149.614 60.2242 149.514 60.5165 149.455C60.8171 149.389 61.1177 149.339 61.4183 149.305C61.6771 149.255 61.9235 149.222 62.1573 149.205C62.3911 149.18 62.5956 149.142 62.771 149.092C62.9547 149.042 63.0966 148.967 63.1968 148.867C63.3054 148.758 63.3597 148.6 63.3597 148.391C63.3597 148.207 63.3137 148.057 63.2219 147.94C63.1384 147.823 63.0298 147.735 62.8962 147.677C62.771 147.61 62.629 147.568 62.4704 147.552C62.3117 147.527 62.1614 147.514 62.0195 147.514C61.6187 147.514 61.2889 147.598 61.03 147.765C60.7712 147.932 60.625 148.19 60.5916 148.541H59.1638C59.1888 148.124 59.289 147.777 59.4644 147.502C59.6397 147.226 59.861 147.005 60.1282 146.838C60.4038 146.671 60.7127 146.554 61.0551 146.487C61.3974 146.42 61.7481 146.387 62.1072 146.387C62.4245 146.387 62.7376 146.42 63.0465 146.487C63.3555 146.554 63.631 146.662 63.8732 146.813C64.1237 146.963 64.3241 147.159 64.4744 147.401C64.6247 147.635 64.6998 147.923 64.6998 148.266V151.597ZM63.272 149.794C63.0549 149.936 62.7877 150.023 62.4704 150.057C62.1531 150.082 61.8358 150.123 61.5185 150.182C61.3682 150.207 61.2221 150.245 61.0801 150.295C60.9382 150.336 60.8129 150.399 60.7044 150.482C60.5958 150.558 60.5081 150.662 60.4413 150.796C60.3829 150.921 60.3537 151.075 60.3537 151.259C60.3537 151.418 60.3996 151.551 60.4914 151.66C60.5833 151.768 60.6918 151.856 60.8171 151.923C60.9507 151.981 61.0926 152.023 61.2429 152.048C61.4016 152.073 61.5435 152.086 61.6688 152.086C61.8274 152.086 61.9986 152.065 62.1823 152.023C62.366 151.981 62.5372 151.91 62.6958 151.81C62.8628 151.71 63.0006 151.585 63.1092 151.434C63.2177 151.276 63.272 151.084 63.272 150.858V149.794ZM65.61 146.562H66.9627V147.464H67.0002C67.1088 147.305 67.2257 147.159 67.3509 147.026C67.4762 146.892 67.614 146.779 67.7643 146.687C67.9229 146.596 68.1024 146.525 68.3028 146.474C68.5032 146.416 68.7329 146.387 68.9917 146.387C69.3842 146.387 69.7474 146.474 70.0814 146.65C70.4237 146.825 70.6659 147.097 70.8078 147.464C71.05 147.13 71.3297 146.867 71.647 146.675C71.9643 146.483 72.3609 146.387 72.8369 146.387C73.5216 146.387 74.0518 146.554 74.4276 146.888C74.8117 147.222 75.0037 147.781 75.0037 148.566V153.038H73.5759V149.255C73.5759 148.996 73.5675 148.762 73.5508 148.554C73.5341 148.337 73.484 148.153 73.4005 148.003C73.3254 147.844 73.2085 147.723 73.0498 147.639C72.8912 147.556 72.6741 147.514 72.3985 147.514C71.9142 147.514 71.5635 147.664 71.3464 147.965C71.1293 148.266 71.0208 148.691 71.0208 149.243V153.038H69.5929V148.879C69.5929 148.428 69.5094 148.09 69.3424 147.865C69.1838 147.631 68.8873 147.514 68.4531 147.514C68.2694 147.514 68.0899 147.552 67.9146 147.627C67.7476 147.702 67.5973 147.81 67.4637 147.952C67.3384 148.094 67.234 148.27 67.1505 148.478C67.0754 148.687 67.0378 148.925 67.0378 149.192V153.038H65.61V146.562ZM78.8503 153.213C78.3326 153.213 77.8692 153.129 77.4601 152.962C77.0593 152.787 76.7169 152.549 76.433 152.249C76.1575 151.948 75.9445 151.589 75.7942 151.171C75.6523 150.754 75.5813 150.295 75.5813 149.794C75.5813 149.301 75.6523 148.846 75.7942 148.428C75.9445 148.011 76.1575 147.652 76.433 147.351C76.7169 147.051 77.0593 146.817 77.4601 146.65C77.8692 146.474 78.3326 146.387 78.8503 146.387C79.3681 146.387 79.8273 146.474 80.2281 146.65C80.6373 146.817 80.9796 147.051 81.2552 147.351C81.539 147.652 81.752 148.011 81.8939 148.428C82.0442 148.846 82.1194 149.301 82.1194 149.794C82.1194 150.295 82.0442 150.754 81.8939 151.171C81.752 151.589 81.539 151.948 81.2552 152.249C80.9796 152.549 80.6373 152.787 80.2281 152.962C79.8273 153.129 79.3681 153.213 78.8503 153.213ZM78.8503 152.086C79.1676 152.086 79.4432 152.019 79.677 151.885C79.9108 151.752 80.1029 151.576 80.2531 151.359C80.4034 151.142 80.512 150.9 80.5788 150.633C80.654 150.357 80.6915 150.078 80.6915 149.794C80.6915 149.518 80.654 149.243 80.5788 148.967C80.512 148.691 80.4034 148.449 80.2531 148.241C80.1029 148.023 79.9108 147.848 79.677 147.714C79.4432 147.581 79.1676 147.514 78.8503 147.514C78.533 147.514 78.2575 147.581 78.0237 147.714C77.7899 147.848 77.5978 148.023 77.4475 148.241C77.2972 148.449 77.1845 148.691 77.1094 148.967C77.0426 149.243 77.0092 149.518 77.0092 149.794C77.0092 150.078 77.0426 150.357 77.1094 150.633C77.1845 150.9 77.2972 151.142 77.4475 151.359C77.5978 151.576 77.7899 151.752 78.0237 151.885C78.2575 152.019 78.533 152.086 78.8503 152.086ZM88.3665 153.038H86.9637V152.136H86.9387C86.7633 152.461 86.5003 152.724 86.1496 152.925C85.8072 153.117 85.4565 153.213 85.0975 153.213C84.2458 153.213 83.6279 153.004 83.2438 152.587C82.868 152.161 82.6802 151.522 82.6802 150.67V146.562H84.108V150.533C84.108 151.1 84.2166 151.501 84.4337 151.735C84.6508 151.969 84.9555 152.086 85.348 152.086C85.6486 152.086 85.8991 152.04 86.0995 151.948C86.2999 151.856 86.4627 151.735 86.588 151.585C86.7132 151.426 86.8009 151.238 86.851 151.021C86.9094 150.804 86.9387 150.57 86.9387 150.32V146.562H88.3665V153.038ZM89.246 146.562H90.5987V147.514L90.6238 147.539C90.8409 147.18 91.1248 146.9 91.4755 146.7C91.8262 146.491 92.2144 146.387 92.6403 146.387C93.35 146.387 93.9095 146.571 94.3186 146.938C94.7278 147.305 94.9324 147.856 94.9324 148.591V153.038H93.5045V148.967C93.4878 148.458 93.3793 148.09 93.1789 147.865C92.9785 147.631 92.6653 147.514 92.2395 147.514C91.9973 147.514 91.7802 147.56 91.5882 147.652C91.3961 147.735 91.2333 147.856 91.0997 148.015C90.9661 148.165 90.8617 148.345 90.7866 148.554C90.7114 148.762 90.6739 148.984 90.6739 149.217V153.038H89.246V146.562ZM95.1605 146.562H96.2377V144.621H97.6655V146.562H98.9556V147.627H97.6655V151.084C97.6655 151.234 97.6697 151.363 97.6781 151.472C97.6948 151.581 97.724 151.672 97.7657 151.748C97.8158 151.823 97.8868 151.881 97.9787 151.923C98.0705 151.956 98.1958 151.973 98.3544 151.973C98.4546 151.973 98.5548 151.973 98.655 151.973C98.7552 151.965 98.8554 151.948 98.9556 151.923V153.025C98.797 153.042 98.6425 153.058 98.4922 153.075C98.3419 153.092 98.1874 153.1 98.0288 153.1C97.653 153.1 97.3482 153.067 97.1144 153C96.889 152.925 96.7095 152.82 96.5759 152.687C96.4506 152.545 96.3629 152.37 96.3128 152.161C96.2711 151.952 96.246 151.714 96.2377 151.447V147.627H95.1605V146.562Z" fill="white" fill-opacity="0.5"/>
<path d="M177.5 141.133C178.892 141.133 179.984 141.39 180.777 141.905C181.571 142.42 182.107 143.151 182.385 144.097H183.95V145.224H182.594C182.608 145.35 182.614 145.475 182.614 145.6C182.628 145.725 182.635 145.851 182.635 145.976C182.635 146.157 182.628 146.345 182.614 146.539C182.601 146.72 182.58 146.901 182.552 147.082H183.95V148.209H182.26C182.051 148.78 181.731 149.288 181.299 149.733C180.868 150.179 180.311 150.534 179.629 150.798C178.947 151.048 178.119 151.174 177.145 151.174H175.976V156.038H174.244V148.209H172.427V147.082H174.244V145.224H172.427V144.097H174.244V141.133H177.5ZM180.318 148.209H175.976V149.629H177.041C177.862 149.629 178.544 149.518 179.087 149.295C179.629 149.072 180.04 148.71 180.318 148.209ZM180.736 145.224H175.976V147.082H180.715C180.743 146.929 180.764 146.769 180.777 146.602C180.791 146.421 180.798 146.24 180.798 146.059C180.798 145.906 180.791 145.767 180.777 145.642C180.777 145.503 180.764 145.364 180.736 145.224ZM177.437 142.678H175.976V144.097H180.381C180.13 143.624 179.762 143.269 179.274 143.032C178.787 142.796 178.175 142.678 177.437 142.678Z" fill="white"/>
<path d="M191.486 141.425H199.043V143.554H193.261L192.509 147.27L192.551 147.312C192.871 146.95 193.275 146.679 193.762 146.498C194.263 146.303 194.757 146.205 195.244 146.205C195.968 146.205 196.615 146.331 197.185 146.581C197.756 146.818 198.236 147.159 198.626 147.604C199.015 148.036 199.308 148.55 199.502 149.149C199.711 149.747 199.815 150.394 199.815 151.09C199.815 151.675 199.718 152.28 199.523 152.906C199.342 153.519 199.043 154.082 198.626 154.597C198.222 155.098 197.7 155.516 197.06 155.85C196.42 156.17 195.654 156.33 194.764 156.33C194.054 156.33 193.393 156.232 192.781 156.038C192.182 155.857 191.653 155.578 191.194 155.203C190.735 154.827 190.366 154.368 190.088 153.825C189.823 153.268 189.677 152.621 189.649 151.883H192.029C192.099 152.677 192.37 153.289 192.843 153.72C193.316 154.138 193.943 154.347 194.722 154.347C195.223 154.347 195.647 154.263 195.995 154.096C196.343 153.929 196.622 153.7 196.83 153.407C197.053 153.115 197.206 152.774 197.29 152.384C197.387 151.995 197.436 151.577 197.436 151.132C197.436 150.728 197.38 150.346 197.269 149.984C197.157 149.608 196.99 149.281 196.768 149.003C196.545 148.724 196.253 148.502 195.891 148.335C195.543 148.168 195.133 148.084 194.659 148.084C194.158 148.084 193.685 148.182 193.24 148.376C192.808 148.557 192.495 148.905 192.3 149.42H189.921L191.486 141.425ZM205.278 141.133C206.321 141.133 207.17 141.376 207.824 141.863C208.492 142.337 209.007 142.949 209.369 143.7C209.745 144.438 209.995 145.252 210.121 146.143C210.26 147.034 210.329 147.896 210.329 148.731C210.329 149.566 210.26 150.429 210.121 151.32C209.995 152.211 209.745 153.032 209.369 153.783C209.007 154.521 208.492 155.133 207.824 155.62C207.17 156.093 206.321 156.33 205.278 156.33C204.234 156.33 203.378 156.093 202.71 155.62C202.056 155.133 201.541 154.521 201.165 153.783C200.803 153.032 200.553 152.211 200.414 151.32C200.289 150.429 200.226 149.566 200.226 148.731C200.226 147.896 200.289 147.034 200.414 146.143C200.553 145.252 200.803 144.438 201.165 143.7C201.541 142.949 202.056 142.337 202.71 141.863C203.378 141.376 204.234 141.133 205.278 141.133ZM205.278 154.347C205.793 154.347 206.224 154.201 206.572 153.908C206.92 153.602 207.191 153.199 207.386 152.698C207.595 152.183 207.741 151.584 207.824 150.902C207.908 150.22 207.95 149.497 207.95 148.731C207.95 147.966 207.908 147.249 207.824 146.581C207.741 145.899 207.595 145.301 207.386 144.786C207.191 144.271 206.92 143.867 206.572 143.575C206.224 143.269 205.793 143.116 205.278 143.116C204.749 143.116 204.31 143.269 203.963 143.575C203.629 143.867 203.357 144.271 203.148 144.786C202.954 145.301 202.814 145.899 202.731 146.581C202.647 147.249 202.606 147.966 202.606 148.731C202.606 149.497 202.647 150.22 202.731 150.902C202.814 151.584 202.954 152.183 203.148 152.698C203.357 153.199 203.629 153.602 203.963 153.908C204.31 154.201 204.749 154.347 205.278 154.347ZM215.833 141.133C216.877 141.133 217.726 141.376 218.38 141.863C219.048 142.337 219.563 142.949 219.925 143.7C220.301 144.438 220.551 145.252 220.676 146.143C220.816 147.034 220.885 147.896 220.885 148.731C220.885 149.566 220.816 150.429 220.676 151.32C220.551 152.211 220.301 153.032 219.925 153.783C219.563 154.521 219.048 155.133 218.38 155.62C217.726 156.093 216.877 156.33 215.833 156.33C214.79 156.33 213.934 156.093 213.266 155.62C212.612 155.133 212.097 154.521 211.721 153.783C211.359 153.032 211.109 152.211 210.97 151.32C210.844 150.429 210.782 149.566 210.782 148.731C210.782 147.896 210.844 147.034 210.97 146.143C211.109 145.252 211.359 144.438 211.721 143.7C212.097 142.949 212.612 142.337 213.266 141.863C213.934 141.376 214.79 141.133 215.833 141.133ZM215.833 154.347C216.348 154.347 216.78 154.201 217.128 153.908C217.476 153.602 217.747 153.199 217.942 152.698C218.151 152.183 218.297 151.584 218.38 150.902C218.464 150.22 218.505 149.497 218.505 148.731C218.505 147.966 218.464 147.249 218.38 146.581C218.297 145.899 218.151 145.301 217.942 144.786C217.747 144.271 217.476 143.867 217.128 143.575C216.78 143.269 216.348 143.116 215.833 143.116C215.305 143.116 214.866 143.269 214.518 143.575C214.184 143.867 213.913 144.271 213.704 144.786C213.509 145.301 213.37 145.899 213.287 146.581C213.203 147.249 213.161 147.966 213.161 148.731C213.161 149.497 213.203 150.22 213.287 150.902C213.37 151.584 213.509 152.183 213.704 152.698C213.913 153.199 214.184 153.602 214.518 153.908C214.866 154.201 215.305 154.347 215.833 154.347Z" fill="white"/>
<g filter="url(#filter1_d_357_77)">
<rect x="55.3187" y="184.744" width="139.863" height="31.3125" rx="8.35" fill="white"/>
</g>
<path d="M113.66 202.244C113.66 202.586 113.719 202.879 113.836 203.121C113.952 203.363 114.115 203.563 114.324 203.722C114.533 203.872 114.771 203.985 115.038 204.06C115.313 204.127 115.61 204.16 115.927 204.16C116.27 204.16 116.562 204.123 116.804 204.048C117.046 203.964 117.242 203.86 117.393 203.735C117.543 203.609 117.651 203.467 117.718 203.309C117.785 203.142 117.818 202.975 117.818 202.808C117.818 202.465 117.739 202.215 117.581 202.056C117.43 201.889 117.263 201.772 117.08 201.706C116.762 201.589 116.391 201.48 115.965 201.38C115.547 201.271 115.03 201.134 114.412 200.967C114.028 200.866 113.706 200.737 113.447 200.578C113.197 200.411 112.996 200.228 112.846 200.027C112.696 199.827 112.587 199.614 112.52 199.388C112.462 199.163 112.433 198.933 112.433 198.7C112.433 198.249 112.525 197.86 112.708 197.535C112.9 197.201 113.151 196.925 113.46 196.708C113.769 196.491 114.119 196.332 114.512 196.232C114.904 196.124 115.301 196.069 115.702 196.069C116.169 196.069 116.608 196.132 117.017 196.257C117.434 196.374 117.798 196.554 118.107 196.796C118.424 197.038 118.674 197.339 118.858 197.698C119.042 198.048 119.134 198.457 119.134 198.925H117.568C117.526 198.349 117.33 197.944 116.979 197.71C116.629 197.468 116.182 197.347 115.639 197.347C115.455 197.347 115.268 197.368 115.076 197.409C114.883 197.443 114.708 197.506 114.549 197.597C114.391 197.681 114.257 197.798 114.149 197.948C114.048 198.098 113.998 198.286 113.998 198.512C113.998 198.829 114.094 199.079 114.286 199.263C114.487 199.439 114.746 199.572 115.063 199.664C115.096 199.672 115.226 199.71 115.451 199.777C115.685 199.835 115.944 199.902 116.228 199.977C116.512 200.052 116.787 200.127 117.054 200.203C117.33 200.269 117.526 200.319 117.643 200.353C117.935 200.445 118.19 200.57 118.407 200.729C118.624 200.887 118.804 201.071 118.946 201.28C119.096 201.48 119.205 201.697 119.271 201.931C119.347 202.165 119.384 202.399 119.384 202.632C119.384 203.133 119.28 203.563 119.071 203.922C118.871 204.273 118.603 204.561 118.269 204.787C117.935 205.012 117.555 205.175 117.13 205.275C116.704 205.384 116.27 205.438 115.827 205.438C115.318 205.438 114.838 205.375 114.387 205.25C113.936 205.125 113.543 204.933 113.209 204.674C112.875 204.415 112.608 204.085 112.408 203.685C112.207 203.275 112.103 202.795 112.095 202.244H113.66ZM125.351 203.785C125.351 203.96 125.372 204.085 125.414 204.16C125.464 204.236 125.556 204.273 125.69 204.273C125.731 204.273 125.782 204.273 125.84 204.273C125.898 204.273 125.965 204.265 126.04 204.248V205.238C125.99 205.254 125.923 205.271 125.84 205.288C125.765 205.313 125.685 205.334 125.602 205.35C125.518 205.367 125.435 205.38 125.351 205.388C125.268 205.396 125.197 205.4 125.139 205.4C124.846 205.4 124.604 205.342 124.412 205.225C124.22 205.108 124.095 204.904 124.036 204.611C123.752 204.887 123.402 205.087 122.984 205.213C122.575 205.338 122.178 205.4 121.794 205.4C121.502 205.4 121.222 205.359 120.955 205.275C120.688 205.2 120.45 205.087 120.241 204.937C120.041 204.778 119.878 204.582 119.753 204.348C119.636 204.106 119.577 203.826 119.577 203.509C119.577 203.108 119.648 202.783 119.79 202.532C119.941 202.282 120.133 202.085 120.367 201.944C120.609 201.802 120.876 201.701 121.168 201.643C121.469 201.576 121.769 201.526 122.07 201.493C122.329 201.443 122.575 201.409 122.809 201.392C123.043 201.367 123.247 201.33 123.423 201.28C123.606 201.23 123.748 201.154 123.848 201.054C123.957 200.946 124.011 200.787 124.011 200.578C124.011 200.395 123.965 200.244 123.874 200.127C123.79 200.011 123.681 199.923 123.548 199.864C123.423 199.798 123.281 199.756 123.122 199.739C122.963 199.714 122.813 199.702 122.671 199.702C122.27 199.702 121.941 199.785 121.682 199.952C121.423 200.119 121.277 200.378 121.243 200.729H119.815C119.84 200.311 119.941 199.965 120.116 199.689C120.291 199.413 120.513 199.192 120.78 199.025C121.055 198.858 121.364 198.741 121.707 198.675C122.049 198.608 122.4 198.574 122.759 198.574C123.076 198.574 123.389 198.608 123.698 198.675C124.007 198.741 124.283 198.85 124.525 199C124.775 199.15 124.976 199.347 125.126 199.589C125.276 199.823 125.351 200.111 125.351 200.453V203.785ZM123.924 201.981C123.707 202.123 123.439 202.211 123.122 202.244C122.805 202.269 122.487 202.311 122.17 202.369C122.02 202.394 121.874 202.432 121.732 202.482C121.59 202.524 121.465 202.586 121.356 202.67C121.247 202.745 121.16 202.85 121.093 202.983C121.035 203.108 121.005 203.263 121.005 203.447C121.005 203.605 121.051 203.739 121.143 203.847C121.235 203.956 121.343 204.044 121.469 204.11C121.602 204.169 121.744 204.211 121.895 204.236C122.053 204.261 122.195 204.273 122.32 204.273C122.479 204.273 122.65 204.252 122.834 204.211C123.018 204.169 123.189 204.098 123.347 203.998C123.514 203.897 123.652 203.772 123.761 203.622C123.869 203.463 123.924 203.271 123.924 203.046V201.981ZM125.623 198.75H127.176L128.817 203.722H128.842L130.42 198.75H131.898L129.581 205.225H127.978L125.623 198.75ZM136.577 201.417C136.56 201.192 136.51 200.975 136.426 200.766C136.351 200.557 136.243 200.378 136.101 200.228C135.967 200.069 135.8 199.944 135.6 199.852C135.408 199.752 135.191 199.702 134.948 199.702C134.698 199.702 134.468 199.747 134.26 199.839C134.059 199.923 133.884 200.044 133.733 200.203C133.592 200.353 133.475 200.532 133.383 200.741C133.299 200.95 133.253 201.175 133.245 201.417H136.577ZM133.245 202.357C133.245 202.607 133.278 202.85 133.345 203.083C133.42 203.317 133.529 203.522 133.671 203.697C133.813 203.872 133.992 204.014 134.209 204.123C134.427 204.223 134.685 204.273 134.986 204.273C135.403 204.273 135.737 204.186 135.988 204.01C136.247 203.826 136.439 203.555 136.564 203.196H137.917C137.842 203.547 137.712 203.86 137.529 204.135C137.345 204.411 137.124 204.645 136.865 204.837C136.606 205.021 136.314 205.158 135.988 205.25C135.671 205.35 135.337 205.4 134.986 205.4C134.477 205.4 134.026 205.317 133.633 205.15C133.241 204.983 132.907 204.749 132.631 204.449C132.364 204.148 132.159 203.789 132.018 203.371C131.884 202.954 131.817 202.495 131.817 201.994C131.817 201.534 131.888 201.1 132.03 200.691C132.18 200.274 132.389 199.91 132.656 199.601C132.932 199.284 133.262 199.034 133.646 198.85C134.03 198.666 134.464 198.574 134.948 198.574C135.458 198.574 135.913 198.683 136.314 198.9C136.723 199.109 137.061 199.388 137.328 199.739C137.595 200.09 137.787 200.495 137.904 200.954C138.03 201.405 138.063 201.873 138.004 202.357H133.245Z" fill="#9B9B9B"/>
<rect x="18.7875" y="86.6313" width="215.012" height="31.3125" rx="8.35" fill="#72ADFD"/>
<rect x="23.2234" y="92.111" width="50.6219" height="19.3094" rx="3.91406" stroke="white" stroke-width="0.521875"/>
<path d="M30.9868 97.9733C30.9868 98.2349 30.9646 98.4882 30.92 98.7331C30.8755 98.9781 30.7837 99.198 30.6445 99.3928C30.5109 99.5876 30.3133 99.7435 30.0516 99.8604C29.7956 99.9773 29.4532 100.036 29.0246 100.036C28.7073 100.036 28.4373 99.9884 28.2146 99.8938C27.992 99.7936 27.8083 99.66 27.6635 99.493C27.5188 99.3204 27.413 99.1172 27.3462 98.8834C27.2794 98.6496 27.246 98.3964 27.246 98.1236V97.8063H28.2898V98.1152C28.2898 98.4548 28.3455 98.7192 28.4568 98.9085C28.5737 99.0922 28.7908 99.184 29.1081 99.184C29.2751 99.184 29.4115 99.159 29.5172 99.1089C29.6286 99.0588 29.7149 98.9864 29.7761 98.8918C29.8429 98.7916 29.8874 98.6691 29.9097 98.5244C29.932 98.3797 29.9431 98.2154 29.9431 98.0317V93.9319H30.9868V97.9733ZM35.4968 99.8938H34.5616V99.2926H34.5449C34.428 99.5097 34.2526 99.685 34.0188 99.8186C33.7906 99.9467 33.5568 100.011 33.3174 100.011C32.7496 100.011 32.3377 99.8715 32.0816 99.5932C31.8311 99.3093 31.7059 98.8834 31.7059 98.3156V95.5768H32.6578V98.2238C32.6578 98.6023 32.7301 98.8695 32.8749 99.0254C33.0196 99.1813 33.2228 99.2592 33.4844 99.2592C33.6848 99.2592 33.8518 99.2286 33.9854 99.1673C34.119 99.1061 34.2276 99.0254 34.3111 98.9252C34.3946 98.8194 34.453 98.6942 34.4864 98.5494C34.5254 98.4047 34.5449 98.2488 34.5449 98.0818V95.5768H35.4968V99.8938ZM36.1081 93.9319H37.06V99.8938H36.1081V93.9319ZM37.2037 95.5768H38.2475L39.3747 98.7999H39.3914L40.4853 95.5768H41.4789L39.8006 100.128C39.7227 100.322 39.6447 100.509 39.5668 100.687C39.4944 100.865 39.4026 101.021 39.2912 101.155C39.1855 101.294 39.0519 101.402 38.8904 101.48C38.729 101.564 38.523 101.606 38.2725 101.606C38.0499 101.606 37.83 101.589 37.6129 101.555V100.754C37.6908 100.765 37.766 100.776 37.8383 100.787C37.9107 100.804 37.9859 100.812 38.0638 100.812C38.1751 100.812 38.267 100.798 38.3393 100.771C38.4117 100.743 38.4702 100.701 38.5147 100.645C38.5648 100.595 38.6065 100.534 38.6399 100.462C38.6733 100.389 38.704 100.306 38.7318 100.211L38.8403 99.8771L37.2037 95.5768ZM31.4544 108.894H27.4631C27.4687 108.409 27.5856 107.986 27.8138 107.625C28.0421 107.263 28.3538 106.948 28.749 106.681C28.9383 106.542 29.1359 106.408 29.3419 106.28C29.5479 106.147 29.7371 106.005 29.9097 105.854C30.0823 105.704 30.2242 105.543 30.3355 105.37C30.4469 105.192 30.5053 104.989 30.5109 104.761C30.5109 104.655 30.497 104.543 30.4691 104.427C30.4469 104.304 30.3996 104.193 30.3272 104.093C30.2548 103.987 30.1546 103.9 30.0266 103.834C29.8986 103.761 29.7316 103.725 29.5256 103.725C29.3363 103.725 29.1777 103.764 29.0496 103.842C28.9272 103.914 28.827 104.017 28.749 104.151C28.6767 104.279 28.621 104.432 28.582 104.61C28.5486 104.788 28.5292 104.98 28.5236 105.186H27.5717C27.5717 104.864 27.6134 104.566 27.6969 104.293C27.786 104.015 27.9168 103.775 28.0894 103.575C28.262 103.374 28.4707 103.219 28.7156 103.107C28.9661 102.99 29.2556 102.932 29.584 102.932C29.9403 102.932 30.2381 102.99 30.4775 103.107C30.7169 103.224 30.9089 103.372 31.0536 103.55C31.2039 103.728 31.3097 103.923 31.3709 104.134C31.4322 104.34 31.4628 104.538 31.4628 104.727C31.4628 104.961 31.4266 105.172 31.3542 105.362C31.2819 105.551 31.1845 105.726 31.062 105.888C30.9395 106.044 30.8004 106.188 30.6445 106.322C30.4886 106.456 30.3272 106.581 30.1602 106.698C29.9932 106.815 29.8262 106.926 29.6592 107.032C29.4922 107.138 29.3363 107.243 29.1916 107.349C29.0524 107.455 28.93 107.566 28.8242 107.683C28.7184 107.794 28.6461 107.914 28.6071 108.042H31.4544V108.894ZM33.6811 102.932C34.0986 102.932 34.4382 103.029 34.6998 103.224C34.967 103.413 35.173 103.658 35.3177 103.959C35.468 104.254 35.5682 104.58 35.6183 104.936C35.674 105.292 35.7018 105.637 35.7018 105.971C35.7018 106.305 35.674 106.65 35.6183 107.007C35.5682 107.363 35.468 107.691 35.3177 107.992C35.173 108.287 34.967 108.532 34.6998 108.727C34.4382 108.916 34.0986 109.011 33.6811 109.011C33.2636 109.011 32.9212 108.916 32.654 108.727C32.3924 108.532 32.1864 108.287 32.0361 107.992C31.8914 107.691 31.7912 107.363 31.7355 107.007C31.6854 106.65 31.6604 106.305 31.6604 105.971C31.6604 105.637 31.6854 105.292 31.7355 104.936C31.7912 104.58 31.8914 104.254 32.0361 103.959C32.1864 103.658 32.3924 103.413 32.654 103.224C32.9212 103.029 33.2636 102.932 33.6811 102.932ZM33.6811 108.217C33.8871 108.217 34.0596 108.159 34.1988 108.042C34.338 107.92 34.4465 107.758 34.5244 107.558C34.6079 107.352 34.6664 107.112 34.6998 106.84C34.7332 106.567 34.7499 106.277 34.7499 105.971C34.7499 105.665 34.7332 105.378 34.6998 105.111C34.6664 104.838 34.6079 104.599 34.5244 104.393C34.4465 104.187 34.338 104.026 34.1988 103.909C34.0596 103.786 33.8871 103.725 33.6811 103.725C33.4696 103.725 33.2942 103.786 33.155 103.909C33.0214 104.026 32.9129 104.187 32.8294 104.393C32.7515 104.599 32.6958 104.838 32.6624 105.111C32.629 105.378 32.6123 105.665 32.6123 105.971C32.6123 106.277 32.629 106.567 32.6624 106.84C32.6958 107.112 32.7515 107.352 32.8294 107.558C32.9129 107.758 33.0214 107.92 33.155 108.042C33.2942 108.159 33.4696 108.217 33.6811 108.217ZM39.899 108.894H35.9077C35.9133 108.409 36.0302 107.986 36.2584 107.625C36.4867 107.263 36.7984 106.948 37.1936 106.681C37.3829 106.542 37.5805 106.408 37.7865 106.28C37.9925 106.147 38.1817 106.005 38.3543 105.854C38.5269 105.704 38.6688 105.543 38.7801 105.37C38.8915 105.192 38.9499 104.989 38.9555 104.761C38.9555 104.655 38.9416 104.543 38.9137 104.427C38.8915 104.304 38.8442 104.193 38.7718 104.093C38.6994 103.987 38.5992 103.9 38.4712 103.834C38.3432 103.761 38.1762 103.725 37.9702 103.725C37.7809 103.725 37.6223 103.764 37.4942 103.842C37.3718 103.914 37.2716 104.017 37.1936 104.151C37.1213 104.279 37.0656 104.432 37.0266 104.61C36.9932 104.788 36.9738 104.98 36.9682 105.186H36.0163C36.0163 104.864 36.058 104.566 36.1415 104.293C36.2306 104.015 36.3614 103.775 36.534 103.575C36.7066 103.374 36.9153 103.219 37.1602 103.107C37.4107 102.99 37.7002 102.932 38.0286 102.932C38.3849 102.932 38.6827 102.99 38.9221 103.107C39.1615 103.224 39.3535 103.372 39.4982 103.55C39.6485 103.728 39.7543 103.923 39.8155 104.134C39.8768 104.34 39.9074 104.538 39.9074 104.727C39.9074 104.961 39.8712 105.172 39.7988 105.362C39.7265 105.551 39.6291 105.726 39.5066 105.888C39.3841 106.044 39.245 106.188 39.0891 106.322C38.9332 106.456 38.7718 106.581 38.6048 106.698C38.4378 106.815 38.2708 106.926 38.1038 107.032C37.9368 107.138 37.7809 107.243 37.6362 107.349C37.497 107.455 37.3746 107.566 37.2688 107.683C37.163 107.794 37.0907 107.914 37.0517 108.042H39.899V108.894ZM40.8314 103.049H43.8541V103.9H41.5412L41.2406 105.387L41.2573 105.403C41.3853 105.259 41.5467 105.15 41.7416 105.078C41.942 105 42.1396 104.961 42.3344 104.961C42.6239 104.961 42.8827 105.011 43.111 105.111C43.3392 105.206 43.5313 105.342 43.6871 105.52C43.843 105.693 43.9599 105.899 44.0378 106.138C44.1213 106.378 44.1631 106.637 44.1631 106.915C44.1631 107.149 44.1241 107.391 44.0462 107.641C43.9738 107.886 43.8541 108.112 43.6871 108.318C43.5257 108.518 43.3169 108.685 43.0609 108.819C42.8048 108.947 42.4986 109.011 42.1424 109.011C41.8585 109.011 41.5941 108.972 41.3491 108.894C41.1098 108.821 40.8982 108.71 40.7145 108.56C40.5308 108.409 40.3833 108.226 40.272 108.009C40.1662 107.786 40.1078 107.527 40.0966 107.232H41.0485C41.0764 107.549 41.1849 107.794 41.3742 107.967C41.5634 108.134 41.8139 108.217 42.1257 108.217C42.3261 108.217 42.4959 108.184 42.635 108.117C42.7742 108.05 42.8855 107.959 42.969 107.842C43.0581 107.725 43.1193 107.588 43.1527 107.433C43.1917 107.277 43.2112 107.11 43.2112 106.932C43.2112 106.77 43.1889 106.617 43.1444 106.472C43.0998 106.322 43.033 106.191 42.944 106.08C42.8549 105.969 42.738 105.879 42.5933 105.813C42.4541 105.746 42.2899 105.712 42.1006 105.712C41.9002 105.712 41.711 105.751 41.5328 105.829C41.3603 105.902 41.235 106.041 41.1571 106.247H40.2052L40.8314 103.049Z" fill="white"/>
<path d="M84.6105 104.369H89.4368V105.271H87.5414V110.331H86.4976V105.271H84.6105V104.369ZM92.6013 110.331H91.6661V109.73H91.6494C91.5325 109.947 91.3572 110.123 91.1234 110.256C90.8951 110.384 90.6613 110.448 90.422 110.448C89.8542 110.448 89.4422 110.309 89.1862 110.031C88.9357 109.747 88.8104 109.321 88.8104 108.753V106.014H89.7623V108.661C89.7623 109.04 89.8347 109.307 89.9794 109.463C90.1241 109.619 90.3273 109.697 90.589 109.697C90.7894 109.697 90.9564 109.666 91.09 109.605C91.2236 109.544 91.3321 109.463 91.4156 109.363C91.4991 109.257 91.5576 109.132 91.591 108.987C91.6299 108.842 91.6494 108.686 91.6494 108.519V106.014H92.6013V110.331ZM96.1519 107.793C96.1407 107.643 96.1073 107.498 96.0517 107.359C96.0016 107.22 95.9292 107.1 95.8346 107C95.7455 106.894 95.6342 106.81 95.5006 106.749C95.3725 106.682 95.2278 106.649 95.0664 106.649C94.8994 106.649 94.7463 106.68 94.6071 106.741C94.4735 106.796 94.3566 106.877 94.2564 106.983C94.1618 107.083 94.0839 107.203 94.0226 107.342C93.967 107.481 93.9363 107.631 93.9308 107.793H96.1519ZM93.9308 108.419C93.9308 108.586 93.953 108.748 93.9976 108.903C94.0477 109.059 94.12 109.196 94.2147 109.313C94.3093 109.429 94.429 109.524 94.5737 109.596C94.7185 109.663 94.891 109.697 95.0914 109.697C95.3698 109.697 95.5924 109.638 95.7594 109.521C95.932 109.399 96.06 109.218 96.1435 108.979H97.0453C96.9952 109.212 96.9089 109.421 96.7865 109.605C96.664 109.789 96.5165 109.944 96.3439 110.072C96.1714 110.195 95.9765 110.287 95.7594 110.348C95.5479 110.415 95.3252 110.448 95.0914 110.448C94.7519 110.448 94.4513 110.393 94.1896 110.281C93.928 110.17 93.7053 110.014 93.5216 109.814C93.3435 109.613 93.2071 109.374 93.1125 109.095C93.0234 108.817 92.9789 108.511 92.9789 108.177C92.9789 107.871 93.0262 107.581 93.1208 107.309C93.221 107.03 93.3602 106.788 93.5383 106.582C93.722 106.371 93.9419 106.204 94.198 106.081C94.454 105.959 94.7435 105.897 95.0664 105.897C95.4059 105.897 95.7093 105.97 95.9765 106.115C96.2493 106.254 96.4747 106.44 96.6529 106.674C96.831 106.908 96.959 107.178 97.037 107.484C97.1205 107.785 97.1427 108.096 97.1038 108.419H93.9308Z" fill="white"/>
<path d="M103.381 104.369H104.442L105.519 108.928H105.536L106.738 104.369H107.807L108.976 108.928H108.993L110.103 104.369H111.164L109.519 110.331H108.458L107.264 105.772H107.247L106.028 110.331H104.951L103.381 104.369ZM114.117 107.793C114.106 107.643 114.073 107.498 114.017 107.359C113.967 107.22 113.895 107.1 113.8 107C113.711 106.894 113.6 106.81 113.466 106.749C113.338 106.682 113.193 106.649 113.032 106.649C112.865 106.649 112.712 106.68 112.573 106.741C112.439 106.796 112.322 106.877 112.222 106.983C112.127 107.083 112.049 107.203 111.988 107.342C111.933 107.481 111.902 107.631 111.896 107.793H114.117ZM111.896 108.419C111.896 108.586 111.919 108.748 111.963 108.903C112.013 109.059 112.086 109.196 112.18 109.313C112.275 109.429 112.395 109.524 112.539 109.596C112.684 109.663 112.857 109.697 113.057 109.697C113.335 109.697 113.558 109.638 113.725 109.521C113.898 109.399 114.026 109.218 114.109 108.979H115.011C114.961 109.212 114.874 109.421 114.752 109.605C114.63 109.789 114.482 109.944 114.309 110.072C114.137 110.195 113.942 110.287 113.725 110.348C113.513 110.415 113.291 110.448 113.057 110.448C112.717 110.448 112.417 110.393 112.155 110.281C111.894 110.17 111.671 110.014 111.487 109.814C111.309 109.613 111.173 109.374 111.078 109.095C110.989 108.817 110.944 108.511 110.944 108.177C110.944 107.871 110.992 107.581 111.086 107.309C111.187 107.03 111.326 106.788 111.504 106.582C111.688 106.371 111.907 106.204 112.164 106.081C112.42 105.959 112.709 105.897 113.032 105.897C113.371 105.897 113.675 105.97 113.942 106.115C114.215 106.254 114.44 106.44 114.618 106.674C114.797 106.908 114.925 107.178 115.003 107.484C115.086 107.785 115.108 108.096 115.069 108.419H111.896ZM119.442 110.331H118.54V109.747H118.523C118.395 109.997 118.209 110.178 117.964 110.29C117.719 110.395 117.46 110.448 117.187 110.448C116.848 110.448 116.55 110.39 116.294 110.273C116.043 110.15 115.835 109.986 115.668 109.78C115.501 109.574 115.375 109.332 115.292 109.054C115.208 108.77 115.167 108.466 115.167 108.144C115.167 107.754 115.22 107.417 115.325 107.133C115.431 106.849 115.57 106.616 115.743 106.432C115.921 106.248 116.121 106.115 116.344 106.031C116.572 105.942 116.803 105.897 117.037 105.897C117.171 105.897 117.307 105.911 117.446 105.939C117.585 105.961 117.719 106 117.847 106.056C117.975 106.112 118.092 106.184 118.198 106.273C118.309 106.357 118.401 106.457 118.473 106.574H118.49V104.369H119.442V110.331ZM116.119 108.219C116.119 108.402 116.141 108.583 116.185 108.761C116.236 108.94 116.308 109.098 116.403 109.237C116.503 109.377 116.628 109.488 116.778 109.571C116.929 109.655 117.107 109.697 117.313 109.697C117.524 109.697 117.705 109.652 117.855 109.563C118.011 109.474 118.137 109.357 118.231 109.212C118.331 109.068 118.404 108.906 118.448 108.728C118.498 108.544 118.523 108.358 118.523 108.169C118.523 107.69 118.415 107.317 118.198 107.05C117.986 106.783 117.697 106.649 117.329 106.649C117.107 106.649 116.917 106.696 116.762 106.791C116.611 106.88 116.486 107 116.386 107.15C116.291 107.295 116.222 107.462 116.177 107.651C116.138 107.835 116.119 108.024 116.119 108.219Z" fill="white"/>
<path d="M126.361 104.369H131.187V105.271H129.291V110.331H128.248V105.271H126.361V104.369ZM131.327 104.369H132.279V106.582H132.296C132.412 106.387 132.585 106.226 132.813 106.098C133.047 105.964 133.306 105.897 133.59 105.897C134.063 105.897 134.436 106.02 134.709 106.265C134.981 106.51 135.118 106.877 135.118 107.367V110.331H134.166V107.618C134.155 107.278 134.082 107.033 133.949 106.883C133.815 106.727 133.606 106.649 133.323 106.649C133.161 106.649 133.016 106.68 132.888 106.741C132.76 106.796 132.652 106.877 132.563 106.983C132.474 107.083 132.404 107.203 132.354 107.342C132.304 107.481 132.279 107.629 132.279 107.785V110.331H131.327V104.369ZM139.495 110.331H138.56V109.73H138.543C138.426 109.947 138.251 110.123 138.017 110.256C137.789 110.384 137.555 110.448 137.316 110.448C136.748 110.448 136.336 110.309 136.08 110.031C135.829 109.747 135.704 109.321 135.704 108.753V106.014H136.656V108.661C136.656 109.04 136.728 109.307 136.873 109.463C137.018 109.619 137.221 109.697 137.483 109.697C137.683 109.697 137.85 109.666 137.984 109.605C138.117 109.544 138.226 109.463 138.309 109.363C138.393 109.257 138.451 109.132 138.485 108.987C138.524 108.842 138.543 108.686 138.543 108.519V106.014H139.495V110.331Z" fill="white"/>
<path d="M149.891 104.369H154.007V105.271H150.935V106.833H153.632V107.684H150.935V110.331H149.891V104.369ZM154.289 106.014H155.183V106.849H155.2C155.227 106.732 155.28 106.618 155.358 106.507C155.442 106.396 155.539 106.295 155.65 106.206C155.767 106.112 155.895 106.037 156.035 105.981C156.174 105.925 156.316 105.897 156.46 105.897C156.572 105.897 156.647 105.9 156.686 105.906C156.73 105.911 156.775 105.917 156.819 105.922V106.841C156.753 106.83 156.683 106.822 156.611 106.816C156.544 106.805 156.477 106.799 156.41 106.799C156.249 106.799 156.096 106.833 155.951 106.899C155.812 106.961 155.689 107.055 155.584 107.183C155.478 107.306 155.394 107.459 155.333 107.643C155.272 107.826 155.241 108.038 155.241 108.277V110.331H154.289V106.014ZM156.832 104.369H157.784V105.271H156.832V104.369ZM156.832 106.014H157.784V110.331H156.832V106.014Z" fill="white"/>
<path d="M169.363 108.344C169.363 108.572 169.402 108.767 169.48 108.928C169.558 109.09 169.666 109.224 169.806 109.329C169.945 109.429 170.103 109.505 170.282 109.555C170.465 109.599 170.663 109.622 170.874 109.622C171.103 109.622 171.297 109.596 171.459 109.546C171.62 109.491 171.751 109.421 171.851 109.338C171.952 109.254 172.024 109.16 172.068 109.054C172.113 108.942 172.135 108.831 172.135 108.72C172.135 108.492 172.082 108.325 171.977 108.219C171.876 108.107 171.765 108.029 171.643 107.985C171.431 107.907 171.183 107.835 170.899 107.768C170.621 107.695 170.276 107.604 169.864 107.492C169.608 107.425 169.394 107.339 169.221 107.233C169.054 107.122 168.92 107 168.82 106.866C168.72 106.732 168.648 106.59 168.603 106.44C168.564 106.29 168.545 106.137 168.545 105.981C168.545 105.68 168.606 105.421 168.728 105.204C168.856 104.982 169.023 104.798 169.229 104.653C169.435 104.509 169.669 104.403 169.931 104.336C170.192 104.264 170.457 104.227 170.724 104.227C171.036 104.227 171.328 104.269 171.601 104.353C171.879 104.431 172.121 104.55 172.327 104.712C172.539 104.873 172.706 105.074 172.828 105.313C172.951 105.547 173.012 105.82 173.012 106.131H171.968C171.94 105.747 171.81 105.477 171.576 105.321C171.342 105.16 171.044 105.079 170.682 105.079C170.56 105.079 170.435 105.093 170.307 105.121C170.179 105.143 170.062 105.185 169.956 105.246C169.85 105.302 169.761 105.38 169.689 105.48C169.622 105.58 169.588 105.705 169.588 105.856C169.588 106.067 169.653 106.234 169.781 106.357C169.914 106.474 170.087 106.563 170.298 106.624C170.321 106.629 170.407 106.655 170.557 106.699C170.713 106.738 170.886 106.783 171.075 106.833C171.264 106.883 171.448 106.933 171.626 106.983C171.81 107.027 171.94 107.061 172.018 107.083C172.213 107.144 172.383 107.228 172.528 107.334C172.672 107.439 172.792 107.562 172.887 107.701C172.987 107.835 173.059 107.979 173.104 108.135C173.154 108.291 173.179 108.447 173.179 108.603C173.179 108.937 173.109 109.224 172.97 109.463C172.837 109.697 172.659 109.889 172.436 110.039C172.213 110.189 171.96 110.298 171.676 110.365C171.392 110.437 171.103 110.473 170.808 110.473C170.468 110.473 170.148 110.431 169.847 110.348C169.547 110.264 169.285 110.136 169.062 109.964C168.84 109.791 168.662 109.571 168.528 109.304C168.394 109.031 168.325 108.711 168.319 108.344H169.363ZM177.157 109.371C177.157 109.488 177.171 109.571 177.199 109.622C177.232 109.672 177.294 109.697 177.383 109.697C177.411 109.697 177.444 109.697 177.483 109.697C177.522 109.697 177.566 109.691 177.616 109.68V110.34C177.583 110.351 177.539 110.362 177.483 110.373C177.433 110.39 177.38 110.404 177.324 110.415C177.269 110.426 177.213 110.434 177.157 110.44C177.102 110.445 177.054 110.448 177.015 110.448C176.82 110.448 176.659 110.409 176.531 110.331C176.403 110.253 176.319 110.117 176.28 109.922C176.091 110.106 175.857 110.239 175.579 110.323C175.306 110.406 175.042 110.448 174.786 110.448C174.591 110.448 174.405 110.42 174.226 110.365C174.048 110.315 173.89 110.239 173.75 110.139C173.617 110.033 173.508 109.903 173.425 109.747C173.347 109.585 173.308 109.399 173.308 109.187C173.308 108.92 173.355 108.703 173.45 108.536C173.55 108.369 173.678 108.238 173.834 108.144C173.995 108.049 174.174 107.982 174.368 107.943C174.569 107.899 174.769 107.865 174.97 107.843C175.142 107.81 175.306 107.787 175.462 107.776C175.618 107.759 175.754 107.734 175.871 107.701C175.994 107.668 176.088 107.618 176.155 107.551C176.228 107.478 176.264 107.373 176.264 107.233C176.264 107.111 176.233 107.011 176.172 106.933C176.116 106.855 176.044 106.796 175.955 106.757C175.871 106.713 175.777 106.685 175.671 106.674C175.565 106.657 175.465 106.649 175.37 106.649C175.103 106.649 174.883 106.705 174.711 106.816C174.538 106.927 174.441 107.1 174.418 107.334H173.467C173.483 107.055 173.55 106.824 173.667 106.641C173.784 106.457 173.931 106.309 174.109 106.198C174.293 106.087 174.499 106.009 174.727 105.964C174.956 105.92 175.189 105.897 175.429 105.897C175.64 105.897 175.849 105.92 176.055 105.964C176.261 106.009 176.445 106.081 176.606 106.181C176.773 106.282 176.907 106.412 177.007 106.574C177.107 106.73 177.157 106.922 177.157 107.15V109.371ZM176.205 108.169C176.061 108.263 175.882 108.322 175.671 108.344C175.459 108.361 175.248 108.389 175.036 108.427C174.936 108.444 174.839 108.469 174.744 108.503C174.649 108.53 174.566 108.572 174.494 108.628C174.421 108.678 174.363 108.748 174.318 108.837C174.279 108.92 174.26 109.023 174.26 109.146C174.26 109.251 174.29 109.34 174.352 109.413C174.413 109.485 174.485 109.544 174.569 109.588C174.658 109.627 174.752 109.655 174.853 109.672C174.958 109.688 175.053 109.697 175.137 109.697C175.242 109.697 175.356 109.683 175.479 109.655C175.601 109.627 175.715 109.58 175.821 109.513C175.933 109.446 176.024 109.363 176.097 109.262C176.169 109.157 176.205 109.029 176.205 108.878V108.169ZM177.33 106.014H178.048V104.72H179V106.014H179.86V106.724H179V109.029C179 109.129 179.003 109.215 179.008 109.288C179.019 109.36 179.039 109.421 179.067 109.471C179.1 109.521 179.147 109.56 179.209 109.588C179.27 109.61 179.353 109.622 179.459 109.622C179.526 109.622 179.593 109.622 179.659 109.622C179.726 109.616 179.793 109.605 179.86 109.588V110.323C179.754 110.334 179.651 110.345 179.551 110.356C179.451 110.367 179.348 110.373 179.242 110.373C178.991 110.373 178.788 110.351 178.632 110.306C178.482 110.256 178.362 110.187 178.273 110.097C178.19 110.003 178.131 109.886 178.098 109.747C178.07 109.608 178.053 109.449 178.048 109.271V106.724H177.33V106.014Z" fill="white"/>
<path d="M189.194 108.344C189.194 108.572 189.233 108.767 189.311 108.928C189.389 109.09 189.498 109.224 189.637 109.329C189.776 109.429 189.935 109.505 190.113 109.555C190.297 109.599 190.494 109.622 190.706 109.622C190.934 109.622 191.129 109.596 191.29 109.546C191.452 109.491 191.582 109.421 191.683 109.338C191.783 109.254 191.855 109.16 191.9 109.054C191.944 108.942 191.967 108.831 191.967 108.72C191.967 108.492 191.914 108.325 191.808 108.219C191.708 108.107 191.596 108.029 191.474 107.985C191.262 107.907 191.015 107.835 190.731 107.768C190.452 107.695 190.107 107.604 189.695 107.492C189.439 107.425 189.225 107.339 189.052 107.233C188.885 107.122 188.752 107 188.652 106.866C188.551 106.732 188.479 106.59 188.434 106.44C188.395 106.29 188.376 106.137 188.376 105.981C188.376 105.68 188.437 105.421 188.56 105.204C188.688 104.982 188.855 104.798 189.061 104.653C189.267 104.509 189.5 104.403 189.762 104.336C190.024 104.264 190.288 104.227 190.555 104.227C190.867 104.227 191.159 104.269 191.432 104.353C191.71 104.431 191.953 104.55 192.159 104.712C192.37 104.873 192.537 105.074 192.66 105.313C192.782 105.547 192.843 105.82 192.843 106.131H191.8C191.772 105.747 191.641 105.477 191.407 105.321C191.173 105.16 190.875 105.079 190.514 105.079C190.391 105.079 190.266 105.093 190.138 105.121C190.01 105.143 189.893 105.185 189.787 105.246C189.681 105.302 189.592 105.38 189.52 105.48C189.453 105.58 189.42 105.705 189.42 105.856C189.42 106.067 189.484 106.234 189.612 106.357C189.745 106.474 189.918 106.563 190.13 106.624C190.152 106.629 190.238 106.655 190.388 106.699C190.544 106.738 190.717 106.783 190.906 106.833C191.095 106.883 191.279 106.933 191.457 106.983C191.641 107.027 191.772 107.061 191.85 107.083C192.044 107.144 192.214 107.228 192.359 107.334C192.504 107.439 192.623 107.562 192.718 107.701C192.818 107.835 192.891 107.979 192.935 108.135C192.985 108.291 193.01 108.447 193.01 108.603C193.01 108.937 192.941 109.224 192.802 109.463C192.668 109.697 192.49 109.889 192.267 110.039C192.044 110.189 191.791 110.298 191.507 110.365C191.223 110.437 190.934 110.473 190.639 110.473C190.299 110.473 189.979 110.431 189.679 110.348C189.378 110.264 189.116 110.136 188.894 109.964C188.671 109.791 188.493 109.571 188.359 109.304C188.226 109.031 188.156 108.711 188.151 108.344H189.194ZM197.164 110.331H196.229V109.73H196.212C196.095 109.947 195.92 110.123 195.686 110.256C195.458 110.384 195.224 110.448 194.985 110.448C194.417 110.448 194.005 110.309 193.749 110.031C193.498 109.747 193.373 109.321 193.373 108.753V106.014H194.325V108.661C194.325 109.04 194.397 109.307 194.542 109.463C194.687 109.619 194.89 109.697 195.152 109.697C195.352 109.697 195.519 109.666 195.653 109.605C195.786 109.544 195.895 109.463 195.978 109.363C196.062 109.257 196.12 109.132 196.154 108.987C196.192 108.842 196.212 108.686 196.212 108.519V106.014H197.164V110.331ZM197.75 106.014H198.652V106.649L198.669 106.666C198.813 106.426 199.003 106.24 199.236 106.106C199.47 105.967 199.729 105.897 200.013 105.897C200.486 105.897 200.859 106.02 201.132 106.265C201.405 106.51 201.541 106.877 201.541 107.367V110.331H200.589V107.618C200.578 107.278 200.506 107.033 200.372 106.883C200.238 106.727 200.03 106.649 199.746 106.649C199.584 106.649 199.44 106.68 199.312 106.741C199.184 106.796 199.075 106.877 198.986 106.983C198.897 107.083 198.827 107.203 198.777 107.342C198.727 107.481 198.702 107.629 198.702 107.785V110.331H197.75V106.014Z" fill="white"/>
<path d="M209.368 104.369H210.838L212.482 109.037H212.499L214.102 104.369H215.555V110.331H214.562V105.73H214.545L212.892 110.331H212.032L210.378 105.73H210.362V110.331H209.368V104.369ZM218.233 110.448C217.888 110.448 217.579 110.393 217.306 110.281C217.039 110.164 216.811 110.006 216.621 109.805C216.438 109.605 216.296 109.365 216.195 109.087C216.101 108.809 216.054 108.503 216.054 108.169C216.054 107.84 216.101 107.537 216.195 107.258C216.296 106.98 216.438 106.741 216.621 106.54C216.811 106.34 217.039 106.184 217.306 106.073C217.579 105.956 217.888 105.897 218.233 105.897C218.578 105.897 218.884 105.956 219.151 106.073C219.424 106.184 219.652 106.34 219.836 106.54C220.025 106.741 220.167 106.98 220.262 107.258C220.362 107.537 220.412 107.84 220.412 108.169C220.412 108.503 220.362 108.809 220.262 109.087C220.167 109.365 220.025 109.605 219.836 109.805C219.652 110.006 219.424 110.164 219.151 110.281C218.884 110.393 218.578 110.448 218.233 110.448ZM218.233 109.697C218.444 109.697 218.628 109.652 218.784 109.563C218.94 109.474 219.068 109.357 219.168 109.212C219.268 109.068 219.341 108.906 219.385 108.728C219.435 108.544 219.46 108.358 219.46 108.169C219.46 107.985 219.435 107.801 219.385 107.618C219.341 107.434 219.268 107.272 219.168 107.133C219.068 106.989 218.94 106.872 218.784 106.783C218.628 106.693 218.444 106.649 218.233 106.649C218.021 106.649 217.838 106.693 217.682 106.783C217.526 106.872 217.398 106.989 217.298 107.133C217.197 107.272 217.122 107.434 217.072 107.618C217.028 107.801 217.005 107.985 217.005 108.169C217.005 108.358 217.028 108.544 217.072 108.728C217.122 108.906 217.197 109.068 217.298 109.212C217.398 109.357 217.526 109.474 217.682 109.563C217.838 109.652 218.021 109.697 218.233 109.697ZM220.786 106.014H221.688V106.649L221.705 106.666C221.849 106.426 222.039 106.24 222.272 106.106C222.506 105.967 222.765 105.897 223.049 105.897C223.522 105.897 223.895 106.02 224.168 106.265C224.441 106.51 224.577 106.877 224.577 107.367V110.331H223.625V107.618C223.614 107.278 223.542 107.033 223.408 106.883C223.274 106.727 223.066 106.649 222.782 106.649C222.62 106.649 222.476 106.68 222.348 106.741C222.219 106.796 222.111 106.877 222.022 106.983C221.933 107.083 221.863 107.203 221.813 107.342C221.763 107.481 221.738 107.629 221.738 107.785V110.331H220.786V106.014Z" fill="white"/>
<path d="M86.5853 97.4725C86.5853 97.723 86.5937 98.0277 86.6104 98.3868C86.6271 98.7375 86.6772 99.0798 86.7607 99.4138C86.8525 99.7395 86.9945 100.019 87.1865 100.253C87.3786 100.487 87.6541 100.604 88.0132 100.604C88.3806 100.604 88.6603 100.487 88.8523 100.253C89.0527 100.019 89.1947 99.7395 89.2782 99.4138C89.37 99.0798 89.4243 98.7375 89.441 98.3868C89.4577 98.0277 89.4661 97.723 89.4661 97.4725C89.4661 97.3222 89.4619 97.1426 89.4535 96.9339C89.4535 96.7168 89.4368 96.4955 89.4034 96.2701C89.3784 96.0446 89.3366 95.8233 89.2782 95.6062C89.2281 95.3808 89.1488 95.1804 89.0402 95.005C88.9317 94.8297 88.7939 94.6877 88.6269 94.5792C88.4599 94.4706 88.2553 94.4164 88.0132 94.4164C87.771 94.4164 87.5664 94.4706 87.3994 94.5792C87.2408 94.6877 87.1072 94.8297 86.9986 95.005C86.8984 95.1804 86.8191 95.3808 86.7607 95.6062C86.7022 95.8233 86.6605 96.0446 86.6354 96.2701C86.6104 96.4955 86.5937 96.7168 86.5853 96.9339C86.5853 97.1426 86.5853 97.3222 86.5853 97.4725ZM84.8068 97.4725C84.8068 96.6208 84.8903 95.9068 85.0573 95.3307C85.2326 94.7462 85.4664 94.2786 85.7587 93.9279C86.0509 93.5772 86.3891 93.3267 86.7732 93.1764C87.1656 93.0261 87.579 92.9509 88.0132 92.9509C88.4557 92.9509 88.869 93.0261 89.2531 93.1764C89.6456 93.3267 89.9879 93.5772 90.2802 93.9279C90.5808 94.2786 90.8146 94.7462 90.9816 95.3307C91.1569 95.9068 91.2446 96.6208 91.2446 97.4725C91.2446 98.3492 91.1569 99.084 90.9816 99.6769C90.8146 100.261 90.5808 100.729 90.2802 101.08C89.9879 101.43 89.6456 101.681 89.2531 101.831C88.869 101.981 88.4557 102.057 88.0132 102.057C87.579 102.057 87.1656 101.981 86.7732 101.831C86.3891 101.681 86.0509 101.43 85.7587 101.08C85.4664 100.729 85.2326 100.261 85.0573 99.6769C84.8903 99.084 84.8068 98.3492 84.8068 97.4725ZM95.787 101.894H94.0084V96.2074H91.804V94.8673C92.113 94.8756 92.4094 94.8547 92.6933 94.8046C92.9856 94.7462 93.2444 94.6502 93.4699 94.5166C93.7037 94.3746 93.8999 94.1909 94.0585 93.9655C94.2172 93.74 94.3216 93.4603 94.3717 93.1263H95.787V101.894Z" fill="white"/>
<path d="M107.46 97.4725C107.46 97.723 107.469 98.0277 107.485 98.3868C107.502 98.7375 107.552 99.0798 107.636 99.4138C107.728 99.7395 107.869 100.019 108.062 100.253C108.254 100.487 108.529 100.604 108.888 100.604C109.256 100.604 109.535 100.487 109.727 100.253C109.928 100.019 110.07 99.7395 110.153 99.4138C110.245 99.0798 110.299 98.7375 110.316 98.3868C110.333 98.0277 110.341 97.723 110.341 97.4725C110.341 97.3222 110.337 97.1426 110.329 96.9339C110.329 96.7168 110.312 96.4955 110.278 96.2701C110.253 96.0446 110.212 95.8233 110.153 95.6062C110.103 95.3808 110.024 95.1804 109.915 95.005C109.807 94.8297 109.669 94.6877 109.502 94.5792C109.335 94.4706 109.13 94.4164 108.888 94.4164C108.646 94.4164 108.441 94.4706 108.274 94.5792C108.116 94.6877 107.982 94.8297 107.874 95.005C107.773 95.1804 107.694 95.3808 107.636 95.6062C107.577 95.8233 107.535 96.0446 107.51 96.2701C107.485 96.4955 107.469 96.7168 107.46 96.9339C107.46 97.1426 107.46 97.3222 107.46 97.4725ZM105.682 97.4725C105.682 96.6208 105.765 95.9068 105.932 95.3307C106.108 94.7462 106.341 94.2786 106.634 93.9279C106.926 93.5772 107.264 93.3267 107.648 93.1764C108.041 93.0261 108.454 92.9509 108.888 92.9509C109.331 92.9509 109.744 93.0261 110.128 93.1764C110.521 93.3267 110.863 93.5772 111.155 93.9279C111.456 94.2786 111.69 94.7462 111.857 95.3307C112.032 95.9068 112.12 96.6208 112.12 97.4725C112.12 98.3492 112.032 99.084 111.857 99.6769C111.69 100.261 111.456 100.729 111.155 101.08C110.863 101.43 110.521 101.681 110.128 101.831C109.744 101.981 109.331 102.057 108.888 102.057C108.454 102.057 108.041 101.981 107.648 101.831C107.264 101.681 106.926 101.43 106.634 101.08C106.341 100.729 106.108 100.261 105.932 99.6769C105.765 99.084 105.682 98.3492 105.682 97.4725ZM112.216 96.4955C112.199 95.9945 112.257 95.5311 112.391 95.1052C112.525 94.671 112.725 94.2953 112.992 93.978C113.259 93.6523 113.593 93.4018 113.994 93.2265C114.403 93.0428 114.871 92.9509 115.397 92.9509C115.798 92.9509 116.178 93.0136 116.537 93.1388C116.904 93.2641 117.226 93.4436 117.501 93.6774C117.777 93.9112 117.994 94.1993 118.152 94.5416C118.319 94.884 118.403 95.2681 118.403 95.6939C118.403 96.1365 118.332 96.5164 118.19 96.8337C118.048 97.151 117.86 97.4349 117.626 97.6854C117.393 97.9275 117.125 98.1488 116.825 98.3492C116.533 98.5496 116.236 98.75 115.936 98.9504C115.635 99.1425 115.343 99.3512 115.059 99.5767C114.775 99.8021 114.524 100.065 114.307 100.366H118.453V101.894H112.015C112.015 101.384 112.086 100.942 112.228 100.566C112.378 100.19 112.579 99.8564 112.829 99.5641C113.08 99.2635 113.372 98.988 113.706 98.7375C114.048 98.487 114.407 98.2323 114.783 97.9735C114.975 97.8399 115.18 97.7063 115.397 97.5727C115.614 97.4307 115.81 97.2762 115.986 97.1092C116.169 96.9422 116.32 96.7544 116.437 96.5456C116.562 96.3369 116.624 96.0989 116.624 95.8317C116.624 95.4058 116.499 95.076 116.249 94.8422C116.007 94.6001 115.693 94.479 115.309 94.479C115.05 94.479 114.829 94.5416 114.645 94.6669C114.47 94.7838 114.328 94.9424 114.22 95.1428C114.111 95.3349 114.032 95.552 113.982 95.7941C113.94 96.0279 113.919 96.2617 113.919 96.4955H112.216Z" fill="white"/>
<path d="M128.335 97.4725C128.335 97.723 128.344 98.0277 128.36 98.3868C128.377 98.7375 128.427 99.0798 128.511 99.4138C128.603 99.7395 128.744 100.019 128.937 100.253C129.129 100.487 129.404 100.604 129.763 100.604C130.131 100.604 130.41 100.487 130.602 100.253C130.803 100.019 130.945 99.7395 131.028 99.4138C131.12 99.0798 131.174 98.7375 131.191 98.3868C131.208 98.0277 131.216 97.723 131.216 97.4725C131.216 97.3222 131.212 97.1426 131.204 96.9339C131.204 96.7168 131.187 96.4955 131.153 96.2701C131.128 96.0446 131.087 95.8233 131.028 95.6062C130.978 95.3808 130.899 95.1804 130.79 95.005C130.682 94.8297 130.544 94.6877 130.377 94.5792C130.21 94.4706 130.005 94.4164 129.763 94.4164C129.521 94.4164 129.316 94.4706 129.149 94.5792C128.991 94.6877 128.857 94.8297 128.749 95.005C128.648 95.1804 128.569 95.3808 128.511 95.6062C128.452 95.8233 128.41 96.0446 128.385 96.2701C128.36 96.4955 128.344 96.7168 128.335 96.9339C128.335 97.1426 128.335 97.3222 128.335 97.4725ZM126.557 97.4725C126.557 96.6208 126.64 95.9068 126.807 95.3307C126.983 94.7462 127.216 94.2786 127.509 93.9279C127.801 93.5772 128.139 93.3267 128.523 93.1764C128.916 93.0261 129.329 92.9509 129.763 92.9509C130.206 92.9509 130.619 93.0261 131.003 93.1764C131.396 93.3267 131.738 93.5772 132.03 93.9279C132.331 94.2786 132.565 94.7462 132.732 95.3307C132.907 95.9068 132.995 96.6208 132.995 97.4725C132.995 98.3492 132.907 99.084 132.732 99.6769C132.565 100.261 132.331 100.729 132.03 101.08C131.738 101.43 131.396 101.681 131.003 101.831C130.619 101.981 130.206 102.057 129.763 102.057C129.329 102.057 128.916 101.981 128.523 101.831C128.139 101.681 127.801 101.43 127.509 101.08C127.216 100.729 126.983 100.261 126.807 99.6769C126.64 99.084 126.557 98.3492 126.557 97.4725ZM135.483 96.6709C135.675 96.6876 135.88 96.6876 136.097 96.6709C136.314 96.6542 136.514 96.6082 136.698 96.5331C136.89 96.4496 137.044 96.3327 137.161 96.1824C137.286 96.0321 137.349 95.8317 137.349 95.5812C137.349 95.2054 137.224 94.9174 136.973 94.717C136.723 94.5166 136.435 94.4164 136.109 94.4164C135.658 94.4164 135.316 94.5667 135.082 94.8673C134.857 95.1595 134.748 95.5311 134.756 95.982H133.066C133.082 95.5311 133.162 95.1219 133.304 94.7545C133.454 94.3788 133.658 94.0573 133.917 93.7901C134.184 93.5229 134.502 93.3183 134.869 93.1764C135.237 93.0261 135.646 92.9509 136.097 92.9509C136.447 92.9509 136.798 93.0052 137.149 93.1138C137.499 93.214 137.813 93.3684 138.088 93.5772C138.372 93.7859 138.602 94.0406 138.777 94.3412C138.952 94.6418 139.04 94.9883 139.04 95.3808C139.04 95.8066 138.936 96.1824 138.727 96.508C138.526 96.8337 138.222 97.055 137.813 97.1719V97.1969C138.297 97.3055 138.677 97.5393 138.952 97.8983C139.228 98.2574 139.366 98.6874 139.366 99.1884C139.366 99.6476 139.274 100.057 139.09 100.416C138.915 100.775 138.677 101.075 138.376 101.318C138.076 101.56 137.729 101.743 137.337 101.869C136.944 101.994 136.535 102.057 136.109 102.057C135.616 102.057 135.166 101.986 134.756 101.844C134.356 101.702 134.013 101.497 133.729 101.23C133.445 100.954 133.224 100.62 133.066 100.228C132.915 99.8355 132.844 99.3846 132.853 98.8753H134.544C134.552 99.1091 134.589 99.3345 134.656 99.5516C134.723 99.7604 134.819 99.9441 134.944 100.103C135.07 100.253 135.224 100.374 135.408 100.466C135.6 100.558 135.825 100.604 136.084 100.604C136.485 100.604 136.823 100.483 137.099 100.24C137.374 99.99 137.512 99.6518 137.512 99.226C137.512 98.892 137.445 98.6373 137.312 98.4619C137.186 98.2866 137.023 98.1613 136.823 98.0862C136.623 98.0027 136.401 97.9568 136.159 97.9484C135.925 97.9317 135.7 97.9234 135.483 97.9234V96.6709Z" fill="white"/>
<path d="M149.21 97.4725C149.21 97.723 149.219 98.0277 149.235 98.3868C149.252 98.7375 149.302 99.0798 149.386 99.4138C149.478 99.7395 149.619 100.019 149.812 100.253C150.004 100.487 150.279 100.604 150.638 100.604C151.006 100.604 151.285 100.487 151.477 100.253C151.678 100.019 151.82 99.7395 151.903 99.4138C151.995 99.0798 152.049 98.7375 152.066 98.3868C152.083 98.0277 152.091 97.723 152.091 97.4725C152.091 97.3222 152.087 97.1426 152.079 96.9339C152.079 96.7168 152.062 96.4955 152.028 96.2701C152.003 96.0446 151.962 95.8233 151.903 95.6062C151.853 95.3808 151.774 95.1804 151.665 95.005C151.557 94.8297 151.419 94.6877 151.252 94.5792C151.085 94.4706 150.88 94.4164 150.638 94.4164C150.396 94.4164 150.191 94.4706 150.024 94.5792C149.866 94.6877 149.732 94.8297 149.624 95.005C149.523 95.1804 149.444 95.3808 149.386 95.6062C149.327 95.8233 149.285 96.0446 149.26 96.2701C149.235 96.4955 149.219 96.7168 149.21 96.9339C149.21 97.1426 149.21 97.3222 149.21 97.4725ZM147.432 97.4725C147.432 96.6208 147.515 95.9068 147.682 95.3307C147.858 94.7462 148.091 94.2786 148.384 93.9279C148.676 93.5772 149.014 93.3267 149.398 93.1764C149.791 93.0261 150.204 92.9509 150.638 92.9509C151.081 92.9509 151.494 93.0261 151.878 93.1764C152.271 93.3267 152.613 93.5772 152.905 93.9279C153.206 94.2786 153.44 94.7462 153.607 95.3307C153.782 95.9068 153.87 96.6208 153.87 97.4725C153.87 98.3492 153.782 99.084 153.607 99.6769C153.44 100.261 153.206 100.729 152.905 101.08C152.613 101.43 152.271 101.681 151.878 101.831C151.494 101.981 151.081 102.057 150.638 102.057C150.204 102.057 149.791 101.981 149.398 101.831C149.014 101.681 148.676 101.43 148.384 101.08C148.091 100.729 147.858 100.261 147.682 99.6769C147.515 99.084 147.432 98.3492 147.432 97.4725ZM157.41 95.3557H157.372L155.105 98.3993H157.41V95.3557ZM157.41 99.8647H153.703V98.2365L157.51 93.1263H159.101V98.3993H160.266V99.8647H159.101V101.894H157.41V99.8647Z" fill="white"/>
<path d="M170.085 97.4725C170.085 97.723 170.094 98.0277 170.11 98.3868C170.127 98.7375 170.177 99.0798 170.261 99.4138C170.353 99.7395 170.494 100.019 170.687 100.253C170.879 100.487 171.154 100.604 171.513 100.604C171.881 100.604 172.16 100.487 172.352 100.253C172.553 100.019 172.695 99.7395 172.778 99.4138C172.87 99.0798 172.924 98.7375 172.941 98.3868C172.958 98.0277 172.966 97.723 172.966 97.4725C172.966 97.3222 172.962 97.1426 172.954 96.9339C172.954 96.7168 172.937 96.4955 172.903 96.2701C172.878 96.0446 172.837 95.8233 172.778 95.6062C172.728 95.3808 172.649 95.1804 172.54 95.005C172.432 94.8297 172.294 94.6877 172.127 94.5792C171.96 94.4706 171.755 94.4164 171.513 94.4164C171.271 94.4164 171.066 94.4706 170.899 94.5792C170.741 94.6877 170.607 94.8297 170.499 95.005C170.398 95.1804 170.319 95.3808 170.261 95.6062C170.202 95.8233 170.16 96.0446 170.135 96.2701C170.11 96.4955 170.094 96.7168 170.085 96.9339C170.085 97.1426 170.085 97.3222 170.085 97.4725ZM168.307 97.4725C168.307 96.6208 168.39 95.9068 168.557 95.3307C168.733 94.7462 168.966 94.2786 169.259 93.9279C169.551 93.5772 169.889 93.3267 170.273 93.1764C170.666 93.0261 171.079 92.9509 171.513 92.9509C171.956 92.9509 172.369 93.0261 172.753 93.1764C173.146 93.3267 173.488 93.5772 173.78 93.9279C174.081 94.2786 174.315 94.7462 174.482 95.3307C174.657 95.9068 174.745 96.6208 174.745 97.4725C174.745 98.3492 174.657 99.084 174.482 99.6769C174.315 100.261 174.081 100.729 173.78 101.08C173.488 101.43 173.146 101.681 172.753 101.831C172.369 101.981 171.956 102.057 171.513 102.057C171.079 102.057 170.666 101.981 170.273 101.831C169.889 101.681 169.551 101.43 169.259 101.08C168.966 100.729 168.733 100.261 168.557 99.6769C168.39 99.084 168.307 98.3492 168.307 97.4725ZM180.64 94.5917H177.02L176.669 96.5832L176.694 96.6082C176.936 96.3661 177.195 96.1949 177.471 96.0947C177.746 95.9862 178.06 95.9319 178.41 95.9319C178.844 95.9319 179.229 96.0112 179.563 96.1699C179.897 96.3285 180.176 96.5414 180.402 96.8086C180.636 97.0758 180.811 97.3931 180.928 97.7605C181.053 98.1196 181.116 98.5037 181.116 98.9128C181.116 99.3637 181.028 99.7854 180.853 100.178C180.677 100.562 180.439 100.896 180.139 101.18C179.846 101.464 179.504 101.685 179.112 101.844C178.719 101.994 178.302 102.065 177.859 102.057C177.433 102.057 177.024 102.002 176.632 101.894C176.248 101.777 175.905 101.602 175.605 101.368C175.304 101.134 175.062 100.846 174.878 100.504C174.703 100.153 174.611 99.7478 174.603 99.2886H176.381C176.423 99.6894 176.573 100.011 176.832 100.253C177.091 100.487 177.421 100.604 177.822 100.604C178.055 100.604 178.264 100.558 178.448 100.466C178.64 100.366 178.799 100.24 178.924 100.09C179.057 99.9315 179.158 99.752 179.224 99.5516C179.3 99.3429 179.337 99.1299 179.337 98.9128C179.337 98.6874 179.304 98.4745 179.237 98.2741C179.17 98.0737 179.07 97.8983 178.936 97.748C178.803 97.5977 178.644 97.4808 178.46 97.3973C178.277 97.3138 178.064 97.2721 177.822 97.2721C177.504 97.2721 177.245 97.3305 177.045 97.4474C176.845 97.556 176.657 97.7313 176.481 97.9735H174.878L175.742 93.1263H180.64V94.5917Z" fill="white"/>
<path d="M190.96 97.4725C190.96 97.723 190.969 98.0277 190.985 98.3868C191.002 98.7375 191.052 99.0798 191.136 99.4138C191.227 99.7395 191.369 100.019 191.561 100.253C191.754 100.487 192.029 100.604 192.388 100.604C192.756 100.604 193.035 100.487 193.227 100.253C193.428 100.019 193.57 99.7395 193.653 99.4138C193.745 99.0798 193.799 98.7375 193.816 98.3868C193.833 98.0277 193.841 97.723 193.841 97.4725C193.841 97.3222 193.837 97.1426 193.829 96.9339C193.829 96.7168 193.812 96.4955 193.778 96.2701C193.753 96.0446 193.712 95.8233 193.653 95.6062C193.603 95.3808 193.524 95.1804 193.415 95.005C193.307 94.8297 193.169 94.6877 193.002 94.5792C192.835 94.4706 192.63 94.4164 192.388 94.4164C192.146 94.4164 191.941 94.4706 191.774 94.5792C191.616 94.6877 191.482 94.8297 191.374 95.005C191.273 95.1804 191.194 95.3808 191.136 95.6062C191.077 95.8233 191.035 96.0446 191.01 96.2701C190.985 96.4955 190.969 96.7168 190.96 96.9339C190.96 97.1426 190.96 97.3222 190.96 97.4725ZM189.182 97.4725C189.182 96.6208 189.265 95.9068 189.432 95.3307C189.608 94.7462 189.841 94.2786 190.134 93.9279C190.426 93.5772 190.764 93.3267 191.148 93.1764C191.541 93.0261 191.954 92.9509 192.388 92.9509C192.831 92.9509 193.244 93.0261 193.628 93.1764C194.021 93.3267 194.363 93.5772 194.655 93.9279C194.956 94.2786 195.19 94.7462 195.357 95.3307C195.532 95.9068 195.62 96.6208 195.62 97.4725C195.62 98.3492 195.532 99.084 195.357 99.6769C195.19 100.261 194.956 100.729 194.655 101.08C194.363 101.43 194.021 101.681 193.628 101.831C193.244 101.981 192.831 102.057 192.388 102.057C191.954 102.057 191.541 101.981 191.148 101.831C190.764 101.681 190.426 101.43 190.134 101.08C189.841 100.729 189.608 100.261 189.432 99.6769C189.265 99.084 189.182 98.3492 189.182 97.4725ZM198.834 97.3472C198.601 97.3472 198.392 97.3931 198.208 97.485C198.033 97.5685 197.887 97.6854 197.77 97.8357C197.653 97.986 197.565 98.1613 197.507 98.3617C197.448 98.5538 197.419 98.7584 197.419 98.9755C197.419 99.1759 197.448 99.3763 197.507 99.5767C197.573 99.7687 197.665 99.9441 197.782 100.103C197.907 100.253 198.058 100.374 198.233 100.466C198.408 100.558 198.609 100.604 198.834 100.604C199.051 100.604 199.239 100.558 199.398 100.466C199.565 100.374 199.707 100.253 199.824 100.103C199.941 99.9524 200.028 99.7812 200.087 99.5892C200.145 99.3971 200.174 99.2009 200.174 99.0005C200.174 98.7918 200.145 98.5914 200.087 98.3993C200.037 98.1989 199.957 98.0236 199.849 97.8733C199.74 97.7146 199.598 97.5894 199.423 97.4975C199.256 97.3973 199.06 97.3472 198.834 97.3472ZM200.112 95.3808C200.053 95.0885 199.92 94.8339 199.711 94.6168C199.502 94.3997 199.243 94.2911 198.935 94.2911C198.617 94.2911 198.35 94.3871 198.133 94.5792C197.924 94.7629 197.757 94.9925 197.632 95.2681C197.507 95.5353 197.415 95.8233 197.356 96.1323C197.298 96.4412 197.265 96.7168 197.256 96.9589L197.281 96.984C197.523 96.6333 197.807 96.3828 198.133 96.2325C198.459 96.0822 198.834 96.007 199.26 96.007C199.636 96.007 200.003 96.0905 200.362 96.2575C200.721 96.4162 201.026 96.6333 201.277 96.9088C201.51 97.176 201.682 97.4808 201.79 97.8232C201.899 98.1655 201.953 98.512 201.953 98.8627C201.953 99.3136 201.878 99.7353 201.728 100.128C201.586 100.512 201.377 100.85 201.101 101.142C200.834 101.426 200.513 101.652 200.137 101.819C199.761 101.977 199.344 102.057 198.884 102.057C198.225 102.057 197.678 101.927 197.244 101.668C196.809 101.401 196.463 101.055 196.204 100.629C195.945 100.203 195.766 99.7228 195.665 99.1884C195.565 98.6456 195.515 98.0945 195.515 97.5351C195.515 96.9923 195.578 96.4496 195.703 95.9068C195.828 95.3641 196.029 94.8756 196.304 94.4414C196.58 93.9989 196.935 93.6398 197.369 93.3643C197.803 93.0887 198.333 92.9509 198.96 92.9509C199.335 92.9509 199.686 93.0052 200.012 93.1138C200.337 93.2223 200.625 93.381 200.876 93.5897C201.126 93.7901 201.331 94.0406 201.49 94.3412C201.648 94.6418 201.753 94.9883 201.803 95.3808H200.112Z" fill="white"/>
<path d="M211.835 97.4725C211.835 97.723 211.844 98.0277 211.86 98.3868C211.877 98.7375 211.927 99.0798 212.011 99.4138C212.103 99.7395 212.244 100.019 212.437 100.253C212.629 100.487 212.904 100.604 213.263 100.604C213.631 100.604 213.91 100.487 214.102 100.253C214.303 100.019 214.445 99.7395 214.528 99.4138C214.62 99.0798 214.674 98.7375 214.691 98.3868C214.708 98.0277 214.716 97.723 214.716 97.4725C214.716 97.3222 214.712 97.1426 214.704 96.9339C214.704 96.7168 214.687 96.4955 214.653 96.2701C214.628 96.0446 214.587 95.8233 214.528 95.6062C214.478 95.3808 214.399 95.1804 214.29 95.005C214.182 94.8297 214.044 94.6877 213.877 94.5792C213.71 94.4706 213.505 94.4164 213.263 94.4164C213.021 94.4164 212.816 94.4706 212.649 94.5792C212.491 94.6877 212.357 94.8297 212.249 95.005C212.148 95.1804 212.069 95.3808 212.011 95.6062C211.952 95.8233 211.91 96.0446 211.885 96.2701C211.86 96.4955 211.844 96.7168 211.835 96.9339C211.835 97.1426 211.835 97.3222 211.835 97.4725ZM210.057 97.4725C210.057 96.6208 210.14 95.9068 210.307 95.3307C210.483 94.7462 210.716 94.2786 211.009 93.9279C211.301 93.5772 211.639 93.3267 212.023 93.1764C212.416 93.0261 212.829 92.9509 213.263 92.9509C213.706 92.9509 214.119 93.0261 214.503 93.1764C214.896 93.3267 215.238 93.5772 215.53 93.9279C215.831 94.2786 216.065 94.7462 216.232 95.3307C216.407 95.9068 216.495 96.6208 216.495 97.4725C216.495 98.3492 216.407 99.084 216.232 99.6769C216.065 100.261 215.831 100.729 215.53 101.08C215.238 101.43 214.896 101.681 214.503 101.831C214.119 101.981 213.706 102.057 213.263 102.057C212.829 102.057 212.416 101.981 212.023 101.831C211.639 101.681 211.301 101.43 211.009 101.08C210.716 100.729 210.483 100.261 210.307 99.6769C210.14 99.084 210.057 98.3492 210.057 97.4725ZM222.603 94.6543C222.143 95.0551 221.734 95.5478 221.375 96.1323C221.024 96.7168 220.728 97.3389 220.486 97.9985C220.252 98.6582 220.068 99.3262 219.935 100.003C219.81 100.679 219.743 101.309 219.734 101.894H217.831C217.931 100.583 218.236 99.322 218.745 98.1112C219.263 96.9005 219.939 95.7899 220.774 94.7796H216.616V93.1263H222.603V94.6543Z" fill="white"/>
<circle cx="198.312" cy="24.0061" r="5.21875" fill="#B5B4B4"/>
<circle cx="211.881" cy="24.0061" r="5.21875" fill="#EAEAEA"/>
<circle cx="225.45" cy="24.0061" r="5.21875" fill="#EAEAEA"/>
<defs>
<filter id="filter0_d_357_77" x="129.15" y="32.8392" width="109.101" height="37.0818" filterUnits="userSpaceOnUse" color-interpolation-filters="sRGB">
<feFlood flood-opacity="0" result="BackgroundImageFix"/>
<feColorMatrix in="SourceAlpha" type="matrix" values="0 0 0 0 0 0 0 0 0 0 0 0 0 0 0 0 0 0 127 0" result="hardAlpha"/>
<feOffset dy="0.758154"/>
<feGaussianBlur stdDeviation="3.79077"/>
<feComposite in2="hardAlpha" operator="out"/>
<feColorMatrix type="matrix" values="0 0 0 0 0 0 0 0 0 0 0 0 0 0 0 0 0 0 0.25 0"/>
<feBlend mode="normal" in2="BackgroundImageFix" result="effect1_dropShadow_357_77"/>
<feBlend mode="normal" in="SourceGraphic" in2="effect1_dropShadow_357_77" result="shape"/>
</filter>
<filter id="filter1_d_357_77" x="46.9687" y="177.438" width="156.563" height="48.0125" filterUnits="userSpaceOnUse" color-interpolation-filters="sRGB">
<feFlood flood-opacity="0" result="BackgroundImageFix"/>
<feColorMatrix in="SourceAlpha" type="matrix" values="0 0 0 0 0 0 0 0 0 0 0 0 0 0 0 0 0 0 127 0" result="hardAlpha"/>
<feOffset dy="1.04375"/>
<feGaussianBlur stdDeviation="4.175"/>
<feComposite in2="hardAlpha" operator="out"/>
<feColorMatrix type="matrix" values="0 0 0 0 0 0 0 0 0 0 0 0 0 0 0 0 0 0 0.25 0"/>
<feBlend mode="normal" in2="BackgroundImageFix" result="effect1_dropShadow_357_77"/>
<feBlend mode="normal" in="SourceGraphic" in2="effect1_dropShadow_357_77" result="shape"/>
</filter>
</defs>
</svg>
